<svg width="266" height="70" viewBox="0 0 266 70" fill="none" xmlns="http://www.w3.org/2000/svg">
<rect width="266" height="70" fill="#0B152A"/>
<g clip-path="url(#clip0_554_1289)">
<path d="M90.5463 38.6306C88.5448 46.665 80.4026 51.5587 72.3682 49.5524C64.3338 47.5509 59.4448 39.4087 61.4463 31.3743C63.4479 23.3353 71.5854 18.4462 79.6197 20.4478C87.6588 22.454 92.5526 30.5915 90.5463 38.6306Z" fill="#F7931A"/>
<path d="M82.6104 32.8649C82.9104 30.8681 81.3917 29.7946 79.3105 29.0821L79.9854 26.3774L78.3401 25.9649L77.6839 28.5993C77.2526 28.4915 76.8073 28.3884 76.3667 28.2899L77.0276 25.6415L75.3823 25.229L74.7073 27.9337C74.3511 27.854 73.9995 27.7696 73.6573 27.6852V27.6759L71.3886 27.1087L70.9526 28.8665C70.9526 28.8665 72.1761 29.1477 72.148 29.1618C72.8136 29.3306 72.9354 29.7712 72.9167 30.1181L72.148 33.1978C72.1948 33.2118 72.2558 33.2259 72.3214 33.254C72.2651 33.2399 72.2089 33.2259 72.148 33.2118L71.0698 37.529C70.9901 37.7306 70.7792 38.0353 70.3151 37.9181C70.3292 37.9415 69.1198 37.6181 69.1198 37.6181L68.3042 39.5024L70.4464 40.0368C70.8448 40.1353 71.2339 40.2431 71.6183 40.3415L70.9386 43.0743L72.5839 43.4868L73.2589 40.7821C73.7089 40.904 74.1448 41.0165 74.5714 41.1243L73.9011 43.8149L75.5464 44.2274L76.2261 41.4993C79.0339 42.029 81.1433 41.8181 82.0292 39.2774C82.7464 37.2337 81.9917 36.0524 80.5151 35.2837C81.5839 35.0306 82.3948 34.3228 82.6104 32.8649ZM78.8511 38.1337C78.3448 40.1774 74.8995 39.0712 73.7839 38.7946L74.6886 35.1712C75.8042 35.4524 79.3808 36.0056 78.8511 38.1337ZM79.362 32.8321C78.8979 34.6931 76.0339 33.7462 75.1058 33.5165L75.9261 30.2306C76.8495 30.4602 79.8448 30.8962 79.362 32.8321Z" fill="white"/>
<path d="M104.956 29.0774C106.174 29.0774 107.224 29.2931 108.106 29.7243C108.992 30.1556 109.727 30.7368 110.313 31.4728C110.895 32.2087 111.326 33.0712 111.602 34.0556C111.879 35.0446 112.02 36.1087 112.02 37.2431C112.02 38.9915 111.701 40.6415 111.054 42.1977C110.407 43.754 109.531 45.1087 108.415 46.2618C107.299 47.4149 105.982 48.3196 104.468 48.9899C102.954 49.6603 101.304 49.9977 99.5368 49.9977C99.3071 49.9977 98.904 49.9931 98.3368 49.979C97.7696 49.9696 97.1181 49.9087 96.3821 49.8103C95.6462 49.7071 94.8681 49.5571 94.0477 49.3509C93.2274 49.1493 92.4446 48.8727 91.7134 48.5165L98.2806 20.9165L104.163 20.0024L101.81 29.7946C102.312 29.5696 102.823 29.3915 103.329 29.2649C103.831 29.1431 104.374 29.0774 104.956 29.0774ZM100.024 45.329C100.91 45.329 101.745 45.1134 102.527 44.6821C103.315 44.2556 103.995 43.6743 104.562 42.9524C105.129 42.2306 105.579 41.4149 105.907 40.5009C106.235 39.5915 106.399 38.6399 106.399 37.6509C106.399 36.4368 106.198 35.4899 105.79 34.8056C105.387 34.1259 104.637 33.779 103.549 33.779C103.193 33.779 102.734 33.8446 102.166 33.9665C101.595 34.0931 101.084 34.3649 100.624 34.7681L98.1212 45.1696C98.2712 45.1978 98.4071 45.2212 98.5196 45.2446C98.6321 45.2727 98.754 45.2868 98.8759 45.3009C99.0071 45.3149 99.1524 45.3243 99.3353 45.3243C99.5181 45.329 99.7431 45.329 100.024 45.329Z" fill="white"/>
<path d="M118.118 49.468H112.498L117.242 29.4993H122.9L118.118 49.468ZM120.856 27.0664C120.073 27.0664 119.361 26.8321 118.728 26.3633C118.09 25.8993 117.776 25.1821 117.776 24.2165C117.776 23.6868 117.884 23.1899 118.1 22.7164C118.315 22.2477 118.601 21.8446 118.957 21.5024C119.314 21.1602 119.721 20.8883 120.19 20.6868C120.659 20.4852 121.161 20.3821 121.69 20.3821C122.473 20.3821 123.181 20.6165 123.814 21.0852C124.446 21.554 124.761 22.2711 124.761 23.2321C124.761 23.7664 124.653 24.2633 124.437 24.7321C124.221 25.2008 123.94 25.604 123.584 25.9461C123.232 26.2883 122.815 26.5602 122.351 26.7618C121.882 26.968 121.386 27.0664 120.856 27.0664Z" fill="white"/>
<path d="M127.826 24.5258L133.713 23.6165L132.27 29.504H138.574L137.435 34.1352H131.168L129.499 41.1196C129.345 41.7008 129.26 42.2446 129.232 42.7508C129.204 43.2571 129.27 43.693 129.42 44.0633C129.57 44.4336 129.842 44.7149 130.235 44.9165C130.629 45.1227 131.187 45.2211 131.923 45.2211C132.528 45.2211 133.118 45.1649 133.69 45.0477C134.257 44.9352 134.834 44.7805 135.415 44.5743L135.832 48.9055C135.073 49.1821 134.253 49.4211 133.367 49.6274C132.481 49.8336 131.431 49.9274 130.217 49.9274C128.473 49.9274 127.118 49.6696 126.153 49.154C125.192 48.6336 124.507 47.9258 124.099 47.0258C123.696 46.1305 123.518 45.0993 123.57 43.9321C123.621 42.7649 123.799 41.5415 124.099 40.2477L127.826 24.5258Z" fill="white"/>
<path d="M138.321 41.4946C138.321 39.7743 138.598 38.1524 139.156 36.6336C139.709 35.1149 140.51 33.7837 141.551 32.6446C142.587 31.5102 143.848 30.6102 145.329 29.9493C146.806 29.293 148.46 28.9602 150.279 28.9602C151.418 28.9602 152.44 29.068 153.335 29.2836C154.235 29.4993 155.051 29.7852 155.787 30.1368L153.851 34.543C153.345 34.3368 152.82 34.1586 152.276 33.9946C151.732 33.8258 151.067 33.7461 150.284 33.7461C148.409 33.7461 146.928 34.393 145.821 35.6821C144.72 36.9711 144.167 38.7102 144.167 40.8852C144.167 42.1743 144.443 43.2196 145.006 44.0165C145.563 44.8133 146.59 45.2118 148.081 45.2118C148.817 45.2118 149.524 45.1368 150.209 44.9868C150.893 44.8368 151.498 44.6446 152.032 44.4196L152.454 48.9383C151.742 49.2149 150.959 49.4633 150.101 49.679C149.238 49.8899 148.212 49.9977 147.026 49.9977C145.456 49.9977 144.129 49.768 143.042 49.3133C141.954 48.854 141.054 48.2446 140.346 47.4711C139.634 46.6977 139.123 45.793 138.809 44.7571C138.485 43.7211 138.321 42.629 138.321 41.4946Z" fill="white"/>
<path d="M163.282 49.9977C161.942 49.9977 160.774 49.7914 159.785 49.3883C158.801 48.9852 157.985 48.418 157.338 47.682C156.692 46.9508 156.209 46.0836 155.876 45.0851C155.543 44.0867 155.384 42.9805 155.384 41.7664C155.384 40.2477 155.628 38.7242 156.12 37.2055C156.612 35.6867 157.338 34.3227 158.304 33.1086C159.26 31.8945 160.442 30.9008 161.834 30.1227C163.221 29.3539 164.82 28.9648 166.615 28.9648C167.932 28.9648 169.09 29.1711 170.093 29.5742C171.092 29.9773 171.912 30.5492 172.559 31.2805C173.201 32.0164 173.688 32.8789 174.017 33.882C174.349 34.8805 174.509 35.9914 174.509 37.2008C174.509 38.7148 174.27 40.2383 173.792 41.757C173.313 43.2711 172.601 44.6398 171.663 45.8539C170.726 47.068 169.559 48.0617 168.153 48.8305C166.76 49.6086 165.129 49.9977 163.282 49.9977ZM166.09 33.7461C165.256 33.7461 164.52 33.9898 163.892 34.4633C163.259 34.9461 162.729 35.5555 162.298 36.2867C161.867 37.0227 161.543 37.8242 161.328 38.6961C161.112 39.5727 161.004 40.3977 161.004 41.1805C161.004 42.4461 161.21 43.4352 161.609 44.143C162.017 44.8508 162.748 45.2023 163.812 45.2023C164.646 45.2023 165.382 44.9633 166.015 44.4805C166.643 44.0023 167.178 43.393 167.609 42.657C168.04 41.9258 168.363 41.1195 168.579 40.2477C168.79 39.3758 168.898 38.5461 168.898 37.7633C168.898 36.4977 168.696 35.5086 168.288 34.8008C167.89 34.1023 167.154 33.7461 166.09 33.7461Z" fill="white"/>
<path d="M180.64 49.468H175.015L179.759 29.4993H185.417L180.64 49.468ZM183.373 27.0664C182.59 27.0664 181.878 26.8321 181.25 26.3633C180.617 25.8993 180.298 25.1821 180.298 24.2165C180.298 23.6868 180.406 23.1899 180.621 22.7164C180.837 22.2477 181.123 21.8446 181.474 21.5024C181.826 21.1602 182.243 20.8883 182.707 20.6868C183.176 20.4852 183.673 20.3821 184.203 20.3821C184.99 20.3821 185.698 20.6165 186.331 21.0852C186.964 21.554 187.282 22.2711 187.282 23.2321C187.282 23.7664 187.17 24.2633 186.959 24.7321C186.748 25.2008 186.462 25.604 186.106 25.9461C185.749 26.2883 185.342 26.5602 184.873 26.7618C184.404 26.968 183.907 27.0664 183.373 27.0664Z" fill="white"/>
<path d="M189.471 30.4087C189.898 30.2822 190.376 30.1322 190.892 29.9728C191.412 29.8087 191.993 29.6587 192.64 29.5228C193.282 29.3822 194.004 29.265 194.801 29.1806C195.598 29.0916 196.503 29.0447 197.51 29.0447C200.473 29.0447 202.517 29.9072 203.646 31.6275C204.771 33.3478 204.968 35.7009 204.237 38.6869L201.654 49.4681H195.996L198.499 38.9119C198.654 38.2556 198.771 37.6181 198.86 36.9947C198.949 36.3759 198.945 35.8322 198.842 35.3634C198.743 34.8994 198.509 34.5197 198.143 34.2244C197.773 33.9337 197.21 33.7884 196.451 33.7884C195.72 33.7884 194.974 33.8681 194.21 34.0181L190.526 49.4681H184.868L189.471 30.4087Z" fill="white"/>
</g>
<defs>
<clipPath id="clip0_554_1289">
<rect width="143.677" height="30" fill="white" transform="translate(61 20)"/>
</clipPath>
</defs>
</svg>
