<svg width="80" height="80" viewBox="0 0 80 80" fill="none" xmlns="http://www.w3.org/2000/svg">
<path fill-rule="evenodd" clip-rule="evenodd" d="M72.2192 0H7.78082C5.71766 0.00145139 3.73943 0.82168 2.28055 2.28055C0.82168 3.73943 0.00145139 5.71766 0 7.78082V72.2192C0.00145139 74.2823 0.82168 76.2606 2.28055 77.7195C3.73943 79.1783 5.71766 79.9986 7.78082 80H72.2192C74.2823 79.9986 76.2606 79.1783 77.7195 77.7195C79.1783 76.2606 79.9986 74.2823 80 72.2192V7.78082C79.9986 5.71766 79.1783 3.73943 77.7195 2.28055C76.2606 0.82168 74.2823 0.00145139 72.2192 0ZM76.7123 72.2192C76.7116 73.4106 76.238 74.553 75.3955 75.3955C74.553 76.238 73.4106 76.7116 72.2192 76.7123H7.78082C6.58939 76.7116 5.44696 76.238 4.60449 75.3955C3.76201 74.553 3.2884 73.4106 3.28767 72.2192V7.78082C3.2884 6.58939 3.76201 5.44696 4.60449 4.60449C5.44696 3.76201 6.58939 3.2884 7.78082 3.28767H72.2192C73.4106 3.2884 74.553 3.76201 75.3955 4.60449C76.238 5.44696 76.7116 6.58939 76.7123 7.78082V72.2192Z" fill="url(#paint0_linear_141_46)"/>
<path fill-rule="evenodd" clip-rule="evenodd" d="M56.3288 28.3999C55.8661 23.6907 53.618 19.3373 50.046 16.2338C46.4741 13.1302 41.8494 11.512 37.1217 11.7115C32.394 11.9111 27.9222 13.9131 24.6244 17.3066C21.3266 20.7001 19.4533 25.2274 19.389 29.9588C19.3881 30.9687 19.4724 31.9769 19.6411 32.9725C16.8361 33.7705 14.4172 35.5618 12.8358 38.0122C11.2545 40.4625 10.6186 43.4045 11.047 46.2892C11.4753 49.1739 12.9386 51.8042 15.1637 53.6894C17.3889 55.5745 20.2239 56.5857 23.1397 56.5342C23.5757 56.5342 23.9938 56.361 24.3021 56.0527C24.6104 55.7444 24.7836 55.3263 24.7836 54.8903C24.7836 54.4544 24.6104 54.0363 24.3021 53.728C23.9938 53.4197 23.5757 53.2465 23.1397 53.2465C20.9124 53.2829 18.7554 52.467 17.1099 50.9655C15.4643 49.4641 14.4546 47.3906 14.2873 45.1694C14.1201 42.9481 14.8078 40.7468 16.2099 39.0158C17.612 37.2849 19.6225 36.155 21.8301 35.8575C22.0598 35.824 22.2797 35.7423 22.4755 35.6177C22.6713 35.4931 22.8385 35.3285 22.9661 35.1346C23.0937 34.9408 23.1788 34.7221 23.2158 34.493C23.2528 34.2639 23.2409 34.0296 23.1808 33.8054C22.8456 32.5544 22.6761 31.2649 22.6767 29.9698C22.7523 25.9841 24.3887 22.1873 27.2341 19.3954C30.0795 16.6034 33.9068 15.0394 37.8931 15.0394C41.8795 15.0394 45.7067 16.6034 48.5522 19.3954C51.3976 22.1873 53.0339 25.9841 53.1096 29.9698C53.1096 30.4058 53.2828 30.8239 53.5911 31.1322C53.8993 31.4404 54.3174 31.6136 54.7534 31.6136C57.4782 31.5665 60.1201 32.5506 62.1499 34.3689C64.1798 36.1872 65.4476 38.7053 65.6995 41.4188C65.9514 44.1323 65.1687 46.8407 63.5082 49.0015C61.8477 51.1623 59.4321 52.616 56.7452 53.0712C56.3212 53.1535 55.9467 53.3995 55.7026 53.7558C55.4585 54.1121 55.3645 54.5502 55.4408 54.9753C55.5171 55.4004 55.7577 55.7783 56.1104 56.0275C56.4632 56.2767 56.8999 56.377 57.326 56.3068C60.6874 55.7324 63.7262 53.9577 65.8781 51.3124C68.03 48.667 69.149 45.3306 69.0271 41.9227C68.9053 38.5148 67.551 35.2668 65.2156 32.7819C62.8803 30.2969 59.7226 28.7438 56.3288 28.4109V28.3999Z" fill="url(#paint1_linear_141_46)"/>
<path fill-rule="evenodd" clip-rule="evenodd" d="M28.4411 28.526C29.0498 26.3304 30.3641 24.3961 32.1813 23.0216C33.9985 21.647 36.2175 20.9087 38.4959 20.9206C38.9319 20.9206 39.35 20.7474 39.6583 20.4391C39.9665 20.1308 40.1397 19.7127 40.1397 19.2767C40.1397 18.8408 39.9665 18.4226 39.6583 18.1144C39.35 17.8061 38.9319 17.6329 38.4959 17.6329C35.4946 17.6223 32.5733 18.5994 30.1823 20.4135C27.7914 22.2276 26.0637 24.778 25.2658 27.6713C25.2096 27.8798 25.1951 28.0973 25.223 28.3114C25.251 28.5255 25.3208 28.732 25.4286 28.9191C25.5363 29.1062 25.6798 29.2703 25.851 29.4019C26.0221 29.5336 26.2175 29.6302 26.426 29.6863C26.6345 29.7424 26.852 29.757 27.0661 29.729C27.2802 29.7011 27.4867 29.6313 27.6739 29.5235C27.861 29.4158 28.025 29.2722 28.1567 29.1011C28.2883 28.9299 28.385 28.7345 28.4411 28.526Z" fill="url(#paint2_linear_141_46)"/>
<path fill-rule="evenodd" clip-rule="evenodd" d="M39.8575 42.2083C37.2245 42.2083 34.6506 42.9891 32.4613 44.452C30.272 45.9149 28.5658 47.9941 27.5583 50.4268C26.5508 52.8595 26.2873 55.5363 26.8012 58.1187C27.3151 60.7011 28.5832 63.0731 30.4453 64.9348C32.3073 66.7964 34.6796 68.0641 37.2621 68.5774C39.8446 69.0908 42.5214 68.8268 44.9538 67.8188C47.3863 66.8108 49.4652 65.1041 50.9277 62.9145C52.3901 60.725 53.1704 58.1509 53.1699 55.5178C53.1677 51.9881 51.7643 48.6036 49.2682 46.108C46.772 43.6123 43.3873 42.2097 39.8575 42.2083ZM39.8575 65.5425C37.8748 65.5425 35.9367 64.9546 34.2881 63.853C32.6396 62.7515 31.3547 61.1859 30.596 59.3541C29.8372 57.5223 29.6387 55.5067 30.0255 53.5621C30.4123 51.6175 31.367 49.8313 32.769 48.4293C34.171 47.0274 35.9572 46.0726 37.9018 45.6858C39.8464 45.299 41.862 45.4975 43.6938 46.2563C45.5256 47.015 47.0912 48.2999 48.1927 49.9484C49.2942 51.597 49.8822 53.5351 49.8822 55.5178C49.8815 58.1763 48.8251 60.7257 46.9452 62.6055C45.0654 64.4854 42.516 65.5418 39.8575 65.5425Z" fill="url(#paint3_linear_141_46)"/>
<path fill-rule="evenodd" clip-rule="evenodd" d="M41.5014 54.8383V49.4739C41.5014 49.0379 41.3282 48.6198 41.0199 48.3115C40.7116 48.0033 40.2935 47.8301 39.8575 47.8301C39.4216 47.8301 39.0034 48.0033 38.6952 48.3115C38.3869 48.6198 38.2137 49.0379 38.2137 49.4739V55.5177C38.2135 55.734 38.256 55.9482 38.3388 56.148C38.4215 56.3478 38.5429 56.5293 38.6959 56.6821L42.5836 60.5698C42.7357 60.7246 42.9169 60.8477 43.1168 60.9321C43.3167 61.0165 43.5314 61.0604 43.7484 61.0614C43.9654 61.0624 44.1804 61.0205 44.3811 60.938C44.5818 60.8554 44.7642 60.734 44.9177 60.5807C45.0712 60.4273 45.1929 60.2451 45.2756 60.0445C45.3584 59.8439 45.4006 59.6289 45.3998 59.4119C45.3991 59.1949 45.3554 58.9802 45.2712 58.7802C45.1871 58.5802 45.0642 58.3988 44.9096 58.2465L41.5014 54.8383Z" fill="url(#paint4_linear_141_46)"/>
<defs>
<linearGradient id="paint0_linear_141_46" x1="39.3315" y1="-3.86849" x2="40.7014" y2="85.8575" gradientUnits="userSpaceOnUse">
<stop stop-color="#B621FE"/>
<stop offset="1" stop-color="#1FD1F9"/>
</linearGradient>
<linearGradient id="paint1_linear_141_46" x1="39.2767" y1="-3.86582" x2="40.6466" y2="85.8602" gradientUnits="userSpaceOnUse">
<stop stop-color="#B621FE"/>
<stop offset="1" stop-color="#1FD1F9"/>
</linearGradient>
<linearGradient id="paint2_linear_141_46" x1="32.2548" y1="-3.75888" x2="33.6247" y2="85.9672" gradientUnits="userSpaceOnUse">
<stop stop-color="#B621FE"/>
<stop offset="1" stop-color="#1FD1F9"/>
</linearGradient>
<linearGradient id="paint3_linear_141_46" x1="38.9534" y1="-3.86024" x2="40.3233" y2="85.8658" gradientUnits="userSpaceOnUse">
<stop stop-color="#B621FE"/>
<stop offset="1" stop-color="#1FD1F9"/>
</linearGradient>
<linearGradient id="paint4_linear_141_46" x1="40.8657" y1="-3.89046" x2="42.2356" y2="85.8356" gradientUnits="userSpaceOnUse">
<stop stop-color="#B621FE"/>
<stop offset="1" stop-color="#1FD1F9"/>
</linearGradient>
</defs>
</svg>
