<svg width="86" height="80" viewBox="0 0 86 80" fill="none" xmlns="http://www.w3.org/2000/svg">
<path d="M84.0833 37.8L70.5667 30.3C69.7665 29.9 68.8665 29.9 68.0667 30.3L62.6667 33.3508V12.5H22.6667V33.3508L17.2665 30.3C16.4667 29.9 15.5667 29.9 14.7665 30.3L1.25 37.8C0.499833 38.2498 0 39.1 0 40C0 40.9 0.499833 41.7498 1.25 42.2L10.8667 47.5L36.4167 69.7H48.9167L74.4667 47.5L84.0833 42.2C84.8335 41.7498 85.3333 40.9 85.3333 40C85.3333 39.1 84.8335 38.2498 84.0833 37.8ZM42.6667 44.65L30.0108 37.5H55.3223L42.6667 44.65Z" fill="url(#paint0_linear_139_33)"/>
<path d="M84.0833 52.8L74.4667 47.5L43.9167 64.7C43.5167 64.8998 43.0667 65 42.6667 65C42.2667 65 41.8167 64.8998 41.4167 64.7L10.8667 47.5L1.25 52.8C0.499833 53.2498 0 54.1 0 55C0 55.9 0.499833 56.7498 1.25 57.2L41.4167 79.7C41.8167 79.8998 42.2667 80 42.6667 80C43.0667 80 43.5167 79.8998 43.9167 79.7L84.0833 57.2C84.8335 56.7498 85.3333 55.9 85.3333 55C85.3333 54.1 84.8335 53.2498 84.0833 52.8ZM1.25 27.2L41.4167 49.7C41.8167 49.8998 42.2667 50 42.6667 50C43.0667 50 43.5167 49.8998 43.9167 49.7L84.0833 27.2C84.8335 26.7498 85.3333 25.9 85.3333 25C85.3333 24.1 84.8335 23.2498 84.0833 22.8L43.9167 0.3C43.1168 -0.1 42.2165 -0.1 41.4167 0.3L1.25 22.8C0.499833 23.2498 0 24.1 0 25C0 25.9 0.499833 26.7498 1.25 27.2V27.2ZM50.9168 21.7498C49.9168 20.7998 49.9168 19.1998 50.9168 18.2498C51.8668 17.25 53.4667 17.25 54.4167 18.2498L59.4167 23.2498C60.4167 24.1998 60.4167 25.7998 59.4167 26.7498L54.4167 31.7498C53.5173 32.7498 51.8167 32.7502 50.9168 31.7498C49.9168 30.7998 49.9168 29.1998 50.9168 28.2498L54.1165 25L50.9168 21.7498ZM38.9667 29.4L41.4667 19.4C41.8167 18.0498 43.1665 17.25 44.5167 17.5997C45.8668 17.8997 46.6667 19.2498 46.3667 20.5998L43.8667 30.5998C43.4407 32.233 41.5957 32.7898 40.8167 32.3998C39.4667 32.1 38.6667 30.7498 38.9667 29.4V29.4ZM25.9168 23.2498L30.9168 18.2498C31.8668 17.25 33.4667 17.25 34.4167 18.2498C35.4167 19.1998 35.4167 20.7998 34.4167 21.7498L31.2168 25L34.4165 28.2498C35.4165 29.1998 35.4165 30.7998 34.4165 31.7498C33.5172 32.7498 31.8165 32.7502 30.9167 31.7498L25.9167 26.7498C24.9167 25.7998 24.9167 24.1998 25.9168 23.2498Z" fill="url(#paint1_linear_139_33)"/>
<defs>
<linearGradient id="paint0_linear_139_33" x1="42.6667" y1="69.7" x2="42.6667" y2="12.5" gradientUnits="userSpaceOnUse">
<stop stop-color="#ADDCFF"/>
<stop offset="0.5028" stop-color="#EAF6FF"/>
<stop offset="1" stop-color="#EAF6FF"/>
</linearGradient>
<linearGradient id="paint1_linear_139_33" x1="42.6667" y1="80" x2="42.6667" y2="0" gradientUnits="userSpaceOnUse">
<stop stop-color="#5558FF"/>
<stop offset="1" stop-color="#00C0FF"/>
</linearGradient>
</defs>
</svg>
