<svg width="168" height="54" viewBox="0 0 168 54" fill="none" xmlns="http://www.w3.org/2000/svg">
<g clip-path="url(#clip0_144_124)">
<path d="M40.6873 54C55.7596 54 67.9781 41.9117 67.9781 27C67.9781 12.0883 55.7596 0 40.6873 0C25.615 0 13.3965 12.0883 13.3965 27C13.3965 41.9117 25.615 54 40.6873 54Z" fill="#4380C2"/>
<path d="M52.6525 26.8489C52.3867 26.4123 51.9454 26.1045 51.6342 26.1493C51.6342 26.1493 50.5254 26.2836 48.6189 26.4571C49.2808 25.0522 49.9484 23.5634 50.5707 22.0299C53.8915 14.0541 55.7131 9.13993 56.5504 6.20709C57.6593 2.17165 56.9464 0.990676 55.1304 1.16418C54.5534 1.20896 49.4166 6.42538 42.5486 13.4384C34.3964 8.13247 19.8176 11.9049 10.0248 16.9478C7.50163 18.2183 5.28397 19.6231 3.55283 20.9832C1.86696 22.3433 0.673267 23.6138 0.231998 24.7556C-0.25453 25.8974 0.0113633 26.9888 1.12019 27.9571C3.77913 30.2799 15.0315 30.3694 26.3744 29.8433C18.573 37.6903 11.0431 45.056 6.52292 48.7836C6.56817 48.5653 6.4324 48.2127 6.16651 47.9048C5.8101 47.5075 5.36883 47.334 5.19345 47.5075C5.14819 47.5075 1.87262 50.4011 2.17811 51.5821C2.444 52.6343 3.06631 53.0261 3.90359 52.8078C6.472 52.153 17.7753 41.1884 29.203 29.6586C35.3638 29.306 41.3436 28.7799 45.728 28.3881C43.0691 33.9123 40.4101 38.6026 38.464 42.0224C36.5575 45.3974 35.3638 47.5466 35.5392 48.2463C35.8051 49.1698 36.2916 49.5616 36.9988 49.3881C37.4401 49.2985 38.6394 48.028 40.099 46.0131C42.0904 43.2537 44.6192 39.1287 46.3899 34.6175C47.2329 32.5131 47.8948 30.319 48.2512 28.1306C50.9554 27.8675 52.596 27.694 52.6356 27.694C52.9184 27.6381 52.9637 27.2407 52.6525 26.8489ZM40.6874 41.8433C41.6152 40.1754 42.6787 38.2948 43.7876 36.1903C42.8145 38.2444 41.7509 40.1754 40.6874 41.8433ZM27.9301 28.2537C16.1856 28.9534 3.96016 29.1716 1.4766 27.028C1.34649 26.8993 1.38609 26.5466 1.61238 25.9757C2.05365 24.9235 3.20774 23.6978 4.84835 22.3825C6.53423 21.0672 8.70098 19.6623 11.2298 18.3918C20.536 13.6119 34.0909 9.88993 41.8018 14.1828L40.0311 15.9795C36.2577 19.8358 32.0939 24.084 27.9301 28.2537ZM46.9783 25.7519L46.537 26.6754C42.6391 27.0672 36.9196 27.6381 30.804 28.0354C34.436 24.3974 38.0284 20.7146 41.304 17.3843L43.3859 15.2351C45.1114 16.6399 46.1353 18.347 46.6671 20.3172C47.114 22.0243 47.1593 23.8657 46.9783 25.7519ZM48.0418 20.9328C47.4195 18.5653 46.1806 16.3713 44.0535 14.5746C50.7913 7.73508 55.7527 2.73694 56.1092 2.69217C56.375 2.64739 55.6226 3.30784 55.0908 5.05971C54.2932 7.95336 52.4772 12.8619 49.1507 20.7985C48.93 21.4142 48.6642 22.0243 48.3983 22.5952C48.3077 22.0243 48.2229 21.4534 48.0418 20.9328Z" fill="white"/>
<path d="M65.0138 31.1418C64.7479 30.7444 64.482 30.9683 64.2161 31.0522C63.0168 31.4049 61.7778 31.5784 60.9349 31.5336C60.3578 31.4888 60.4936 30.4813 60.0919 30.0448C59.2037 28.9478 57.0766 29.6474 55.5265 30.3974L57.1671 27.8116C57.3029 27.5933 57.1218 27.1119 56.7258 26.7593C56.3694 26.4067 55.9281 26.278 55.798 26.4963L49.4619 36.6213C49.3317 36.8396 49.5071 37.3209 49.9031 37.6735C50.2595 38.0261 50.7008 38.1549 50.8309 37.9366C51.0516 37.5392 53.3541 33.6828 53.4446 33.6381C53.4446 33.6381 57.3877 30.1735 58.0553 30.9627C59.0284 32.1045 59.3848 32.4067 60.5389 32.4963C61.4667 32.5858 63.5938 32.1437 64.8837 31.7519C65.1439 31.7127 65.3249 31.584 65.0138 31.1418Z" fill="white"/>
<path d="M120.795 45.3918C103.206 39.9571 96.9096 34.7407 95.0088 32.681C102.273 32.7705 110.781 30.0951 114.328 23.4739C116.631 19.0466 115.567 13.7854 112.247 9.97388C103.829 0.374997 76.2209 4.75746 66.5186 10.7631C61.9984 13.5728 58.9095 18.0896 58.9774 22.4216H55.798C55.4869 22.4216 55.4416 22.7743 55.7075 23.166C55.9281 23.6026 56.4147 23.9552 56.7258 23.9552C56.7258 23.9552 57.7272 23.916 59.1302 23.9496C59.6733 26.7201 61.642 29.3116 65.4833 31.2257C63.9219 34.181 63.0337 36.5485 63.5033 37.416C65.6757 41.3619 75.7343 31.5392 75.7796 31.5C75.955 31.3657 76.2209 31.1474 75.8701 30.7556C75.5137 30.3638 75.2478 30.4478 75.0724 30.5821C75.0724 30.6269 66.0773 37.7295 65.2797 36.2351C64.7931 35.3563 66.2527 32.8601 68.9569 28.5168C69.0474 28.5168 69.1323 28.4272 69.1323 28.2537V28.209C70.0205 26.8041 70.9483 25.3601 71.8817 23.9552H85.1311C85.4423 23.9552 85.4875 23.6026 85.2216 23.166C85.001 22.7687 84.5145 22.4216 84.2033 22.4216H72.9057C76.3623 17.2948 79.5983 12.8675 79.5983 12.8228C79.7341 12.6493 79.553 12.1679 79.1966 11.8153C78.8402 11.4179 78.3989 11.334 78.2688 11.5075C78.2236 11.5522 74.5011 16.6791 70.7786 22.4216H60.8896C61.625 18.6716 65.2061 14.8041 68.7363 12.6045C77.8219 6.99067 103.783 1.73507 111.494 10.5C114.328 13.7463 114.283 17.9944 112.337 21.6772C108.88 28.209 100.949 31.3209 93.8151 31.1922C93.7246 31.1922 93.6793 31.1922 93.6397 31.1922C93.5096 31.1474 93.3738 31.1026 93.238 31.1026C92.9269 31.1026 92.9269 31.5 93.1928 31.8918C93.1928 31.9366 97.8883 39.6045 121.372 46.8862C121.728 46.9757 121.904 46.7575 121.728 46.3601C121.592 45.9179 121.151 45.5205 120.795 45.3918ZM69.7942 23.9552C69.3529 24.6548 68.906 25.3601 68.4647 26.0597C67.7576 25.1362 65.5852 24.2631 64.2557 23.7369L69.7942 23.9552ZM67.9782 26.8489C67.9782 26.8489 67.667 27.3302 67.7123 27.3302C67.0843 28.3601 66.5016 29.3619 65.9698 30.319C65.8454 30.2071 65.7153 30.1063 65.5852 30.0448C62.2077 28.4776 60.8443 26.3172 60.7538 24.0112C64.0068 24.2127 68.0348 24.8563 67.9782 26.8489Z" fill="white"/>
<path d="M98.2843 23.2948C98.505 23.6922 98.9462 24.0392 99.3027 24.084C99.6138 24.1287 99.7043 23.7761 99.478 23.3843C99.0368 22.5952 98.5898 21.9403 98.1486 21.3694C99.7439 18.8284 100.717 17.1605 100.762 17.1157C100.898 16.8974 100.717 16.4608 100.361 16.1082C99.9589 15.7556 99.5629 15.5821 99.3875 15.8004L97.1698 18.5597C97.0397 18.694 97.0793 18.9571 97.2604 19.2593L96.7738 20.0933C94.8221 18.6493 92.6949 18.778 90.4829 19.959C86.7604 21.9739 82.772 27.1903 79.8019 32.4515C76.8771 37.7127 74.8857 43.0187 75.1516 45.2519C75.327 46.7854 76.0398 47.5746 77.3693 47.4459C81.5783 46.9646 92.2593 30.7892 97.6168 22.2369C97.8431 22.5504 98.0637 22.903 98.2843 23.2948ZM76.5773 45.8731C76.4868 43.6791 78.3933 38.7257 81.2276 33.7276C84.1071 28.556 88.005 23.3843 91.6823 21.4086C93.3229 20.5746 94.8277 20.3116 96.2025 21.0112C90.9751 29.3899 80.7411 44.8657 76.5773 45.8731Z" fill="white"/>
<path d="M167.45 40.6119C167.23 40.1754 166.789 39.8228 166.432 39.778C158.235 39.0784 151.853 39.1231 147.022 39.6493C149.726 34.959 151.983 30.6605 151.983 30.6213L152.029 30.5765L153.002 28.8694C153.138 28.6511 152.911 28.2146 152.56 27.862C152.17 27.5205 151.825 27.3862 151.644 27.5877C151.746 28.153 146.688 35.2556 143.701 34.612C143.435 34.4384 143.526 33.4702 143.611 33.2967C144.454 32.4795 145.031 31.8078 145.031 31.8078C145.206 31.5896 145.472 31.5 145.076 31.153C145.014 31.0802 144.946 31.0522 144.878 31.0355C145.398 30.2575 146.021 29.4515 146.716 28.6567C146.892 28.4384 146.716 28.0019 146.36 27.6045C146.004 27.2519 145.562 27.0784 145.387 27.2967C143.967 28.9646 142.819 30.6717 142.242 32.0765C142.066 32.4795 141.936 32.8601 141.863 33.2183C140.403 34.2425 138.627 35.25 137.857 34.7519C137.857 34.7519 138.525 33.4814 139.096 32.3396C139.407 31.6847 139.718 31.1138 139.849 30.6325C140.16 29.5355 139.939 28.7015 138.61 28.3097H138.519C137.642 28.0746 135.43 29.6194 133.246 31.3713C133.218 31.3097 133.162 31.2425 133.065 31.1586C133.043 31.1362 133.026 31.125 133.003 31.1082L133.642 29.972C133.778 29.7537 133.597 29.2724 133.201 28.9198C132.845 28.5672 132.404 28.4832 132.273 28.7015L129.631 33.375C128.217 34.3433 126.582 35.2276 125.847 34.7519C125.847 34.7519 126.514 33.4814 127.086 32.3396C127.397 31.6847 127.708 31.1138 127.838 30.6325C128.149 29.5355 127.929 28.7015 126.599 28.3097H126.509C125.643 28.0746 123.482 29.5746 121.332 31.2929C121.304 31.2481 121.276 31.2034 121.236 31.1586C121.174 31.0858 121.112 31.0411 121.055 31.0019L121.632 29.9776C121.768 29.7593 121.587 29.278 121.191 28.9254C120.834 28.5728 120.393 28.4888 120.263 28.7071L118.577 31.6903C117.757 31.7967 117.021 31.7015 116.456 31.5952C116.546 30.9403 116.546 30.2799 116.456 29.709C116.365 29.1381 116.235 28.612 115.969 28.1306C115.658 27.4758 115.171 26.9496 114.594 26.6418C114.238 26.4683 113.887 26.3787 113.485 26.4235C112.954 26.5131 112.688 26.9496 112.597 27.5653C112.552 28.1362 112.688 28.9254 113.039 29.7146C113.395 30.5037 113.966 31.2929 114.764 31.9478C114.589 32.5634 114.362 33.1735 114.057 33.7444C113.525 34.7519 112.948 35.5411 112.331 36.0672C111.89 36.5037 111.398 36.7668 111.002 36.9011C110.646 36.9907 110.38 36.9907 110.159 36.9011C109.938 36.4646 110.114 35.4123 110.47 34.2705C110.957 32.9105 111.709 31.5504 112.643 30.722C112.733 30.6325 112.863 30.5485 112.999 30.459C113.174 30.2855 113.089 29.8433 112.733 29.4515C112.377 29.0541 111.935 28.8806 111.76 29.0149C111.624 29.1045 111.494 29.2332 111.358 29.3228C110.385 30.2015 109.542 31.6455 109.056 33.0952C108.569 34.6287 108.524 36.2519 109.231 37.2593C109.322 37.3489 109.407 37.4328 109.497 37.5224C109.763 37.8302 110.074 38.0485 110.385 38.222C110.962 38.5299 111.539 38.5746 112.111 38.3955C112.597 38.2612 113.084 37.9142 113.616 37.472C114.278 36.9011 114.9 36.028 115.432 35.0149C115.833 34.3601 116.094 33.5709 116.275 32.8209C116.755 32.9888 117.259 33.0728 117.796 33.0672L116.275 35.7593C116.139 35.9776 116.365 36.4142 116.716 36.8116C117.072 37.1194 117.468 37.2481 117.604 37.0746C117.779 36.9011 123.674 31.3321 126.197 30.0168C126.062 30.3694 125.886 30.7164 125.711 31.069C124.868 32.7761 123.895 34.7071 125.886 35.9776C126.531 36.3918 127.374 36.2519 128.251 35.8321C128.189 36.0672 128.398 36.459 128.721 36.8116C129.077 37.1194 129.473 37.2481 129.609 37.0746C129.784 36.9011 135.679 31.3321 138.202 30.0168C138.066 30.3694 137.891 30.7164 137.716 31.069C136.873 32.7761 135.9 34.7071 137.891 35.9776C138.943 36.6605 140.527 35.8433 141.93 34.7631C142.134 35.3172 142.547 35.7761 143.158 36.1119C143.469 36.2855 143.78 36.375 144.176 36.4198C145.11 36.5093 146.524 35.5858 147.899 34.4049C146.965 36.0728 145.862 37.9981 144.708 39.9291C140.097 40.6287 137.088 41.7705 135.272 43.0411C134.072 43.875 133.411 44.7481 133.099 45.6269C132.788 46.5896 132.964 47.597 133.456 48.4758C134.344 50.0093 136.115 51.1064 138.151 51.1511C139.656 51.1511 142.983 46.3713 145.953 41.4179C150.959 40.7183 157.873 40.5392 167.264 41.3284C167.626 41.3172 167.671 41.0093 167.45 40.6119ZM114.99 30.8787C114.679 30.6157 114.459 30.3078 114.328 29.9608C114.108 29.4795 114.017 28.9981 114.063 28.6008C114.108 28.209 114.238 27.9459 114.504 27.9459C114.634 27.9011 114.77 27.9011 114.815 27.9459C114.815 27.9459 114.787 27.9459 114.77 27.9459C114.86 28.1642 114.945 28.5168 114.99 28.9086C115.081 29.4795 115.081 30.1791 114.99 30.8787ZM137.229 49.6008C135.99 49.556 135.012 49.1194 134.616 48.5037C134.395 48.0672 134.304 47.4963 134.525 46.7967C134.791 46.0523 135.413 45.2183 136.516 44.4739C137.976 43.4217 140.284 42.5037 143.605 41.7985C141.042 46.0075 138.429 49.6008 137.229 49.6008Z" fill="white"/>
<path d="M151.633 27.5933C151.638 27.5877 151.644 27.5877 151.644 27.5821C151.644 27.5709 151.638 27.5541 151.633 27.5485V27.5933Z" fill="white"/>
</g>
<defs>
<clipPath id="clip0_144_124">
<rect width="167.586" height="54" fill="white"/>
</clipPath>
</defs>
</svg>
