<svg width="36" height="36" viewBox="0 0 36 36" fill="none" xmlns="http://www.w3.org/2000/svg">
<g clip-path="url(#clip0_149_546)">
<path d="M35.2487 2.39401L22.0852 11.9106L19.9252 13.4758C18.781 14.3211 17.2189 14.3211 16.0748 13.4758L13.9148 11.9106L0.735657 2.40969C1.46817 1.38447 2.65308 0.777177 3.91308 0.781888H32.087C33.3376 0.781888 34.5131 1.38137 35.2487 2.39401Z" fill="#FFD54F"/>
<path d="M0.735707 2.4097L13.9149 11.9106L1.14268 24.6827C0.408543 23.9471 -0.00151924 22.95 2.76375e-05 21.9123V4.69493C-0.00306611 3.87318 0.253645 3.07338 0.735707 2.4097Z" fill="#FFC107"/>
<path d="M36 4.69492V21.9123C36.0016 22.9501 35.5915 23.9471 34.8575 24.6828L22.0853 11.9106L35.2487 2.39401C35.7371 3.06086 36 3.86692 36 4.69492Z" fill="#FFC107"/>
<path d="M23.4783 28.9558C22.439 28.9558 21.913 28.1732 21.913 26.6079C21.9381 24.4214 20.1866 22.6276 18 22.6025C15.8134 22.5774 14.0197 24.329 13.9946 26.5156C13.9696 28.7021 15.721 30.4959 17.9076 30.521C19.0799 30.535 20.1976 30.0279 20.9598 29.1389C21.4795 30.0295 22.4483 30.5617 23.4783 30.521C26.6087 30.521 26.6087 27.5752 26.6087 26.6079C26.6087 21.8528 22.7552 17.9992 18 17.9992C13.2448 17.9992 9.3913 21.8528 9.3913 26.6064C9.3913 31.36 13.2449 35.2151 18 35.2151C20.2336 35.2151 22.3795 34.3464 23.9854 32.7937C24.2969 32.4916 24.3032 31.9939 24.0011 31.6839C23.699 31.3725 23.2013 31.3662 22.8898 31.6683C20.0896 34.3683 15.6303 34.2885 12.9303 31.4883C10.2303 28.6881 10.3101 24.2288 13.1103 21.5288C15.9105 18.8288 20.3698 18.9086 23.0698 21.7088C24.3376 23.0236 25.0451 24.7798 25.0436 26.6063C25.0435 28.3626 24.6491 28.9558 23.4783 28.9558ZM18 28.9558C16.704 28.9558 15.6522 27.9039 15.6522 26.6079C15.6522 25.3119 16.704 24.2601 18 24.2601C19.296 24.2601 20.3478 25.3104 20.3478 26.6079C20.3479 27.9055 19.296 28.9558 18 28.9558Z" fill="#455A64"/>
<path d="M22.0852 11.9106L19.9252 13.4758C18.781 14.321 17.219 14.321 16.0748 13.4758L13.9148 11.9106L1.14264 24.6827C1.87832 25.4168 2.87535 25.8269 3.91309 25.8253H7.86529C8.28948 20.2281 13.1698 16.0348 18.7655 16.4575C23.7742 16.8363 27.7545 20.8166 28.1333 25.8253H32.087C33.1248 25.8268 34.1218 25.4168 34.8575 24.6827L22.0852 11.9106Z" fill="#FFA000"/>
<path d="M32.087 25.8253H28.9565C28.5245 25.8253 28.1739 25.4748 28.1739 25.0428C28.1739 24.6108 28.5245 24.2602 28.9565 24.2602H32.087C33.3814 24.2602 34.4348 23.2068 34.4348 21.9124V4.69489C34.4348 3.40044 33.3814 2.34709 32.087 2.34709H3.9131C2.61865 2.34709 1.5653 3.39889 1.5653 4.69489V21.9123C1.5653 23.2068 2.61872 24.2601 3.9131 24.2601H7.04355C7.47555 24.2601 7.82613 24.6091 7.82613 25.0427C7.82613 25.4762 7.47555 25.8253 7.04355 25.8253H3.9131C1.7562 25.8253 0 24.0691 0 21.9122V4.69489C0 2.53799 1.7562 0.78186 3.9131 0.78186H32.087C34.2454 0.78186 36 2.53644 36 4.69489V21.9123C36 24.0691 34.2454 25.8253 32.087 25.8253Z" fill="white"/>
<path d="M18.0016 14.8923C17.1642 14.8923 16.3268 14.6308 15.6115 14.1081L3.45597 5.32885C3.10378 5.07531 3.02552 4.58692 3.27914 4.23634C3.53114 3.88414 4.01946 3.80588 4.37165 4.0595L16.5334 12.8419C17.4146 13.4852 18.5901 13.4852 19.4651 12.845L31.6284 4.0595C31.9789 3.8075 32.4673 3.88421 32.7209 4.23479C32.9744 4.58537 32.8946 5.07531 32.5456 5.32731L20.3838 14.1097C19.6732 14.6309 18.8374 14.8923 18.0016 14.8923Z" fill="white"/>
<path d="M3.91311 22.6949C3.71279 22.6949 3.5124 22.6182 3.35905 22.4664C3.05382 22.1612 3.05382 21.665 3.35905 21.3598L11.1851 13.5338C11.4903 13.2285 11.9865 13.2285 12.2917 13.5338C12.5969 13.839 12.5969 14.3352 12.2917 14.6403L4.46563 22.4664C4.31375 22.6182 4.11343 22.6949 3.91311 22.6949Z" fill="white"/>
<path d="M32.0869 22.6949C31.8866 22.6949 31.6862 22.6182 31.5329 22.4664L23.7068 14.6402C23.4016 14.335 23.4016 13.8388 23.7068 13.5337C24.0121 13.2284 24.5082 13.2284 24.8134 13.5337L32.6395 21.3597C32.9447 21.665 32.9447 22.1612 32.6395 22.4663C32.4877 22.6182 32.2873 22.6949 32.0869 22.6949Z" fill="white"/>
<path d="M18.0047 35.2182C17.9562 35.2182 17.9077 35.2182 17.8591 35.2166C15.5598 35.1791 13.4139 34.2478 11.8143 32.5949C8.51327 29.1827 8.60404 23.7232 12.0146 20.4237C13.6675 18.8241 15.8807 17.9632 18.1424 18.0023C20.4402 18.0399 22.5877 18.9711 24.1873 20.6225C25.7478 22.2363 26.6087 24.3618 26.6087 26.6079C26.6087 27.0399 26.2581 27.3905 25.8261 27.3905C25.3941 27.3905 25.0435 27.0399 25.0435 26.6079C25.0435 24.7704 24.3392 23.0314 23.0604 21.7104C21.7518 20.3596 19.9957 19.5974 18.1143 19.5661C16.2705 19.5661 14.4533 20.2406 13.1009 21.5492C10.3101 24.2492 10.2366 28.7164 12.9381 31.5072C14.2466 32.8595 16.0028 33.6217 17.8842 33.6515C19.7718 33.7172 21.5437 32.9785 22.8976 31.6699C23.2075 31.371 23.7037 31.3772 24.0042 31.6887C24.3047 32.0002 24.2969 32.4948 23.9854 32.7953C22.3685 34.3604 20.2508 35.2182 18.0047 35.2182Z" fill="white"/>
<path d="M18 30.521C15.8432 30.521 14.087 28.7648 14.087 26.6079C14.087 24.4511 15.8432 22.6949 18 22.6949C20.1568 22.6949 21.913 24.4495 21.913 26.6079C21.913 28.7664 20.1569 30.521 18 30.521ZM18 24.2601C16.7056 24.2601 15.6522 25.3136 15.6522 26.6079C15.6522 27.9024 16.7056 28.9558 18 28.9558C19.2944 28.9558 20.3478 27.9023 20.3478 26.6079C20.3479 25.3135 19.2945 24.2601 18 24.2601Z" fill="white"/>
<path d="M23.4782 30.521C21.5186 30.521 20.3478 29.0575 20.3478 26.6079C20.3478 26.1759 20.6984 25.8253 21.1304 25.8253C21.5624 25.8253 21.9129 26.1744 21.9129 26.6079C21.9129 28.1653 22.4404 28.9557 23.4782 28.9557C24.6489 28.9557 25.0434 28.3625 25.0434 26.6079C25.0434 26.1759 25.394 25.8253 25.826 25.8253C26.258 25.8253 26.6085 26.1744 26.6085 26.6079C26.6087 27.5752 26.6087 30.521 23.4782 30.521Z" fill="white"/>
</g>
<defs>
<clipPath id="clip0_149_546">
<rect width="36" height="36" fill="white"/>
</clipPath>
</defs>
</svg>
