<svg width="212" height="50" viewBox="0 0 212 50" fill="none" xmlns="http://www.w3.org/2000/svg">
<g clip-path="url(#clip0_116_64)">
<path d="M77.4615 10.9199H79.9751V27.3204H77.194V15.5605L71.3714 22.7762H70.7729L64.9714 15.5812V27.3204H62.1692V10.9199H64.7109L71.0827 18.8654L77.4615 10.9199Z" fill="#2062EB"/>
<path d="M82.1577 21.6948V19.3745H90.9726V21.6948H82.1577Z" fill="#2062EB"/>
<path d="M93.1341 27.3204V10.9199H95.9362V24.766H104.779V27.3204H93.1341Z" fill="#2062EB"/>
<path d="M106.744 14.0114C106.251 14.0114 105.842 13.8599 105.519 13.5569C105.195 13.254 105.04 12.8753 105.04 12.4209C105.04 11.9389 105.202 11.5396 105.519 11.2366C105.835 10.9337 106.244 10.7822 106.744 10.7822C107.258 10.7822 107.673 10.9337 108.004 11.2366C108.328 11.5396 108.497 11.9389 108.497 12.4209C108.497 12.8753 108.335 13.254 108.004 13.5569C107.673 13.8599 107.251 14.0114 106.744 14.0114ZM105.399 27.3204V15.7464H108.081V27.3204H105.399Z" fill="#2062EB"/>
<path d="M115.728 12.8613C115.15 12.8613 114.7 13.0403 114.362 13.3984C114.024 13.7564 113.862 14.3072 113.862 15.037V15.7393H117.382V17.9908H113.862V27.3201H111.179V17.9976H108.947V15.7462H111.179V15.0439C111.179 13.6256 111.588 12.5308 112.404 11.7597C113.221 10.9954 114.256 10.6099 115.516 10.6099C116.587 10.6099 117.593 10.9404 118.537 11.5944L117.509 13.4465C116.861 13.061 116.27 12.8613 115.728 12.8613Z" fill="#2062EB"/>
<path d="M123.134 15.5122C125.211 15.5122 126.796 16.1388 127.88 17.385C128.964 18.6381 129.415 20.3456 129.225 22.5144H119.762C119.875 23.3613 120.262 24.0291 120.938 24.5318C121.607 25.0344 122.466 25.2822 123.501 25.2822C124.169 25.2822 124.817 25.1721 125.444 24.9518C126.063 24.7314 126.556 24.4423 126.908 24.0842L128.535 25.6334C127.943 26.2599 127.197 26.7488 126.296 27.1068C125.394 27.4648 124.437 27.6439 123.43 27.6439C121.48 27.6439 119.924 27.0862 118.755 25.9776C117.586 24.8691 117.009 23.3819 117.009 21.5229C117.009 19.7259 117.572 18.2732 118.699 17.1646C119.811 16.0699 121.297 15.5122 123.134 15.5122ZM123.205 17.7843C122.275 17.7843 121.522 18.0184 120.931 18.4866C120.339 18.9548 119.959 19.6226 119.783 20.4764H126.662C126.563 19.6502 126.211 18.9892 125.599 18.5072C124.972 18.0253 124.176 17.7843 123.205 17.7843Z" fill="#2062EB"/>
<path d="M142.686 10.9199C144.447 10.9199 145.834 11.4225 146.854 12.4209C147.875 13.4192 148.389 14.7343 148.389 16.3592C148.389 17.9841 147.875 19.2923 146.854 20.2837C145.834 21.2752 144.439 21.7709 142.686 21.7709H136.843V27.3272H135.427V10.9199H142.686ZM142.637 20.4559C143.996 20.4559 145.059 20.0841 145.826 19.3405C146.594 18.5969 146.974 17.6054 146.974 16.3523C146.974 15.1061 146.594 14.1009 145.834 13.3504C145.073 12.5999 144.01 12.2281 142.637 12.2281H136.836V20.4559H142.637Z" fill="#91B2F5"/>
<path d="M155.507 15.5812C157.07 15.5812 158.303 16.0356 159.183 16.9375C160.07 17.8464 160.513 19.0995 160.513 20.7106V27.3204H159.147V20.7795C159.147 19.4988 158.817 18.5211 158.162 17.8395C157.507 17.1579 156.571 16.8205 155.36 16.8205C154.099 16.8205 153.064 17.213 152.269 18.0047C151.473 18.7965 151.072 19.7811 151.072 20.9654V27.3135H149.706V10.9199H151.072V17.7362C152.114 16.3041 153.592 15.5812 155.507 15.5812Z" fill="#91B2F5"/>
<path d="M168.061 27.5544C166.259 27.5544 164.787 26.9898 163.653 25.8538C162.52 24.7177 161.95 23.2787 161.95 21.5299C161.95 19.7811 162.52 18.3421 163.653 17.206C164.787 16.07 166.259 15.5054 168.061 15.5054C169.849 15.5054 171.314 16.07 172.461 17.206C173.602 18.3352 174.172 19.7811 174.172 21.5299C174.172 23.2787 173.602 24.7177 172.461 25.8538C171.321 26.9898 169.849 27.5544 168.061 27.5544ZM168.061 26.2944C169.434 26.2944 170.567 25.84 171.462 24.938C172.356 24.0292 172.806 22.9 172.806 21.5437C172.806 20.1873 172.356 19.0512 171.462 18.1424C170.567 17.2335 169.434 16.786 168.061 16.786C166.674 16.786 165.533 17.2404 164.646 18.1424C163.759 19.0512 163.316 20.1804 163.316 21.5437C163.316 22.9 163.759 24.0361 164.646 24.938C165.533 25.84 166.674 26.2944 168.061 26.2944Z" fill="#91B2F5"/>
<path d="M181.551 15.5811C183.114 15.5811 184.346 16.0355 185.226 16.9374C186.113 17.8463 186.557 19.0994 186.557 20.7105V27.3202H185.191V20.7793C185.191 19.4987 184.86 18.521 184.205 17.8394C183.55 17.1578 182.614 16.8204 181.403 16.8204C180.143 16.8204 179.108 17.2128 178.312 18.0046C177.517 18.7964 177.115 19.781 177.115 20.9652V27.3134H175.749V15.7463H176.996L177.017 17.8325C177.481 17.1302 178.108 16.5794 178.911 16.1801C179.72 15.7807 180.593 15.5811 181.551 15.5811Z" fill="#91B2F5"/>
<path d="M193.964 15.5327C195.914 15.5327 197.435 16.1317 198.526 17.3229C199.617 18.5209 200.089 20.0907 199.927 22.0461H189.38C189.493 23.3611 189.964 24.4008 190.809 25.165C191.647 25.9293 192.739 26.3149 194.083 26.3149C194.914 26.3149 195.71 26.1565 196.477 25.8467C197.245 25.5368 197.829 25.1237 198.223 24.6074L199.16 25.406C198.603 26.0945 197.871 26.6316 196.97 27.0103C196.069 27.3958 195.097 27.5817 194.062 27.5817C192.274 27.5817 190.816 27.0172 189.69 25.8949C188.563 24.7726 188 23.3198 188 21.5366C188 19.774 188.549 18.3281 189.655 17.2127C190.76 16.0973 192.196 15.5327 193.964 15.5327ZM193.992 16.7514C192.696 16.7514 191.64 17.1232 190.816 17.8668C189.993 18.6104 189.521 19.6156 189.387 20.8756H198.61C198.596 19.6432 198.16 18.6448 197.315 17.8874C196.477 17.1301 195.365 16.7514 193.992 16.7514Z" fill="#91B2F5"/>
<path d="M205.588 27.5336C204.553 27.5336 203.574 27.3546 202.666 27.0034C201.758 26.6523 200.997 26.1703 200.392 25.5644L201.159 24.6005C201.652 25.1307 202.3 25.5507 203.088 25.8536C203.877 26.1566 204.722 26.308 205.616 26.308C206.686 26.308 207.538 26.1152 208.179 25.7228C208.819 25.3303 209.136 24.814 209.136 24.1736C209.136 23.5815 208.876 23.1271 208.348 22.8173C207.82 22.5074 206.848 22.2251 205.426 21.9773C203.75 21.7087 202.56 21.3301 201.856 20.8412C201.152 20.3524 200.8 19.6501 200.8 18.7412C200.8 17.7704 201.237 16.9924 202.117 16.4072C202.997 15.8219 204.18 15.5259 205.665 15.5259C207.454 15.5259 208.981 16.0147 210.242 16.9993L209.523 17.9632C208.439 17.137 207.165 16.7239 205.714 16.7239C204.567 16.7239 203.68 16.896 203.067 17.2541C202.455 17.6121 202.145 18.1009 202.145 18.7412C202.145 19.3058 202.391 19.7327 202.877 20.0219C203.363 20.3111 204.271 20.5658 205.595 20.7861C207.383 21.0822 208.643 21.4884 209.383 22.0048C210.115 22.5212 210.488 23.2579 210.488 24.2081C210.488 25.2064 210.037 26.012 209.143 26.6179C208.242 27.2306 207.059 27.5336 205.588 27.5336Z" fill="#91B2F5"/>
<path d="M62.6057 31.4785V37.2552H62.0143V31.4785H62.6057Z" fill="#939598"/>
<path d="M69.238 33.1585C69.59 33.489 69.759 33.9778 69.759 34.6113V37.2552H69.1746V34.6801C69.1746 34.1913 69.0479 33.8126 68.8015 33.5578C68.548 33.2962 68.2101 33.1723 67.7735 33.1723C67.33 33.1723 66.9709 33.31 66.7104 33.5854C66.4499 33.8608 66.3161 34.267 66.3161 34.7972V37.262H65.7247V32.7523H66.3161V33.5234C66.464 33.248 66.6752 33.0346 66.9498 32.89C67.2244 32.7454 67.5412 32.6696 67.8862 32.6696C68.4354 32.6628 68.886 32.828 69.238 33.1585Z" fill="#939598"/>
<path d="M76.3561 33.1585C76.7082 33.489 76.8771 33.9778 76.8771 34.6113V37.2552H76.2928V34.6801C76.2928 34.1913 76.166 33.8126 75.9196 33.5578C75.6661 33.2962 75.3282 33.1723 74.8917 33.1723C74.4481 33.1723 74.089 33.31 73.8285 33.5854C73.568 33.8608 73.4343 34.267 73.4343 34.7972V37.262H72.8428V32.7523H73.4343V33.5234C73.5821 33.248 73.7933 33.0346 74.0679 32.89C74.3425 32.7454 74.6593 32.6696 75.0043 32.6696C75.5605 32.6628 76.0111 32.828 76.3561 33.1585Z" fill="#939598"/>
<path d="M80.8129 37.0351C80.4679 36.8423 80.1933 36.5738 79.9962 36.2226C79.799 35.8715 79.6934 35.4652 79.6934 34.9971C79.6934 34.5289 79.792 34.1226 79.9962 33.7715C80.2003 33.4204 80.4749 33.1518 80.827 32.959C81.179 32.7663 81.5662 32.6768 82.0028 32.6768C82.4393 32.6768 82.8265 32.7731 83.1786 32.959C83.5306 33.1518 83.8052 33.4204 84.0094 33.7715C84.2065 34.1226 84.3121 34.5289 84.3121 34.9971C84.3121 35.4584 84.2135 35.8646 84.0094 36.2226C83.8052 36.5806 83.5306 36.8492 83.1715 37.0351C82.8195 37.2278 82.4252 37.3174 81.9887 37.3174C81.5522 37.3174 81.1579 37.2278 80.8129 37.0351ZM82.8265 36.6151C83.087 36.4774 83.2982 36.2777 83.4531 36.0023C83.6151 35.7269 83.6925 35.3964 83.6925 34.9971C83.6925 34.5977 83.6151 34.2672 83.4531 33.9918C83.2982 33.7164 83.087 33.5167 82.8265 33.379C82.566 33.2413 82.2844 33.1794 81.9816 33.1794C81.6789 33.1794 81.3973 33.2482 81.1368 33.379C80.8763 33.5099 80.6721 33.7164 80.5172 33.9918C80.3623 34.2672 80.2848 34.5977 80.2848 34.9971C80.2848 35.3964 80.3623 35.7269 80.5172 36.0023C80.6721 36.2777 80.8763 36.4774 81.1368 36.6151C81.3973 36.7528 81.6718 36.8147 81.9746 36.8147C82.2773 36.8147 82.5731 36.7528 82.8265 36.6151Z" fill="#939598"/>
<path d="M88.8041 36.6909L90.36 32.7388H90.9867L89.135 37.2485H88.4661L86.6144 32.7388H87.2481L88.8041 36.6909Z" fill="#939598"/>
<path d="M93.5706 33.7715C93.7607 33.4204 94.0212 33.1518 94.3592 32.959C94.6971 32.7663 95.0703 32.6768 95.4927 32.6768C95.9292 32.6768 96.3094 32.7732 96.6263 32.9728C96.9431 33.1725 97.1754 33.4272 97.3162 33.7302V32.7387H97.9077V37.2485H97.3162V36.2502C97.1684 36.56 96.936 36.8147 96.6192 37.0144C96.3024 37.2141 95.9222 37.3174 95.4857 37.3174C95.0703 37.3174 94.6901 37.221 94.3592 37.0282C94.0212 36.8354 93.7607 36.56 93.5706 36.2088C93.3805 35.8577 93.289 35.4515 93.289 34.9833C93.289 34.5151 93.3805 34.1226 93.5706 33.7715ZM97.0909 34.04C96.936 33.7646 96.7319 33.5512 96.4714 33.4066C96.2109 33.262 95.9222 33.1863 95.6053 33.1863C95.2815 33.1863 94.9858 33.2551 94.7253 33.3997C94.4648 33.5443 94.2606 33.7508 94.1127 34.0262C93.9649 34.3017 93.8874 34.6253 93.8874 34.9971C93.8874 35.3689 93.9649 35.6925 94.1127 35.9679C94.2606 36.2433 94.4648 36.4567 94.7253 36.6013C94.9858 36.7459 95.2744 36.8216 95.6053 36.8216C95.9222 36.8216 96.2109 36.7459 96.4714 36.6013C96.7319 36.4567 96.9431 36.2433 97.0909 35.9679C97.2458 35.6925 97.3162 35.3757 97.3162 35.0108C97.3162 34.639 97.2458 34.3154 97.0909 34.04Z" fill="#939598"/>
<path d="M101.808 33.2342V36.0364C101.808 36.3118 101.865 36.5046 101.97 36.6079C102.076 36.7112 102.266 36.7663 102.533 36.7663H103.076V37.262H102.442C102.026 37.262 101.717 37.1656 101.512 36.9797C101.308 36.7938 101.21 36.4771 101.21 36.0433V33.2411H100.569V32.7522H101.21V31.623H101.808V32.7522H103.076V33.2411H101.808V33.2342Z" fill="#939598"/>
<path d="M109.975 35.2243H106.145C106.159 35.5685 106.244 35.8577 106.399 36.0987C106.554 36.3397 106.751 36.5256 106.997 36.6495C107.244 36.7734 107.518 36.8354 107.807 36.8354C108.187 36.8354 108.511 36.7459 108.771 36.56C109.032 36.381 109.208 36.1331 109.292 35.8233H109.919C109.806 36.2639 109.567 36.622 109.194 36.9042C108.828 37.1796 108.363 37.3242 107.807 37.3242C107.37 37.3242 106.983 37.2278 106.638 37.0419C106.293 36.8492 106.026 36.5806 105.828 36.2295C105.631 35.8784 105.54 35.4721 105.54 35.0039C105.54 34.5358 105.638 34.1226 105.828 33.7715C106.019 33.4204 106.286 33.1518 106.631 32.959C106.976 32.7731 107.363 32.6768 107.807 32.6768C108.25 32.6768 108.631 32.7731 108.962 32.959C109.292 33.1449 109.546 33.3997 109.722 33.7164C109.898 34.0331 109.989 34.3843 109.989 34.7698C109.989 34.9695 109.989 35.121 109.975 35.2243ZM109.187 33.8954C109.046 33.6613 108.849 33.4823 108.602 33.3584C108.356 33.2345 108.081 33.1794 107.793 33.1794C107.356 33.1794 106.976 33.3171 106.666 33.5925C106.356 33.8679 106.187 34.2535 106.152 34.7561H109.398C109.398 34.4187 109.328 34.1295 109.187 33.8954Z" fill="#939598"/>
<path d="M113.39 36.2983L112.51 38.4603H112.102L112.728 36.2983H113.39Z" fill="#939598"/>
<path d="M120.191 33.7715C120.381 33.4204 120.649 33.1518 120.987 32.959C121.325 32.7663 121.712 32.6768 122.142 32.6768C122.712 32.6768 123.177 32.8145 123.55 33.0899C123.923 33.3653 124.155 33.7371 124.261 34.2121H123.627C123.55 33.8885 123.381 33.6338 123.113 33.4479C122.853 33.262 122.529 33.1725 122.135 33.1725C121.825 33.1725 121.543 33.2413 121.297 33.379C121.05 33.5167 120.853 33.7233 120.712 33.9918C120.572 34.2672 120.494 34.5977 120.494 34.9971C120.494 35.3964 120.565 35.7269 120.712 36.0023C120.853 36.2777 121.05 36.4842 121.297 36.622C121.543 36.7597 121.825 36.8285 122.135 36.8285C122.522 36.8285 122.846 36.739 123.113 36.5531C123.374 36.3672 123.543 36.1125 123.627 35.782H124.261C124.155 36.2433 123.916 36.6151 123.543 36.8974C123.17 37.1797 122.705 37.3174 122.142 37.3174C121.705 37.3174 121.325 37.221 120.987 37.0351C120.649 36.8423 120.381 36.5738 120.191 36.2226C120.001 35.8715 119.903 35.4652 119.903 34.9971C119.903 34.5289 120.001 34.1226 120.191 33.7715Z" fill="#939598"/>
<path d="M127.978 37.0351C127.633 36.8423 127.359 36.5738 127.162 36.2226C126.965 35.8715 126.859 35.4652 126.859 34.9971C126.859 34.5289 126.957 34.1226 127.162 33.7715C127.366 33.4204 127.64 33.1518 127.992 32.959C128.344 32.7663 128.732 32.6768 129.168 32.6768C129.605 32.6768 129.992 32.7731 130.344 32.959C130.696 33.1518 130.971 33.4204 131.175 33.7715C131.372 34.1226 131.478 34.5289 131.478 34.9971C131.478 35.4584 131.379 35.8646 131.175 36.2226C130.971 36.5806 130.696 36.8492 130.337 37.0351C129.985 37.2278 129.591 37.3174 129.154 37.3174C128.718 37.3174 128.323 37.2278 127.978 37.0351ZM129.992 36.6151C130.253 36.4774 130.464 36.2777 130.619 36.0023C130.781 35.7269 130.858 35.3964 130.858 34.9971C130.858 34.5977 130.781 34.2672 130.619 33.9918C130.464 33.7164 130.253 33.5167 129.992 33.379C129.731 33.2413 129.45 33.1794 129.147 33.1794C128.844 33.1794 128.563 33.2482 128.302 33.379C128.042 33.5099 127.838 33.7164 127.683 33.9918C127.528 34.2672 127.45 34.5977 127.45 34.9971C127.45 35.3964 127.528 35.7269 127.683 36.0023C127.838 36.2777 128.042 36.4774 128.302 36.6151C128.563 36.7528 128.837 36.8147 129.14 36.8147C129.443 36.8147 129.731 36.7528 129.992 36.6151Z" fill="#939598"/>
<path d="M137.842 33.1585C138.194 33.489 138.363 33.9778 138.363 34.6113V37.2552H137.779V34.6801C137.779 34.1913 137.652 33.8126 137.406 33.5578C137.152 33.2962 136.814 33.1723 136.378 33.1723C135.934 33.1723 135.575 33.31 135.315 33.5854C135.054 33.8608 134.92 34.267 134.92 34.7972V37.262H134.329V32.7523H134.92V33.5234C135.068 33.248 135.28 33.0346 135.554 32.89C135.829 32.7454 136.146 32.6696 136.491 32.6696C137.04 32.6628 137.49 32.828 137.842 33.1585Z" fill="#939598"/>
<path d="M144.96 33.1585C145.313 33.489 145.481 33.9778 145.481 34.6113V37.2552H144.897V34.6801C144.897 34.1913 144.77 33.8126 144.524 33.5578C144.27 33.2962 143.933 33.1723 143.496 33.1723C143.052 33.1723 142.693 33.31 142.433 33.5854C142.172 33.8608 142.039 34.267 142.039 34.7972V37.262H141.447V32.7523H142.039V33.5234C142.186 33.248 142.398 33.0346 142.672 32.89C142.947 32.7454 143.264 32.6696 143.609 32.6696C144.165 32.6628 144.615 32.828 144.96 33.1585Z" fill="#939598"/>
<path d="M152.726 35.2243H148.896C148.91 35.5685 148.995 35.8577 149.15 36.0987C149.305 36.3397 149.502 36.5256 149.748 36.6495C149.995 36.7734 150.269 36.8354 150.558 36.8354C150.938 36.8354 151.262 36.7459 151.522 36.56C151.783 36.381 151.959 36.1331 152.043 35.8233H152.67C152.557 36.2639 152.318 36.622 151.945 36.9042C151.579 37.1796 151.114 37.3242 150.558 37.3242C150.121 37.3242 149.734 37.2278 149.389 37.0419C149.044 36.8492 148.777 36.5806 148.579 36.2295C148.382 35.8784 148.291 35.4721 148.291 35.0039C148.291 34.5358 148.389 34.1226 148.579 33.7715C148.769 33.4204 149.037 33.1518 149.382 32.959C149.727 32.7731 150.114 32.6768 150.558 32.6768C151.001 32.6768 151.382 32.7731 151.712 32.959C152.043 33.1449 152.297 33.3997 152.473 33.7164C152.649 34.0331 152.74 34.3843 152.74 34.7698C152.74 34.9695 152.733 35.121 152.726 35.2243ZM151.938 33.8954C151.797 33.6613 151.6 33.4823 151.353 33.3584C151.107 33.2345 150.832 33.1794 150.544 33.1794C150.107 33.1794 149.727 33.3171 149.417 33.5925C149.107 33.8679 148.938 34.2535 148.903 34.7561H152.149C152.149 34.4187 152.079 34.1295 151.938 33.8954Z" fill="#939598"/>
<path d="M155.613 33.7715C155.803 33.4204 156.071 33.1518 156.409 32.959C156.747 32.7663 157.134 32.6768 157.563 32.6768C158.134 32.6768 158.598 32.8145 158.971 33.0899C159.345 33.3653 159.577 33.7371 159.683 34.2121H159.049C158.971 33.8885 158.802 33.6338 158.535 33.4479C158.274 33.262 157.951 33.1725 157.556 33.1725C157.246 33.1725 156.965 33.2413 156.718 33.379C156.472 33.5167 156.275 33.7233 156.134 33.9918C155.993 34.2672 155.916 34.5977 155.916 34.9971C155.916 35.3964 155.986 35.7269 156.134 36.0023C156.275 36.2777 156.472 36.4842 156.718 36.622C156.965 36.7597 157.246 36.8285 157.556 36.8285C157.943 36.8285 158.267 36.739 158.535 36.5531C158.795 36.3672 158.964 36.1125 159.049 35.782H159.683C159.577 36.2433 159.338 36.6151 158.964 36.8974C158.591 37.1797 158.127 37.3174 157.563 37.3174C157.127 37.3174 156.747 37.221 156.409 37.0351C156.071 36.8423 155.803 36.5738 155.613 36.2226C155.423 35.8715 155.324 35.4652 155.324 34.9971C155.331 34.5289 155.423 34.1226 155.613 33.7715Z" fill="#939598"/>
<path d="M163.323 33.2342V36.0364C163.323 36.3118 163.379 36.5046 163.484 36.6079C163.59 36.7112 163.78 36.7663 164.048 36.7663H164.59V37.262H163.956C163.541 37.262 163.231 37.1656 163.027 36.9797C162.823 36.7938 162.724 36.4771 162.724 36.0433V33.2411H162.083V32.7522H162.724V31.623H163.323V32.7522H164.59V33.2411H163.323V33.2342Z" fill="#939598"/>
<path d="M167.871 36.2983L166.991 38.4603H166.582L167.209 36.2983H167.871Z" fill="#939598"/>
<path d="M174.651 31.7679C174.567 31.6852 174.524 31.582 174.524 31.4649C174.524 31.3479 174.567 31.2446 174.651 31.162C174.735 31.0793 174.834 31.0449 174.954 31.0449C175.073 31.0449 175.172 31.0862 175.256 31.162C175.341 31.2446 175.383 31.341 175.383 31.4649C175.383 31.5888 175.341 31.6852 175.256 31.7679C175.172 31.8505 175.073 31.8918 174.954 31.8918C174.834 31.8918 174.735 31.8505 174.651 31.7679ZM175.249 32.7456V37.2553H174.658V32.7456H175.249Z" fill="#939598"/>
<path d="M181.882 33.1585C182.234 33.489 182.403 33.9778 182.403 34.6113V37.2552H181.818V34.6801C181.818 34.1913 181.692 33.8126 181.445 33.5578C181.192 33.2962 180.854 33.1723 180.417 33.1723C179.974 33.1723 179.615 33.31 179.354 33.5854C179.094 33.8608 178.96 34.267 178.96 34.7972V37.262H178.368V32.7523H178.96V33.5234C179.108 33.248 179.319 33.0346 179.594 32.89C179.868 32.7454 180.185 32.6696 180.53 32.6696C181.079 32.6628 181.53 32.828 181.882 33.1585Z" fill="#939598"/>
<path d="M185.782 36.9593C185.444 36.7183 185.261 36.3947 185.219 35.9816H185.825C185.853 36.2363 185.972 36.4429 186.191 36.5944C186.409 36.7527 186.698 36.8285 187.064 36.8285C187.388 36.8285 187.634 36.7527 187.817 36.6081C188 36.4567 188.092 36.2776 188.092 36.0573C188.092 35.9058 188.042 35.775 187.937 35.6786C187.838 35.5822 187.704 35.4996 187.55 35.4445C187.395 35.3895 187.183 35.3275 186.923 35.2586C186.578 35.1691 186.303 35.0796 186.085 34.997C185.874 34.9075 185.691 34.7767 185.543 34.6046C185.395 34.4324 185.318 34.1983 185.318 33.9092C185.318 33.6888 185.388 33.4823 185.522 33.2964C185.656 33.1105 185.846 32.959 186.099 32.8488C186.346 32.7387 186.627 32.6836 186.944 32.6836C187.437 32.6836 187.838 32.8075 188.141 33.0485C188.444 33.2964 188.606 33.6337 188.634 34.0606H188.042C188.028 33.799 187.923 33.5855 187.726 33.4203C187.528 33.2551 187.268 33.1793 186.93 33.1793C186.634 33.1793 186.388 33.2482 186.205 33.3859C186.022 33.5236 185.923 33.6957 185.923 33.8954C185.923 34.0744 185.979 34.219 186.085 34.3291C186.198 34.4393 186.331 34.5288 186.493 34.5908C186.655 34.6527 186.874 34.7216 187.155 34.8042C187.486 34.8937 187.754 34.9763 187.951 35.059C188.148 35.1416 188.317 35.2655 188.458 35.4239C188.599 35.5822 188.669 35.7957 188.676 36.0573C188.676 36.2983 188.606 36.5186 188.472 36.7045C188.338 36.8973 188.148 37.0419 187.909 37.1521C187.669 37.2622 187.388 37.3173 187.071 37.3173C186.55 37.3173 186.113 37.2003 185.782 36.9593Z" fill="#939598"/>
<path d="M192.851 32.9797C193.168 32.78 193.548 32.6768 193.985 32.6768C194.4 32.6768 194.78 32.7731 195.111 32.959C195.449 33.1518 195.71 33.4204 195.9 33.7715C196.09 34.1226 196.181 34.5289 196.181 34.9902C196.181 35.4515 196.09 35.8577 195.9 36.2157C195.71 36.5669 195.449 36.8423 195.111 37.0351C194.773 37.2278 194.4 37.3242 193.985 37.3242C193.548 37.3242 193.175 37.221 192.851 37.0213C192.527 36.8216 192.295 36.5669 192.147 36.2639V39.3898H191.563V32.7456H192.147V33.7371C192.302 33.4341 192.534 33.1794 192.851 32.9797ZM195.365 34.0194C195.217 33.744 195.013 33.5374 194.752 33.3928C194.492 33.2482 194.203 33.1794 193.872 33.1794C193.555 33.1794 193.267 33.2551 193.006 33.3997C192.746 33.5443 192.534 33.7577 192.386 34.0331C192.239 34.3085 192.161 34.6253 192.161 34.9902C192.161 35.3551 192.239 35.6718 192.386 35.9472C192.534 36.2226 192.746 36.4361 193.006 36.5806C193.267 36.7252 193.555 36.801 193.872 36.801C194.196 36.801 194.492 36.7252 194.752 36.5806C195.013 36.4361 195.217 36.2226 195.365 35.9472C195.513 35.6718 195.59 35.3482 195.59 34.9764C195.583 34.6184 195.513 34.2948 195.365 34.0194Z" fill="#939598"/>
<path d="M199.04 31.7679C198.955 31.6852 198.913 31.582 198.913 31.4649C198.913 31.3479 198.955 31.2446 199.04 31.162C199.124 31.0793 199.223 31.0449 199.343 31.0449C199.462 31.0449 199.561 31.0862 199.645 31.162C199.73 31.2446 199.772 31.341 199.772 31.4649C199.772 31.5888 199.73 31.6852 199.645 31.7679C199.561 31.8505 199.462 31.8918 199.343 31.8918C199.223 31.8918 199.124 31.8505 199.04 31.7679ZM199.638 32.7456V37.2553H199.047V32.7456H199.638Z" fill="#939598"/>
<path d="M203.947 32.8903C204.215 32.7389 204.546 32.6562 204.933 32.6562V33.2621H204.771C204.342 33.2621 203.997 33.3723 203.743 33.5995C203.483 33.8267 203.356 34.2054 203.356 34.7287V37.2486H202.764V32.7389H203.356V33.5375C203.483 33.2621 203.68 33.0487 203.947 32.8903Z" fill="#939598"/>
<path d="M211.748 35.2243H207.918C207.932 35.5685 208.017 35.8577 208.172 36.0987C208.327 36.3397 208.524 36.5256 208.77 36.6495C209.017 36.7734 209.291 36.8354 209.58 36.8354C209.96 36.8354 210.284 36.7459 210.544 36.56C210.805 36.381 210.981 36.1331 211.065 35.8233H211.692C211.579 36.2639 211.34 36.622 210.967 36.9042C210.601 37.1796 210.136 37.3242 209.58 37.3242C209.143 37.3242 208.756 37.2278 208.411 37.0419C208.066 36.8492 207.798 36.5806 207.601 36.2295C207.404 35.8784 207.313 35.4721 207.313 35.0039C207.313 34.5358 207.411 34.1226 207.601 33.7715C207.791 33.4204 208.059 33.1518 208.404 32.959C208.749 32.7731 209.136 32.6768 209.58 32.6768C210.023 32.6768 210.404 32.7731 210.734 32.959C211.065 33.1449 211.319 33.3997 211.495 33.7164C211.671 34.0331 211.762 34.3843 211.762 34.7698C211.762 34.9695 211.762 35.121 211.748 35.2243ZM210.96 33.8954C210.819 33.6613 210.622 33.4823 210.375 33.3584C210.129 33.2345 209.854 33.1794 209.566 33.1794C209.129 33.1794 208.749 33.3171 208.439 33.5925C208.129 33.8679 207.96 34.2535 207.925 34.7561H211.171C211.171 34.4187 211.101 34.1295 210.96 33.8954Z" fill="#939598"/>
<path d="M34.9358 35.0111C34.0276 34.357 33.2953 33.4482 32.8729 32.4429C32.4364 31.7475 32.1829 31.0246 31.9365 30.3292L31.8098 29.9574C31.7464 29.7646 31.6971 29.6132 31.6478 29.4617C31.4859 29.0004 31.3169 28.5253 31.2113 28.0089C30.6903 26.4116 30.2819 24.7798 29.8947 23.2031C29.5708 21.8811 29.2399 20.5179 28.8386 19.2166L28.7611 19.01C28.6485 18.6795 28.5358 18.3559 28.4021 18.0874C28.1627 18.5556 27.9796 19.072 27.7825 19.6159L27.6628 19.9533C27.3108 20.9929 26.9658 22.0739 26.6349 23.1549C26.3603 24.0224 26.0927 24.8899 25.8111 25.7575L25.6633 26.1981L25.6421 26.2119C25.0507 28.1673 24.3537 30.0882 23.5581 31.9128C23.0652 33.0282 22.3753 34.4603 21.3121 35.7341C20.7066 36.4157 20.0096 37.1455 19.0098 37.5311C18.4114 37.8065 17.7214 37.958 17.0243 37.958C15.926 37.958 14.8136 37.593 13.9617 36.9596C12.4057 35.9681 11.5115 34.4534 10.6596 32.8561C10.0048 31.4997 9.40634 30.0538 8.85716 28.5184C8.58258 27.8437 8.34319 27.162 8.10381 26.5011C7.80106 25.6473 7.51239 24.8417 7.16036 24.0499L7.12516 23.9742C7.07587 23.864 7.01955 23.747 6.96322 23.6368C6.45629 24.2909 6.12538 25.124 5.82263 25.9158C5.77335 26.0604 5.71702 26.2188 5.66774 26.3702C5.18193 27.8024 4.78765 29.3515 4.42858 31.2518C4.28072 32.0161 3.83716 32.677 3.21054 33.0902C6.28732 39.2937 12.7929 43.5762 20.3194 43.5762C26.825 43.5762 32.5772 40.3746 35.999 35.4931C35.661 35.3967 35.3231 35.2452 35.0133 35.0593L34.9358 35.0111Z" fill="url(#paint0_linear_116_64)"/>
<path d="M1.95731 21.3509L1.98547 21.3302C2.78811 19.9394 3.83717 18.8929 5.04817 18.2801L5.16786 18.2181C5.26643 18.1768 5.37204 18.1286 5.47765 18.0873C5.61846 18.0323 5.85784 17.9427 6.15355 17.9083C6.48446 17.8188 6.82946 17.7775 7.17445 17.7775C8.25167 17.7775 9.35002 18.2113 10.1949 18.9549C11.2721 19.9188 11.9199 21.1168 12.5254 22.3768C13.159 23.7951 13.7152 25.2066 14.2151 26.6318L14.2785 26.8315V26.8452C14.4334 27.2239 14.5953 27.6026 14.7432 27.9813C15.3064 29.3928 15.8415 30.7216 16.6301 31.899C16.6794 31.9471 16.7286 31.9885 16.7779 32.0435C16.8413 32.1124 16.9328 32.2019 17.0103 32.2708C17.0384 32.2432 17.13 32.1537 17.1511 32.1262C17.2426 31.954 17.3271 31.8026 17.4116 31.6786C17.4468 31.6167 17.489 31.5616 17.5242 31.4996C18.003 30.6459 18.355 29.7439 18.7212 28.78C18.8831 28.3531 19.0521 27.9331 19.2281 27.5131C19.4886 26.6731 19.7632 25.8331 20.0448 25C20.2912 24.2771 20.5306 23.5541 20.7559 22.8312L21.0868 21.8329C21.8472 19.5263 22.6358 17.1372 23.9594 14.9615C24.4945 14.1421 25.1493 13.2677 26.1279 12.6825C26.2195 12.6205 26.311 12.5586 26.4166 12.5104C26.9517 12.2143 27.6276 12.049 28.3246 12.049C29.1343 12.049 29.9088 12.2694 30.5636 12.6825C31.9647 13.5294 32.7743 14.9064 33.4362 16.2696C34.3444 18.1975 34.9217 20.208 35.478 22.1496L35.7103 22.9483L35.7173 23.0102C35.7455 23.1204 35.7525 23.2168 35.7666 23.32C35.9497 23.802 36.0694 24.2702 36.1891 24.7315C36.2524 24.9863 36.3158 25.2341 36.3932 25.4889C36.5341 26.0053 36.6678 26.4735 36.8016 26.9416C36.9776 27.5544 37.1677 28.1879 37.3156 28.8351L37.3649 28.9521L37.4353 29.1518C37.8718 28.8764 38.3858 28.7111 38.9209 28.6905C38.9349 28.656 38.942 28.6147 38.949 28.5734C38.7448 28.3324 38.5899 28.057 38.4843 27.7541C38.2309 27.0725 38.2731 26.3013 38.597 25.6128C38.766 25.2617 39.0053 24.9518 39.294 24.6971C39.1462 14.5828 30.7044 6.41699 20.3123 6.41699C10.8426 6.41699 2.99229 13.1989 1.54895 22.0669C1.63344 21.9155 1.71793 21.7571 1.80946 21.6056L1.95731 21.3509Z" fill="url(#paint1_linear_116_64)"/>
<path d="M42.7791 26.3289C42.6524 25.9089 42.3356 25.5785 41.9342 25.3857C41.54 25.1998 41.0682 25.1516 40.6528 25.3237C39.8361 25.5922 39.3644 26.5561 39.6742 27.3411C39.9206 28.0915 40.8148 28.5735 41.5963 28.3669C42.3215 28.2224 42.8495 27.5201 42.8425 26.804C42.8566 26.6525 42.8425 26.4873 42.7791 26.3289Z" fill="url(#paint2_linear_116_64)"/>
<path d="M39.815 30.1364C39.6953 30.0676 39.5616 30.0263 39.4278 29.9918C39.4137 29.9918 39.3996 29.9781 39.3926 29.9781C39.3715 29.9781 39.3574 29.9712 39.3363 29.9712C39.0969 29.9299 38.8575 29.9299 38.6181 29.9918C38.4069 30.04 38.2238 30.1364 38.0478 30.2604C37.8577 30.3843 37.731 30.5771 37.6113 30.7699L37.5127 30.8663V30.8594C37.0269 31.3482 36.8509 30.9351 36.8157 30.8112C36.8157 30.8043 36.8086 30.7905 36.8086 30.7836V30.7768C36.2947 28.9246 34.4078 22.8519 34.0909 21.8192C33.7178 20.5385 33.3306 19.2579 32.8377 18.0186C32.8307 17.9979 32.8236 17.9841 32.8166 17.9635C32.6617 17.571 32.4998 17.1855 32.3167 16.8068C31.7464 15.6363 31.0564 14.4176 29.8947 13.7222C29.7891 13.6534 29.6764 13.5983 29.5638 13.5432C28.7612 13.1783 27.7825 13.1921 27.008 13.6189C26.9587 13.6396 26.9095 13.674 26.8602 13.7084C26.0927 14.1491 25.5436 14.872 25.0648 15.5881C24.5227 16.4763 24.0791 17.3989 23.6848 18.349C23.03 19.9326 22.5161 21.5713 21.9739 23.1962C21.7909 23.7814 21.5937 24.3598 21.4037 24.9381C21.2699 25.3375 21.1431 25.7368 21.0164 26.1293C20.8193 26.7283 20.6221 27.3204 20.432 27.9194C20.3687 28.0709 20.3123 28.2292 20.249 28.3807C19.8406 29.4135 19.4604 30.4531 18.9676 31.4515C18.862 31.6581 18.7634 31.8715 18.6507 32.0712C18.5592 32.2364 18.4606 32.4016 18.3691 32.5669C18.3691 32.5738 18.3621 32.5738 18.3621 32.5807C18.348 32.5944 18.341 32.6082 18.3269 32.6289C17.0244 34.4052 15.7148 32.7184 15.3487 32.1744C14.884 31.4171 14.5038 30.6184 14.1588 29.8059L13.4547 28.0089L12.5746 25.785C12.2085 24.8211 11.8283 23.8641 11.4129 22.9208C10.8778 21.826 10.2935 20.7038 9.3641 19.8707C9.23032 19.7536 9.08247 19.6435 8.92758 19.5471C8.89237 19.5264 8.86421 19.5058 8.82901 19.4851C8.67411 19.3956 8.51218 19.3061 8.33616 19.2441C8.32912 19.2372 8.31504 19.2372 8.308 19.2372C8.14606 19.1753 7.97708 19.1271 7.80811 19.0926C7.7729 19.0858 7.7377 19.0789 7.69546 19.072C7.5124 19.0444 7.33638 19.0238 7.15333 19.0238C7.14628 19.0238 7.14629 19.0238 7.13924 19.0238C7.12516 19.0238 7.11812 19.0238 7.10404 19.0238C4.40042 19.0582 2.97116 22.1152 2.9078 22.2529C2.54168 22.8726 2.23189 23.5129 1.94323 24.167C1.92914 24.1945 1.9221 24.2152 1.91506 24.2427C1.79537 24.525 1.67568 24.8073 1.57007 25.0965C1.54191 25.1653 1.51374 25.2342 1.49262 25.3099C1.45038 25.427 1.40109 25.544 1.35885 25.6611C1.35885 25.668 1.35885 25.668 1.35885 25.668C1.33069 25.7368 1.30957 25.8126 1.28844 25.8883C1.20396 26.1293 1.11947 26.3771 1.04202 26.625C1.00682 26.7352 0.971613 26.8522 0.93641 26.9624C0.844881 27.2584 0.760393 27.5614 0.682945 27.8574C0.668864 27.9194 0.647742 27.9814 0.633661 28.0433C0.429481 28.8076 0.246424 29.5718 0.0844881 30.343C0.0774474 30.3636 0.0844881 30.3774 0.0774474 30.3981C0.021122 30.4876 0.00704067 30.5909 0 30.701C0 30.7286 0 30.7492 0 30.7768C0 30.9076 0.021122 31.0315 0.0492847 31.1554V31.1623C0.0492847 31.1692 0.0492847 31.1692 0.0563254 31.1761C0.161936 31.5617 0.401318 31.9059 0.760393 32.1125C1.13355 32.3879 1.60527 32.3328 2.0418 32.3121L2.06996 32.2639C2.20373 32.2295 2.32342 32.1676 2.44311 32.0987C2.47128 32.0849 2.4924 32.0643 2.52056 32.0436C2.56985 32.0092 2.62617 31.9748 2.67546 31.9335C2.71066 31.899 2.73882 31.8646 2.77403 31.8302C2.78811 31.8164 2.80219 31.8026 2.80923 31.7889C2.89372 31.6925 2.96412 31.5823 3.02045 31.4722C3.02749 31.4515 3.03453 31.4377 3.04861 31.4171C3.10494 31.3 3.15422 31.1692 3.17534 31.0384C3.49217 29.3446 3.88645 27.644 4.44971 26.0053C4.49899 25.8401 4.56236 25.668 4.62572 25.5027C4.69613 25.3237 4.76654 25.1378 4.83694 24.9588C5.09745 24.3254 5.39316 23.7057 5.78743 23.1411C5.80152 23.1205 5.82264 23.0929 5.83672 23.0723C6.10426 22.7418 6.48446 22.3769 6.94915 22.3218C7.27302 22.2942 7.64617 22.4044 7.95596 22.8795C8.08974 23.0998 8.19535 23.3339 8.308 23.5611C8.308 23.5611 8.308 23.5611 8.308 23.568C8.3432 23.6575 8.3784 23.7401 8.41361 23.8296C9.01206 25.2342 9.46267 26.6939 10.04 28.0915C10.4836 29.3446 10.9905 30.5771 11.5537 31.782C11.6312 31.9472 11.7016 32.1262 11.779 32.2915C12.5113 33.6685 13.321 35.1075 14.6939 35.9613C14.7784 36.0301 14.8769 36.0852 14.9685 36.1403C15.0178 36.1678 15.06 36.2023 15.1093 36.2298C15.1163 36.2367 15.1234 36.2367 15.1304 36.2436C16.1443 36.8013 17.4609 36.9183 18.5099 36.4088C18.6648 36.3537 18.8127 36.2711 18.9535 36.1885C19.4886 35.8787 19.9321 35.4242 20.3335 34.9698C21.0235 34.1298 21.5585 33.2003 22.0232 32.2364C22.15 31.9748 22.2767 31.7062 22.3964 31.4377C22.6358 30.8731 22.8681 30.3086 23.0934 29.7371C23.6496 28.3187 24.1425 26.8729 24.572 25.4063L24.6072 25.3857C25.2408 23.4372 25.8182 21.4818 26.4659 19.5471C26.48 19.5126 26.4941 19.4782 26.5081 19.4369C26.7757 18.7002 27.0362 17.9566 27.4305 17.275C27.5502 17.0891 27.7614 16.91 27.7825 16.8894C28.1205 16.6346 28.6626 16.3799 29.1343 16.9169C29.5849 17.4746 29.8032 18.1976 30.0426 18.8654C30.1622 19.2579 30.2819 19.6572 30.3876 20.0566C30.4298 20.2149 30.472 20.3802 30.5143 20.5385C30.5777 20.7657 30.634 20.9861 30.6903 21.2133C30.7677 21.5231 30.8522 21.8398 30.9297 22.1496C30.9367 22.1634 30.9367 22.1841 30.9438 22.1978C31.0846 22.7624 31.2254 23.327 31.3662 23.8916L31.3592 23.8847L31.4014 24.0431C31.5422 24.6076 31.6901 25.1791 31.845 25.7368L32.7039 29.0141C32.7532 29.2345 32.8236 29.5099 32.9152 29.8197V29.8335C33.4643 31.7062 34.8091 34.8459 37.5409 34.357C37.5902 34.3501 37.6324 34.3364 37.6746 34.3295C37.6817 34.3295 37.6817 34.3295 37.6887 34.3295C37.7873 34.3157 37.8788 34.2882 37.9704 34.2675C37.9774 34.2675 37.9844 34.2675 37.9915 34.2606C38.076 34.24 38.1534 34.2193 38.2238 34.1918C38.2309 34.1918 38.2379 34.1849 38.2379 34.1849C38.2801 34.1711 38.3153 34.1574 38.3576 34.1436H38.3646C38.4632 34.1023 38.5547 34.061 38.6322 34.0197C39.0546 33.8131 39.4348 33.5308 39.7587 33.1866C39.7728 33.1728 39.7868 33.1521 39.8009 33.1384C39.9347 32.9869 40.0614 32.8285 40.1741 32.6633C40.1952 32.6289 40.2163 32.6013 40.2375 32.5669C40.3571 32.3741 40.4628 32.1813 40.5472 31.9748C40.5895 31.8646 40.6106 31.7407 40.6177 31.6236C40.6177 31.6099 40.6177 31.5892 40.6177 31.5754C40.6529 31.004 40.336 30.4118 39.815 30.1364Z" fill="url(#paint3_linear_116_64)"/>
<path d="M52.1573 50C52.344 50 52.4953 38.8071 52.4953 25C52.4953 11.1929 52.344 0 52.1573 0C51.9707 0 51.8194 11.1929 51.8194 25C51.8194 38.8071 51.9707 50 52.1573 50Z" fill="url(#paint4_linear_116_64)"/>
<path d="M50.4957 43.2799C50.6824 43.2799 50.8337 35.0956 50.8337 24.9998C50.8337 14.904 50.6824 6.71973 50.4957 6.71973C50.3091 6.71973 50.1578 14.904 50.1578 24.9998C50.1578 35.0956 50.3091 43.2799 50.4957 43.2799Z" fill="url(#paint5_linear_116_64)"/>
<path d="M53.8189 43.2799C54.0056 43.2799 54.1569 35.0956 54.1569 24.9998C54.1569 14.904 54.0056 6.71973 53.8189 6.71973C53.6323 6.71973 53.481 14.904 53.481 24.9998C53.481 35.0956 53.6323 43.2799 53.8189 43.2799Z" fill="url(#paint6_linear_116_64)"/>
</g>
<defs>
<linearGradient id="paint0_linear_116_64" x1="3.20456" y1="30.8355" x2="35.9954" y2="30.8355" gradientUnits="userSpaceOnUse">
<stop stop-color="#2666EC"/>
<stop offset="1" stop-color="#91B2F5"/>
</linearGradient>
<linearGradient id="paint1_linear_116_64" x1="1.55205" y1="19.3448" x2="39.3068" y2="19.3448" gradientUnits="userSpaceOnUse">
<stop stop-color="#2666EC"/>
<stop offset="1" stop-color="#91B2F5"/>
</linearGradient>
<linearGradient id="paint2_linear_116_64" x1="37.6263" y1="29.2495" x2="43.1474" y2="25.361" gradientUnits="userSpaceOnUse">
<stop stop-color="#2666EC"/>
<stop offset="1" stop-color="#91B2F5"/>
</linearGradient>
<linearGradient id="paint3_linear_116_64" x1="0" y1="25.0031" x2="40.6258" y2="25.0031" gradientUnits="userSpaceOnUse">
<stop stop-color="#2666EC"/>
<stop offset="1" stop-color="#91B2F5"/>
</linearGradient>
<linearGradient id="paint4_linear_116_64" x1="51.9813" y1="-18.9451" x2="52.3244" y2="71.0488" gradientUnits="userSpaceOnUse">
<stop stop-color="#2666EC"/>
<stop offset="1" stop-color="#91B2F5"/>
</linearGradient>
<linearGradient id="paint5_linear_116_64" x1="50.3665" y1="-7.13479" x2="50.6174" y2="58.6732" gradientUnits="userSpaceOnUse">
<stop stop-color="#2666EC"/>
<stop offset="1" stop-color="#91B2F5"/>
</linearGradient>
<linearGradient id="paint6_linear_116_64" x1="53.6903" y1="-7.13479" x2="53.9412" y2="58.6732" gradientUnits="userSpaceOnUse">
<stop stop-color="#2666EC"/>
<stop offset="1" stop-color="#91B2F5"/>
</linearGradient>
<clipPath id="clip0_116_64">
<rect width="211.762" height="50" fill="white"/>
</clipPath>
</defs>
</svg>
