<svg width="364" height="70" viewBox="0 0 364 70" fill="none" xmlns="http://www.w3.org/2000/svg">
<rect width="364" height="70" fill="#0B152A"/>
<g clip-path="url(#clip0_141_65)">
<path d="M153.462 20.9199H155.975V37.3204H153.194V25.5605L147.371 32.7762H146.773L140.971 25.5812V37.3204H138.169V20.9199H140.711L147.083 28.8654L153.462 20.9199Z" fill="#2062EB"/>
<path d="M158.158 31.6948V29.3745H166.973V31.6948H158.158Z" fill="#2062EB"/>
<path d="M169.134 37.3204V20.9199H171.936V34.766H180.779V37.3204H169.134Z" fill="#2062EB"/>
<path d="M182.744 24.0114C182.251 24.0114 181.842 23.8599 181.519 23.5569C181.195 23.254 181.04 22.8753 181.04 22.4209C181.04 21.9389 181.202 21.5396 181.519 21.2366C181.835 20.9337 182.244 20.7822 182.744 20.7822C183.258 20.7822 183.673 20.9337 184.004 21.2366C184.328 21.5396 184.497 21.9389 184.497 22.4209C184.497 22.8753 184.335 23.254 184.004 23.5569C183.673 23.8599 183.251 24.0114 182.744 24.0114ZM181.399 37.3204V25.7464H184.081V37.3204H181.399Z" fill="#2062EB"/>
<path d="M191.728 22.8613C191.15 22.8613 190.7 23.0403 190.362 23.3984C190.024 23.7564 189.862 24.3072 189.862 25.037V25.7393H193.382V27.9908H189.862V37.3201H187.179V27.9976H184.947V25.7462H187.179V25.0439C187.179 23.6256 187.588 22.5308 188.404 21.7597C189.221 20.9954 190.256 20.6099 191.516 20.6099C192.587 20.6099 193.593 20.9404 194.537 21.5944L193.509 23.4465C192.861 23.061 192.27 22.8613 191.728 22.8613Z" fill="#2062EB"/>
<path d="M199.134 25.5122C201.211 25.5122 202.796 26.1388 203.88 27.385C204.964 28.6381 205.415 30.3456 205.225 32.5144H195.762C195.875 33.3613 196.262 34.0291 196.938 34.5318C197.607 35.0344 198.466 35.2822 199.501 35.2822C200.169 35.2822 200.817 35.1721 201.444 34.9518C202.063 34.7314 202.556 34.4423 202.908 34.0842L204.535 35.6334C203.943 36.2599 203.197 36.7488 202.296 37.1068C201.394 37.4648 200.437 37.6439 199.43 37.6439C197.48 37.6439 195.924 37.0862 194.755 35.9776C193.586 34.8691 193.009 33.3819 193.009 31.5229C193.009 29.7259 193.572 28.2732 194.699 27.1646C195.811 26.0699 197.297 25.5122 199.134 25.5122ZM199.205 27.7843C198.275 27.7843 197.522 28.0184 196.931 28.4866C196.339 28.9548 195.959 29.6226 195.783 30.4764H202.662C202.563 29.6502 202.211 28.9892 201.599 28.5072C200.972 28.0253 200.176 27.7843 199.205 27.7843Z" fill="#2062EB"/>
<path d="M218.686 20.9199C220.447 20.9199 221.834 21.4225 222.854 22.4209C223.875 23.4192 224.389 24.7343 224.389 26.3592C224.389 27.9841 223.875 29.2923 222.854 30.2837C221.834 31.2752 220.439 31.7709 218.686 31.7709H212.843V37.3272H211.427V20.9199H218.686ZM218.637 30.4559C219.996 30.4559 221.059 30.0841 221.826 29.3405C222.594 28.5969 222.974 27.6054 222.974 26.3523C222.974 25.1061 222.594 24.1009 221.834 23.3504C221.073 22.5999 220.01 22.2281 218.637 22.2281H212.836V30.4559H218.637Z" fill="#91B2F5"/>
<path d="M231.507 25.5812C233.07 25.5812 234.303 26.0356 235.183 26.9375C236.07 27.8464 236.513 29.0995 236.513 30.7106V37.3204H235.147V30.7795C235.147 29.4988 234.817 28.5211 234.162 27.8395C233.507 27.1579 232.571 26.8205 231.36 26.8205C230.099 26.8205 229.064 27.213 228.269 28.0047C227.473 28.7965 227.072 29.7811 227.072 30.9654V37.3135H225.706V20.9199H227.072V27.7362C228.114 26.3041 229.592 25.5812 231.507 25.5812Z" fill="#91B2F5"/>
<path d="M244.061 37.5544C242.259 37.5544 240.787 36.9898 239.653 35.8538C238.52 34.7177 237.95 33.2787 237.95 31.5299C237.95 29.7811 238.52 28.3421 239.653 27.206C240.787 26.07 242.259 25.5054 244.061 25.5054C245.849 25.5054 247.314 26.07 248.461 27.206C249.602 28.3352 250.172 29.7811 250.172 31.5299C250.172 33.2787 249.602 34.7177 248.461 35.8538C247.321 36.9898 245.849 37.5544 244.061 37.5544ZM244.061 36.2944C245.434 36.2944 246.567 35.84 247.462 34.938C248.356 34.0292 248.806 32.9 248.806 31.5437C248.806 30.1873 248.356 29.0512 247.462 28.1424C246.567 27.2335 245.434 26.786 244.061 26.786C242.674 26.786 241.533 27.2404 240.646 28.1424C239.759 29.0512 239.316 30.1804 239.316 31.5437C239.316 32.9 239.759 34.0361 240.646 34.938C241.533 35.84 242.674 36.2944 244.061 36.2944Z" fill="#91B2F5"/>
<path d="M257.551 25.5811C259.114 25.5811 260.346 26.0355 261.226 26.9374C262.113 27.8463 262.557 29.0994 262.557 30.7105V37.3202H261.191V30.7793C261.191 29.4987 260.86 28.521 260.205 27.8394C259.55 27.1578 258.614 26.8204 257.403 26.8204C256.143 26.8204 255.108 27.2128 254.312 28.0046C253.517 28.7964 253.115 29.781 253.115 30.9652V37.3134H251.749V25.7463H252.996L253.017 27.8325C253.481 27.1302 254.108 26.5794 254.911 26.1801C255.72 25.7807 256.593 25.5811 257.551 25.5811Z" fill="#91B2F5"/>
<path d="M269.964 25.5327C271.914 25.5327 273.435 26.1317 274.526 27.3229C275.617 28.5209 276.089 30.0907 275.927 32.0461H265.38C265.493 33.3611 265.964 34.4008 266.809 35.165C267.647 35.9293 268.739 36.3149 270.083 36.3149C270.914 36.3149 271.71 36.1565 272.477 35.8467C273.245 35.5368 273.829 35.1237 274.223 34.6074L275.16 35.406C274.603 36.0945 273.871 36.6316 272.97 37.0103C272.069 37.3958 271.097 37.5817 270.062 37.5817C268.274 37.5817 266.816 37.0172 265.69 35.8949C264.563 34.7726 264 33.3198 264 31.5366C264 29.774 264.549 28.3281 265.655 27.2127C266.76 26.0973 268.196 25.5327 269.964 25.5327ZM269.992 26.7514C268.696 26.7514 267.64 27.1232 266.816 27.8668C265.993 28.6104 265.521 29.6156 265.387 30.8756H274.61C274.596 29.6432 274.16 28.6448 273.315 27.8874C272.477 27.1301 271.365 26.7514 269.992 26.7514Z" fill="#91B2F5"/>
<path d="M281.588 37.5336C280.553 37.5336 279.574 37.3546 278.666 37.0034C277.758 36.6523 276.997 36.1703 276.392 35.5644L277.159 34.6005C277.652 35.1307 278.3 35.5507 279.088 35.8536C279.877 36.1566 280.722 36.308 281.616 36.308C282.686 36.308 283.538 36.1152 284.179 35.7228C284.819 35.3303 285.136 34.814 285.136 34.1736C285.136 33.5815 284.876 33.1271 284.348 32.8173C283.82 32.5074 282.848 32.2251 281.426 31.9773C279.75 31.7087 278.56 31.3301 277.856 30.8412C277.152 30.3524 276.8 29.6501 276.8 28.7412C276.8 27.7704 277.237 26.9924 278.117 26.4072C278.997 25.8219 280.18 25.5259 281.665 25.5259C283.454 25.5259 284.981 26.0147 286.242 26.9993L285.523 27.9632C284.439 27.137 283.165 26.7239 281.714 26.7239C280.567 26.7239 279.68 26.896 279.067 27.2541C278.455 27.6121 278.145 28.1009 278.145 28.7412C278.145 29.3058 278.391 29.7327 278.877 30.0219C279.363 30.3111 280.271 30.5658 281.595 30.7861C283.383 31.0822 284.643 31.4884 285.383 32.0048C286.115 32.5212 286.488 33.2579 286.488 34.2081C286.488 35.2064 286.037 36.012 285.143 36.6179C284.242 37.2306 283.059 37.5336 281.588 37.5336Z" fill="#91B2F5"/>
<path d="M138.606 41.4785V47.2552H138.014V41.4785H138.606Z" fill="#939598"/>
<path d="M145.238 43.1585C145.59 43.489 145.759 43.9778 145.759 44.6113V47.2552H145.175V44.6801C145.175 44.1913 145.048 43.8126 144.801 43.5578C144.548 43.2962 144.21 43.1723 143.774 43.1723C143.33 43.1723 142.971 43.31 142.71 43.5854C142.45 43.8608 142.316 44.267 142.316 44.7972V47.262H141.725V42.7523H142.316V43.5234C142.464 43.248 142.675 43.0346 142.95 42.89C143.224 42.7454 143.541 42.6696 143.886 42.6696C144.435 42.6628 144.886 42.828 145.238 43.1585Z" fill="#939598"/>
<path d="M152.356 43.1585C152.708 43.489 152.877 43.9778 152.877 44.6113V47.2552H152.293V44.6801C152.293 44.1913 152.166 43.8126 151.92 43.5578C151.666 43.2962 151.328 43.1723 150.892 43.1723C150.448 43.1723 150.089 43.31 149.829 43.5854C149.568 43.8608 149.434 44.267 149.434 44.7972V47.262H148.843V42.7523H149.434V43.5234C149.582 43.248 149.793 43.0346 150.068 42.89C150.342 42.7454 150.659 42.6696 151.004 42.6696C151.561 42.6628 152.011 42.828 152.356 43.1585Z" fill="#939598"/>
<path d="M156.813 47.0351C156.468 46.8423 156.193 46.5738 155.996 46.2226C155.799 45.8715 155.693 45.4652 155.693 44.9971C155.693 44.5289 155.792 44.1226 155.996 43.7715C156.2 43.4204 156.475 43.1518 156.827 42.959C157.179 42.7663 157.566 42.6768 158.003 42.6768C158.439 42.6768 158.827 42.7731 159.179 42.959C159.531 43.1518 159.805 43.4204 160.009 43.7715C160.206 44.1226 160.312 44.5289 160.312 44.9971C160.312 45.4584 160.214 45.8646 160.009 46.2226C159.805 46.5806 159.531 46.8492 159.172 47.0351C158.819 47.2278 158.425 47.3174 157.989 47.3174C157.552 47.3174 157.158 47.2278 156.813 47.0351ZM158.827 46.6151C159.087 46.4774 159.298 46.2777 159.453 46.0023C159.615 45.7269 159.693 45.3964 159.693 44.9971C159.693 44.5977 159.615 44.2672 159.453 43.9918C159.298 43.7164 159.087 43.5167 158.827 43.379C158.566 43.2413 158.284 43.1794 157.982 43.1794C157.679 43.1794 157.397 43.2482 157.137 43.379C156.876 43.5099 156.672 43.7164 156.517 43.9918C156.362 44.2672 156.285 44.5977 156.285 44.9971C156.285 45.3964 156.362 45.7269 156.517 46.0023C156.672 46.2777 156.876 46.4774 157.137 46.6151C157.397 46.7528 157.672 46.8147 157.975 46.8147C158.277 46.8147 158.573 46.7528 158.827 46.6151Z" fill="#939598"/>
<path d="M164.804 46.6909L166.36 42.7388H166.987L165.135 47.2485H164.466L162.614 42.7388H163.248L164.804 46.6909Z" fill="#939598"/>
<path d="M169.571 43.7715C169.761 43.4204 170.021 43.1518 170.359 42.959C170.697 42.7663 171.07 42.6768 171.493 42.6768C171.929 42.6768 172.309 42.7732 172.626 42.9728C172.943 43.1725 173.175 43.4272 173.316 43.7302V42.7387H173.908V47.2485H173.316V46.2502C173.168 46.56 172.936 46.8147 172.619 47.0144C172.302 47.2141 171.922 47.3174 171.486 47.3174C171.07 47.3174 170.69 47.221 170.359 47.0282C170.021 46.8354 169.761 46.56 169.571 46.2088C169.38 45.8577 169.289 45.4515 169.289 44.9833C169.289 44.5151 169.38 44.1226 169.571 43.7715ZM173.091 44.04C172.936 43.7646 172.732 43.5512 172.471 43.4066C172.211 43.262 171.922 43.1863 171.605 43.1863C171.281 43.1863 170.986 43.2551 170.725 43.3997C170.465 43.5443 170.261 43.7508 170.113 44.0262C169.965 44.3017 169.887 44.6253 169.887 44.9971C169.887 45.3689 169.965 45.6925 170.113 45.9679C170.261 46.2433 170.465 46.4567 170.725 46.6013C170.986 46.7459 171.274 46.8216 171.605 46.8216C171.922 46.8216 172.211 46.7459 172.471 46.6013C172.732 46.4567 172.943 46.2433 173.091 45.9679C173.246 45.6925 173.316 45.3757 173.316 45.0108C173.316 44.639 173.246 44.3154 173.091 44.04Z" fill="#939598"/>
<path d="M177.808 43.2342V46.0364C177.808 46.3118 177.865 46.5046 177.97 46.6079C178.076 46.7112 178.266 46.7663 178.533 46.7663H179.076V47.262H178.442C178.026 47.262 177.717 47.1656 177.512 46.9797C177.308 46.7938 177.21 46.4771 177.21 46.0433V43.2411H176.569V42.7522H177.21V41.623H177.808V42.7522H179.076V43.2411H177.808V43.2342Z" fill="#939598"/>
<path d="M185.975 45.2243H182.145C182.159 45.5685 182.244 45.8577 182.399 46.0987C182.554 46.3397 182.751 46.5256 182.997 46.6495C183.244 46.7734 183.518 46.8354 183.807 46.8354C184.187 46.8354 184.511 46.7459 184.771 46.56C185.032 46.381 185.208 46.1331 185.292 45.8233H185.919C185.806 46.2639 185.567 46.622 185.194 46.9042C184.828 47.1796 184.363 47.3242 183.807 47.3242C183.37 47.3242 182.983 47.2278 182.638 47.0419C182.293 46.8492 182.026 46.5806 181.828 46.2295C181.631 45.8784 181.54 45.4721 181.54 45.0039C181.54 44.5358 181.638 44.1226 181.828 43.7715C182.019 43.4204 182.286 43.1518 182.631 42.959C182.976 42.7731 183.363 42.6768 183.807 42.6768C184.25 42.6768 184.631 42.7731 184.962 42.959C185.292 43.1449 185.546 43.3997 185.722 43.7164C185.898 44.0331 185.989 44.3843 185.989 44.7698C185.989 44.9695 185.989 45.121 185.975 45.2243ZM185.187 43.8954C185.046 43.6613 184.849 43.4823 184.602 43.3584C184.356 43.2345 184.081 43.1794 183.793 43.1794C183.356 43.1794 182.976 43.3171 182.666 43.5925C182.356 43.8679 182.187 44.2535 182.152 44.7561H185.398C185.398 44.4187 185.328 44.1295 185.187 43.8954Z" fill="#939598"/>
<path d="M189.39 46.2983L188.51 48.4603H188.102L188.728 46.2983H189.39Z" fill="#939598"/>
<path d="M196.191 43.7715C196.381 43.4204 196.649 43.1518 196.987 42.959C197.325 42.7663 197.712 42.6768 198.142 42.6768C198.712 42.6768 199.177 42.8145 199.55 43.0899C199.923 43.3653 200.155 43.7371 200.261 44.2121H199.627C199.55 43.8885 199.381 43.6338 199.113 43.4479C198.853 43.262 198.529 43.1725 198.135 43.1725C197.825 43.1725 197.543 43.2413 197.297 43.379C197.05 43.5167 196.853 43.7233 196.712 43.9918C196.572 44.2672 196.494 44.5977 196.494 44.9971C196.494 45.3964 196.565 45.7269 196.712 46.0023C196.853 46.2777 197.05 46.4842 197.297 46.622C197.543 46.7597 197.825 46.8285 198.135 46.8285C198.522 46.8285 198.846 46.739 199.113 46.5531C199.374 46.3672 199.543 46.1125 199.627 45.782H200.261C200.155 46.2433 199.916 46.6151 199.543 46.8974C199.17 47.1797 198.705 47.3174 198.142 47.3174C197.705 47.3174 197.325 47.221 196.987 47.0351C196.649 46.8423 196.381 46.5738 196.191 46.2226C196.001 45.8715 195.903 45.4652 195.903 44.9971C195.903 44.5289 196.001 44.1226 196.191 43.7715Z" fill="#939598"/>
<path d="M203.978 47.0351C203.633 46.8423 203.359 46.5738 203.162 46.2226C202.965 45.8715 202.859 45.4652 202.859 44.9971C202.859 44.5289 202.957 44.1226 203.162 43.7715C203.366 43.4204 203.64 43.1518 203.992 42.959C204.344 42.7663 204.732 42.6768 205.168 42.6768C205.605 42.6768 205.992 42.7731 206.344 42.959C206.696 43.1518 206.971 43.4204 207.175 43.7715C207.372 44.1226 207.478 44.5289 207.478 44.9971C207.478 45.4584 207.379 45.8646 207.175 46.2226C206.971 46.5806 206.696 46.8492 206.337 47.0351C205.985 47.2278 205.591 47.3174 205.154 47.3174C204.718 47.3174 204.323 47.2278 203.978 47.0351ZM205.992 46.6151C206.253 46.4774 206.464 46.2777 206.619 46.0023C206.781 45.7269 206.858 45.3964 206.858 44.9971C206.858 44.5977 206.781 44.2672 206.619 43.9918C206.464 43.7164 206.253 43.5167 205.992 43.379C205.731 43.2413 205.45 43.1794 205.147 43.1794C204.844 43.1794 204.563 43.2482 204.302 43.379C204.042 43.5099 203.838 43.7164 203.683 43.9918C203.528 44.2672 203.45 44.5977 203.45 44.9971C203.45 45.3964 203.528 45.7269 203.683 46.0023C203.838 46.2777 204.042 46.4774 204.302 46.6151C204.563 46.7528 204.837 46.8147 205.14 46.8147C205.443 46.8147 205.731 46.7528 205.992 46.6151Z" fill="#939598"/>
<path d="M213.842 43.1585C214.194 43.489 214.363 43.9778 214.363 44.6113V47.2552H213.779V44.6801C213.779 44.1913 213.652 43.8126 213.406 43.5578C213.152 43.2962 212.814 43.1723 212.378 43.1723C211.934 43.1723 211.575 43.31 211.315 43.5854C211.054 43.8608 210.92 44.267 210.92 44.7972V47.262H210.329V42.7523H210.92V43.5234C211.068 43.248 211.28 43.0346 211.554 42.89C211.829 42.7454 212.146 42.6696 212.491 42.6696C213.04 42.6628 213.49 42.828 213.842 43.1585Z" fill="#939598"/>
<path d="M220.96 43.1585C221.313 43.489 221.481 43.9778 221.481 44.6113V47.2552H220.897V44.6801C220.897 44.1913 220.77 43.8126 220.524 43.5578C220.27 43.2962 219.933 43.1723 219.496 43.1723C219.052 43.1723 218.693 43.31 218.433 43.5854C218.172 43.8608 218.039 44.267 218.039 44.7972V47.262H217.447V42.7523H218.039V43.5234C218.186 43.248 218.398 43.0346 218.672 42.89C218.947 42.7454 219.264 42.6696 219.609 42.6696C220.165 42.6628 220.615 42.828 220.96 43.1585Z" fill="#939598"/>
<path d="M228.726 45.2243H224.896C224.91 45.5685 224.995 45.8577 225.15 46.0987C225.305 46.3397 225.502 46.5256 225.748 46.6495C225.995 46.7734 226.269 46.8354 226.558 46.8354C226.938 46.8354 227.262 46.7459 227.522 46.56C227.783 46.381 227.959 46.1331 228.043 45.8233H228.67C228.557 46.2639 228.318 46.622 227.945 46.9042C227.579 47.1796 227.114 47.3242 226.558 47.3242C226.121 47.3242 225.734 47.2278 225.389 47.0419C225.044 46.8492 224.777 46.5806 224.579 46.2295C224.382 45.8784 224.291 45.4721 224.291 45.0039C224.291 44.5358 224.389 44.1226 224.579 43.7715C224.769 43.4204 225.037 43.1518 225.382 42.959C225.727 42.7731 226.114 42.6768 226.558 42.6768C227.001 42.6768 227.382 42.7731 227.712 42.959C228.043 43.1449 228.297 43.3997 228.473 43.7164C228.649 44.0331 228.74 44.3843 228.74 44.7698C228.74 44.9695 228.733 45.121 228.726 45.2243ZM227.938 43.8954C227.797 43.6613 227.6 43.4823 227.353 43.3584C227.107 43.2345 226.832 43.1794 226.544 43.1794C226.107 43.1794 225.727 43.3171 225.417 43.5925C225.107 43.8679 224.938 44.2535 224.903 44.7561H228.149C228.149 44.4187 228.079 44.1295 227.938 43.8954Z" fill="#939598"/>
<path d="M231.613 43.7715C231.803 43.4204 232.071 43.1518 232.409 42.959C232.747 42.7663 233.134 42.6768 233.563 42.6768C234.134 42.6768 234.598 42.8145 234.971 43.0899C235.345 43.3653 235.577 43.7371 235.683 44.2121H235.049C234.971 43.8885 234.802 43.6338 234.535 43.4479C234.274 43.262 233.951 43.1725 233.556 43.1725C233.246 43.1725 232.965 43.2413 232.718 43.379C232.472 43.5167 232.275 43.7233 232.134 43.9918C231.993 44.2672 231.916 44.5977 231.916 44.9971C231.916 45.3964 231.986 45.7269 232.134 46.0023C232.275 46.2777 232.472 46.4842 232.718 46.622C232.965 46.7597 233.246 46.8285 233.556 46.8285C233.943 46.8285 234.267 46.739 234.535 46.5531C234.795 46.3672 234.964 46.1125 235.049 45.782H235.683C235.577 46.2433 235.338 46.6151 234.964 46.8974C234.591 47.1797 234.127 47.3174 233.563 47.3174C233.127 47.3174 232.747 47.221 232.409 47.0351C232.071 46.8423 231.803 46.5738 231.613 46.2226C231.423 45.8715 231.324 45.4652 231.324 44.9971C231.331 44.5289 231.423 44.1226 231.613 43.7715Z" fill="#939598"/>
<path d="M239.323 43.2342V46.0364C239.323 46.3118 239.379 46.5046 239.484 46.6079C239.59 46.7112 239.78 46.7663 240.048 46.7663H240.59V47.262H239.956C239.541 47.262 239.231 47.1656 239.027 46.9797C238.823 46.7938 238.724 46.4771 238.724 46.0433V43.2411H238.083V42.7522H238.724V41.623H239.323V42.7522H240.59V43.2411H239.323V43.2342Z" fill="#939598"/>
<path d="M243.871 46.2983L242.991 48.4603H242.582L243.209 46.2983H243.871Z" fill="#939598"/>
<path d="M250.651 41.7679C250.567 41.6852 250.524 41.582 250.524 41.4649C250.524 41.3479 250.567 41.2446 250.651 41.162C250.735 41.0793 250.834 41.0449 250.954 41.0449C251.073 41.0449 251.172 41.0862 251.256 41.162C251.341 41.2446 251.383 41.341 251.383 41.4649C251.383 41.5888 251.341 41.6852 251.256 41.7679C251.172 41.8505 251.073 41.8918 250.954 41.8918C250.834 41.8918 250.735 41.8505 250.651 41.7679ZM251.249 42.7456V47.2553H250.658V42.7456H251.249Z" fill="#939598"/>
<path d="M257.882 43.1585C258.234 43.489 258.403 43.9778 258.403 44.6113V47.2552H257.818V44.6801C257.818 44.1913 257.692 43.8126 257.445 43.5578C257.192 43.2962 256.854 43.1723 256.417 43.1723C255.974 43.1723 255.615 43.31 255.354 43.5854C255.094 43.8608 254.96 44.267 254.96 44.7972V47.262H254.368V42.7523H254.96V43.5234C255.108 43.248 255.319 43.0346 255.594 42.89C255.868 42.7454 256.185 42.6696 256.53 42.6696C257.079 42.6628 257.53 42.828 257.882 43.1585Z" fill="#939598"/>
<path d="M261.782 46.9593C261.444 46.7183 261.261 46.3947 261.219 45.9816H261.825C261.853 46.2363 261.972 46.4429 262.191 46.5944C262.409 46.7527 262.698 46.8285 263.064 46.8285C263.388 46.8285 263.634 46.7527 263.817 46.6081C264 46.4567 264.092 46.2776 264.092 46.0573C264.092 45.9058 264.042 45.775 263.937 45.6786C263.838 45.5822 263.704 45.4996 263.55 45.4445C263.395 45.3895 263.183 45.3275 262.923 45.2586C262.578 45.1691 262.303 45.0796 262.085 44.997C261.874 44.9075 261.691 44.7767 261.543 44.6046C261.395 44.4324 261.318 44.1983 261.318 43.9092C261.318 43.6888 261.388 43.4823 261.522 43.2964C261.656 43.1105 261.846 42.959 262.099 42.8488C262.346 42.7387 262.627 42.6836 262.944 42.6836C263.437 42.6836 263.838 42.8075 264.141 43.0485C264.444 43.2964 264.606 43.6337 264.634 44.0606H264.042C264.028 43.799 263.923 43.5855 263.726 43.4203C263.528 43.2551 263.268 43.1793 262.93 43.1793C262.634 43.1793 262.388 43.2482 262.205 43.3859C262.022 43.5236 261.923 43.6957 261.923 43.8954C261.923 44.0744 261.979 44.219 262.085 44.3291C262.198 44.4393 262.331 44.5288 262.493 44.5908C262.655 44.6527 262.874 44.7216 263.155 44.8042C263.486 44.8937 263.754 44.9763 263.951 45.059C264.148 45.1416 264.317 45.2655 264.458 45.4239C264.599 45.5822 264.669 45.7957 264.676 46.0573C264.676 46.2983 264.606 46.5186 264.472 46.7045C264.338 46.8973 264.148 47.0419 263.909 47.1521C263.669 47.2622 263.388 47.3173 263.071 47.3173C262.55 47.3173 262.113 47.2003 261.782 46.9593Z" fill="#939598"/>
<path d="M268.851 42.9797C269.168 42.78 269.548 42.6768 269.985 42.6768C270.4 42.6768 270.78 42.7731 271.111 42.959C271.449 43.1518 271.71 43.4204 271.9 43.7715C272.09 44.1226 272.181 44.5289 272.181 44.9902C272.181 45.4515 272.09 45.8577 271.9 46.2157C271.71 46.5669 271.449 46.8423 271.111 47.0351C270.773 47.2278 270.4 47.3242 269.985 47.3242C269.548 47.3242 269.175 47.221 268.851 47.0213C268.527 46.8216 268.295 46.5669 268.147 46.2639V49.3898H267.563V42.7456H268.147V43.7371C268.302 43.4341 268.534 43.1794 268.851 42.9797ZM271.365 44.0194C271.217 43.744 271.013 43.5374 270.752 43.3928C270.492 43.2482 270.203 43.1794 269.872 43.1794C269.555 43.1794 269.267 43.2551 269.006 43.3997C268.746 43.5443 268.534 43.7577 268.386 44.0331C268.239 44.3085 268.161 44.6253 268.161 44.9902C268.161 45.3551 268.239 45.6718 268.386 45.9472C268.534 46.2226 268.746 46.4361 269.006 46.5806C269.267 46.7252 269.555 46.801 269.872 46.801C270.196 46.801 270.492 46.7252 270.752 46.5806C271.013 46.4361 271.217 46.2226 271.365 45.9472C271.513 45.6718 271.59 45.3482 271.59 44.9764C271.583 44.6184 271.513 44.2948 271.365 44.0194Z" fill="#939598"/>
<path d="M275.04 41.7679C274.955 41.6852 274.913 41.582 274.913 41.4649C274.913 41.3479 274.955 41.2446 275.04 41.162C275.124 41.0793 275.223 41.0449 275.343 41.0449C275.462 41.0449 275.561 41.0862 275.645 41.162C275.73 41.2446 275.772 41.341 275.772 41.4649C275.772 41.5888 275.73 41.6852 275.645 41.7679C275.561 41.8505 275.462 41.8918 275.343 41.8918C275.223 41.8918 275.124 41.8505 275.04 41.7679ZM275.638 42.7456V47.2553H275.047V42.7456H275.638Z" fill="#939598"/>
<path d="M279.947 42.8903C280.215 42.7389 280.546 42.6562 280.933 42.6562V43.2621H280.771C280.342 43.2621 279.997 43.3723 279.743 43.5995C279.483 43.8267 279.356 44.2054 279.356 44.7287V47.2486H278.764V42.7389H279.356V43.5375C279.483 43.2621 279.68 43.0487 279.947 42.8903Z" fill="#939598"/>
<path d="M287.748 45.2243H283.918C283.932 45.5685 284.017 45.8577 284.172 46.0987C284.327 46.3397 284.524 46.5256 284.77 46.6495C285.017 46.7734 285.291 46.8354 285.58 46.8354C285.96 46.8354 286.284 46.7459 286.544 46.56C286.805 46.381 286.981 46.1331 287.065 45.8233H287.692C287.579 46.2639 287.34 46.622 286.967 46.9042C286.601 47.1796 286.136 47.3242 285.58 47.3242C285.143 47.3242 284.756 47.2278 284.411 47.0419C284.066 46.8492 283.798 46.5806 283.601 46.2295C283.404 45.8784 283.313 45.4721 283.313 45.0039C283.313 44.5358 283.411 44.1226 283.601 43.7715C283.791 43.4204 284.059 43.1518 284.404 42.959C284.749 42.7731 285.136 42.6768 285.58 42.6768C286.023 42.6768 286.404 42.7731 286.734 42.959C287.065 43.1449 287.319 43.3997 287.495 43.7164C287.671 44.0331 287.762 44.3843 287.762 44.7698C287.762 44.9695 287.762 45.121 287.748 45.2243ZM286.96 43.8954C286.819 43.6613 286.622 43.4823 286.375 43.3584C286.129 43.2345 285.854 43.1794 285.566 43.1794C285.129 43.1794 284.749 43.3171 284.439 43.5925C284.129 43.8679 283.96 44.2535 283.925 44.7561H287.171C287.171 44.4187 287.101 44.1295 286.96 43.8954Z" fill="#939598"/>
<path d="M110.936 45.0111C110.028 44.357 109.295 43.4482 108.873 42.4429C108.436 41.7475 108.183 41.0246 107.936 40.3292L107.81 39.9574C107.746 39.7646 107.697 39.6132 107.648 39.4617C107.486 39.0004 107.317 38.5253 107.211 38.0089C106.69 36.4116 106.282 34.7798 105.895 33.2031C105.571 31.8811 105.24 30.5179 104.839 29.2166L104.761 29.01C104.648 28.6795 104.536 28.3559 104.402 28.0874C104.163 28.5556 103.98 29.072 103.782 29.6159L103.663 29.9533C103.311 30.9929 102.966 32.0739 102.635 33.1549C102.36 34.0224 102.093 34.8899 101.811 35.7575L101.663 36.1981L101.642 36.2119C101.051 38.1673 100.354 40.0882 99.5581 41.9128C99.0652 43.0282 98.3753 44.4603 97.3121 45.7341C96.7066 46.4157 96.0096 47.1455 95.0098 47.5311C94.4114 47.8065 93.7214 47.958 93.0243 47.958C91.926 47.958 90.8136 47.593 89.9617 46.9596C88.4057 45.9681 87.5115 44.4534 86.6596 42.8561C86.0048 41.4997 85.4063 40.0538 84.8572 38.5184C84.5826 37.8437 84.3432 37.162 84.1038 36.5011C83.8011 35.6473 83.5124 34.8417 83.1604 34.0499L83.1252 33.9742C83.0759 33.864 83.0195 33.747 82.9632 33.6368C82.4563 34.2909 82.1254 35.124 81.8226 35.9158C81.7733 36.0604 81.717 36.2188 81.6677 36.3702C81.1819 37.8024 80.7877 39.3515 80.4286 41.2518C80.2807 42.0161 79.8372 42.677 79.2105 43.0902C82.2873 49.2937 88.7929 53.5762 96.3194 53.5762C102.825 53.5762 108.577 50.3746 111.999 45.4931C111.661 45.3967 111.323 45.2452 111.013 45.0593L110.936 45.0111Z" fill="url(#paint0_linear_141_65)"/>
<path d="M77.9573 31.3509L77.9855 31.3302C78.7881 29.9394 79.8372 28.8929 81.0482 28.2801L81.1679 28.2181C81.2664 28.1768 81.372 28.1286 81.4776 28.0873C81.6185 28.0323 81.8578 27.9427 82.1536 27.9083C82.4845 27.8188 82.8295 27.7775 83.1744 27.7775C84.2517 27.7775 85.35 28.2113 86.1949 28.9549C87.2721 29.9188 87.9199 31.1168 88.5254 32.3768C89.159 33.7951 89.7152 35.2066 90.2151 36.6318L90.2785 36.8315V36.8452C90.4334 37.2239 90.5953 37.6026 90.7432 37.9813C91.3064 39.3928 91.8415 40.7216 92.6301 41.899C92.6794 41.9471 92.7286 41.9885 92.7779 42.0435C92.8413 42.1124 92.9328 42.2019 93.0103 42.2708C93.0384 42.2432 93.13 42.1537 93.1511 42.1262C93.2426 41.954 93.3271 41.8026 93.4116 41.6786C93.4468 41.6167 93.489 41.5616 93.5242 41.4996C94.003 40.6459 94.355 39.7439 94.7212 38.78C94.8831 38.3531 95.0521 37.9331 95.2281 37.5131C95.4886 36.6731 95.7632 35.8331 96.0448 35C96.2912 34.2771 96.5306 33.5541 96.7559 32.8312L97.0868 31.8329C97.8472 29.5263 98.6358 27.1372 99.9594 24.9615C100.495 24.1421 101.149 23.2677 102.128 22.6825C102.219 22.6205 102.311 22.5586 102.417 22.5104C102.952 22.2143 103.628 22.049 104.325 22.049C105.134 22.049 105.909 22.2694 106.564 22.6825C107.965 23.5294 108.774 24.9064 109.436 26.2696C110.344 28.1975 110.922 30.208 111.478 32.1496L111.71 32.9483L111.717 33.0102C111.746 33.1204 111.753 33.2168 111.767 33.32C111.95 33.802 112.069 34.2702 112.189 34.7315C112.252 34.9863 112.316 35.2341 112.393 35.4889C112.534 36.0053 112.668 36.4735 112.802 36.9416C112.978 37.5544 113.168 38.1879 113.316 38.8351L113.365 38.9521L113.435 39.1518C113.872 38.8764 114.386 38.7111 114.921 38.6905C114.935 38.656 114.942 38.6147 114.949 38.5734C114.745 38.3324 114.59 38.057 114.484 37.7541C114.231 37.0725 114.273 36.3013 114.597 35.6128C114.766 35.2617 115.005 34.9518 115.294 34.6971C115.146 24.5828 106.704 16.417 96.3123 16.417C86.8426 16.417 78.9923 23.1989 77.549 32.0669C77.6334 31.9155 77.7179 31.7571 77.8095 31.6056L77.9573 31.3509Z" fill="url(#paint1_linear_141_65)"/>
<path d="M118.779 36.3289C118.652 35.9089 118.336 35.5785 117.934 35.3857C117.54 35.1998 117.068 35.1516 116.653 35.3237C115.836 35.5922 115.364 36.5561 115.674 37.3411C115.921 38.0915 116.815 38.5735 117.596 38.3669C118.321 38.2224 118.85 37.5201 118.842 36.804C118.857 36.6525 118.842 36.4873 118.779 36.3289Z" fill="url(#paint2_linear_141_65)"/>
<path d="M115.815 40.1364C115.695 40.0676 115.562 40.0263 115.428 39.9918C115.414 39.9918 115.4 39.9781 115.393 39.9781C115.371 39.9781 115.357 39.9712 115.336 39.9712C115.097 39.9299 114.857 39.9299 114.618 39.9918C114.407 40.04 114.224 40.1364 114.048 40.2604C113.858 40.3843 113.731 40.5771 113.611 40.7699L113.513 40.8663V40.8594C113.027 41.3482 112.851 40.9351 112.816 40.8112C112.816 40.8043 112.809 40.7905 112.809 40.7836V40.7768C112.295 38.9246 110.408 32.8519 110.091 31.8192C109.718 30.5385 109.331 29.2579 108.838 28.0186C108.831 27.9979 108.824 27.9841 108.817 27.9635C108.662 27.571 108.5 27.1855 108.317 26.8068C107.746 25.6363 107.056 24.4176 105.895 23.7222C105.789 23.6534 105.676 23.5983 105.564 23.5432C104.761 23.1783 103.783 23.1921 103.008 23.6189C102.959 23.6396 102.909 23.674 102.86 23.7084C102.093 24.1491 101.544 24.872 101.065 25.5881C100.523 26.4763 100.079 27.3989 99.6848 28.349C99.03 29.9326 98.5161 31.5713 97.9739 33.1962C97.7909 33.7814 97.5937 34.3598 97.4037 34.9381C97.2699 35.3375 97.1431 35.7368 97.0164 36.1293C96.8193 36.7283 96.6221 37.3204 96.432 37.9194C96.3687 38.0709 96.3123 38.2292 96.249 38.3807C95.8406 39.4135 95.4604 40.4531 94.9676 41.4515C94.862 41.6581 94.7634 41.8715 94.6507 42.0712C94.5592 42.2364 94.4606 42.4016 94.3691 42.5669C94.3691 42.5738 94.3621 42.5738 94.3621 42.5807C94.348 42.5944 94.341 42.6082 94.3269 42.6289C93.0244 44.4052 91.7148 42.7184 91.3487 42.1744C90.884 41.4171 90.5038 40.6184 90.1588 39.8059L89.4547 38.0089L88.5746 35.785C88.2085 34.8211 87.8283 33.8641 87.4129 32.9208C86.8778 31.826 86.2935 30.7038 85.3641 29.8707C85.2303 29.7536 85.0825 29.6435 84.9276 29.5471C84.8924 29.5264 84.8642 29.5058 84.829 29.4851C84.6741 29.3956 84.5122 29.3061 84.3362 29.2441C84.3291 29.2372 84.315 29.2372 84.308 29.2372C84.1461 29.1753 83.9771 29.1271 83.8081 29.0926C83.7729 29.0858 83.7377 29.0789 83.6955 29.072C83.5124 29.0444 83.3364 29.0238 83.1533 29.0238C83.1463 29.0238 83.1463 29.0238 83.1392 29.0238C83.1252 29.0238 83.1181 29.0238 83.104 29.0238C80.4004 29.0582 78.9712 32.1152 78.9078 32.2529C78.5417 32.8726 78.2319 33.5129 77.9432 34.167C77.9291 34.1945 77.9221 34.2152 77.9151 34.2427C77.7954 34.525 77.6757 34.8073 77.5701 35.0965C77.5419 35.1653 77.5137 35.2342 77.4926 35.3099C77.4504 35.427 77.4011 35.544 77.3589 35.6611C77.3589 35.668 77.3589 35.668 77.3589 35.668C77.3307 35.7368 77.3096 35.8126 77.2884 35.8883C77.204 36.1293 77.1195 36.3771 77.042 36.625C77.0068 36.7352 76.9716 36.8522 76.9364 36.9624C76.8449 37.2584 76.7604 37.5614 76.6829 37.8574C76.6689 37.9194 76.6477 37.9814 76.6337 38.0433C76.4295 38.8076 76.2464 39.5718 76.0845 40.343C76.0774 40.3636 76.0845 40.3774 76.0774 40.3981C76.0211 40.4876 76.007 40.5909 76 40.701C76 40.7286 76 40.7492 76 40.7768C76 40.9076 76.0211 41.0315 76.0493 41.1554V41.1623C76.0493 41.1692 76.0493 41.1692 76.0563 41.1761C76.1619 41.5617 76.4013 41.9059 76.7604 42.1125C77.1335 42.3879 77.6053 42.3328 78.0418 42.3121L78.07 42.2639C78.2037 42.2295 78.3234 42.1676 78.4431 42.0987C78.4713 42.0849 78.4924 42.0643 78.5206 42.0436C78.5698 42.0092 78.6262 41.9748 78.6755 41.9335C78.7107 41.899 78.7388 41.8646 78.774 41.8302C78.7881 41.8164 78.8022 41.8026 78.8092 41.7889C78.8937 41.6925 78.9641 41.5823 79.0204 41.4722C79.0275 41.4515 79.0345 41.4377 79.0486 41.4171C79.1049 41.3 79.1542 41.1692 79.1753 41.0384C79.4922 39.3446 79.8865 37.644 80.4497 36.0053C80.499 35.8401 80.5624 35.668 80.6257 35.5027C80.6961 35.3237 80.7665 35.1378 80.8369 34.9588C81.0974 34.3254 81.3932 33.7057 81.7874 33.1411C81.8015 33.1205 81.8226 33.0929 81.8367 33.0723C82.1043 32.7418 82.4845 32.3769 82.9491 32.3218C83.273 32.2942 83.6462 32.4044 83.956 32.8795C84.0897 33.0998 84.1953 33.3339 84.308 33.5611C84.308 33.5611 84.308 33.5611 84.308 33.568C84.3432 33.6575 84.3784 33.7401 84.4136 33.8296C85.0121 35.2342 85.4627 36.6939 86.04 38.0915C86.4836 39.3446 86.9905 40.5771 87.5537 41.782C87.6312 41.9472 87.7016 42.1262 87.779 42.2915C88.5113 43.6685 89.321 45.1075 90.6939 45.9613C90.7784 46.0301 90.8769 46.0852 90.9685 46.1403C91.0178 46.1678 91.06 46.2023 91.1093 46.2298C91.1163 46.2367 91.1234 46.2367 91.1304 46.2436C92.1443 46.8013 93.4609 46.9183 94.5099 46.4088C94.6648 46.3537 94.8127 46.2711 94.9535 46.1885C95.4886 45.8787 95.9321 45.4242 96.3335 44.9698C97.0235 44.1298 97.5585 43.2003 98.0232 42.2364C98.15 41.9748 98.2767 41.7062 98.3964 41.4377C98.6358 40.8731 98.8681 40.3086 99.0934 39.7371C99.6496 38.3187 100.142 36.8729 100.572 35.4063L100.607 35.3857C101.241 33.4372 101.818 31.4818 102.466 29.5471C102.48 29.5126 102.494 29.4782 102.508 29.4369C102.776 28.7002 103.036 27.9566 103.43 27.275C103.55 27.0891 103.761 26.91 103.783 26.8894C104.12 26.6346 104.663 26.3799 105.134 26.9169C105.585 27.4746 105.803 28.1976 106.043 28.8654C106.162 29.2579 106.282 29.6572 106.388 30.0566C106.43 30.2149 106.472 30.3802 106.514 30.5385C106.578 30.7657 106.634 30.9861 106.69 31.2133C106.768 31.5231 106.852 31.8398 106.93 32.1496C106.937 32.1634 106.937 32.1841 106.944 32.1978C107.085 32.7624 107.225 33.327 107.366 33.8916L107.359 33.8847L107.401 34.0431C107.542 34.6076 107.69 35.1791 107.845 35.7368L108.704 39.0141C108.753 39.2345 108.824 39.5099 108.915 39.8197V39.8335C109.464 41.7062 110.809 44.8459 113.541 44.357C113.59 44.3501 113.632 44.3364 113.675 44.3295C113.682 44.3295 113.682 44.3295 113.689 44.3295C113.787 44.3157 113.879 44.2882 113.97 44.2675C113.977 44.2675 113.984 44.2675 113.991 44.2606C114.076 44.24 114.153 44.2193 114.224 44.1918C114.231 44.1918 114.238 44.1849 114.238 44.1849C114.28 44.1711 114.315 44.1574 114.358 44.1436H114.365C114.463 44.1023 114.555 44.061 114.632 44.0197C115.055 43.8131 115.435 43.5308 115.759 43.1866C115.773 43.1728 115.787 43.1521 115.801 43.1384C115.935 42.9869 116.061 42.8285 116.174 42.6633C116.195 42.6289 116.216 42.6013 116.237 42.5669C116.357 42.3741 116.463 42.1813 116.547 41.9748C116.589 41.8646 116.611 41.7407 116.618 41.6236C116.618 41.6099 116.618 41.5892 116.618 41.5754C116.653 41.004 116.336 40.4118 115.815 40.1364Z" fill="url(#paint3_linear_141_65)"/>
<path d="M128.157 60C128.344 60 128.495 48.8071 128.495 35C128.495 21.1929 128.344 10 128.157 10C127.971 10 127.819 21.1929 127.819 35C127.819 48.8071 127.971 60 128.157 60Z" fill="url(#paint4_linear_141_65)"/>
<path d="M126.496 53.2799C126.682 53.2799 126.834 45.0956 126.834 34.9998C126.834 24.904 126.682 16.7197 126.496 16.7197C126.309 16.7197 126.158 24.904 126.158 34.9998C126.158 45.0956 126.309 53.2799 126.496 53.2799Z" fill="url(#paint5_linear_141_65)"/>
<path d="M129.819 53.2799C130.006 53.2799 130.157 45.0956 130.157 34.9998C130.157 24.904 130.006 16.7197 129.819 16.7197C129.632 16.7197 129.481 24.904 129.481 34.9998C129.481 45.0956 129.632 53.2799 129.819 53.2799Z" fill="url(#paint6_linear_141_65)"/>
</g>
<defs>
<linearGradient id="paint0_linear_141_65" x1="79.2046" y1="40.8355" x2="111.995" y2="40.8355" gradientUnits="userSpaceOnUse">
<stop stop-color="#2666EC"/>
<stop offset="1" stop-color="#91B2F5"/>
</linearGradient>
<linearGradient id="paint1_linear_141_65" x1="77.552" y1="29.3448" x2="115.307" y2="29.3448" gradientUnits="userSpaceOnUse">
<stop stop-color="#2666EC"/>
<stop offset="1" stop-color="#91B2F5"/>
</linearGradient>
<linearGradient id="paint2_linear_141_65" x1="113.626" y1="39.2495" x2="119.147" y2="35.361" gradientUnits="userSpaceOnUse">
<stop stop-color="#2666EC"/>
<stop offset="1" stop-color="#91B2F5"/>
</linearGradient>
<linearGradient id="paint3_linear_141_65" x1="76" y1="35.0031" x2="116.626" y2="35.0031" gradientUnits="userSpaceOnUse">
<stop stop-color="#2666EC"/>
<stop offset="1" stop-color="#91B2F5"/>
</linearGradient>
<linearGradient id="paint4_linear_141_65" x1="127.981" y1="-8.94506" x2="128.324" y2="81.0488" gradientUnits="userSpaceOnUse">
<stop stop-color="#2666EC"/>
<stop offset="1" stop-color="#91B2F5"/>
</linearGradient>
<linearGradient id="paint5_linear_141_65" x1="126.367" y1="2.86521" x2="126.617" y2="68.6732" gradientUnits="userSpaceOnUse">
<stop stop-color="#2666EC"/>
<stop offset="1" stop-color="#91B2F5"/>
</linearGradient>
<linearGradient id="paint6_linear_141_65" x1="129.69" y1="2.86521" x2="129.941" y2="68.6732" gradientUnits="userSpaceOnUse">
<stop stop-color="#2666EC"/>
<stop offset="1" stop-color="#91B2F5"/>
</linearGradient>
<clipPath id="clip0_141_65">
<rect width="211.762" height="50" fill="white" transform="translate(76 10)"/>
</clipPath>
</defs>
</svg>
