<svg width="266" height="70" viewBox="0 0 266 70" fill="none" xmlns="http://www.w3.org/2000/svg">
<rect width="266" height="70" fill="#0B152A"/>
<path d="M102.206 24.8098H101.209C100.235 24.8098 99.8073 25.0949 99.166 26.1637L93.8453 34.7861L91.6363 26.2587C91.375 25.2374 91.09 24.8336 89.9736 24.8336H89.1423C88.0496 24.8336 87.3608 25.4749 87.147 26.615L84.6767 40.4868C84.4867 41.5319 84.9617 42.0782 85.8643 42.0782H86.2444C87.1945 42.0782 87.6221 41.6032 87.7883 40.5818L89.7836 29.3704L91.7076 36.8763C91.8738 37.6364 92.0164 38.1352 93.4653 38.1352C94.6767 38.1352 94.9617 37.7077 95.3893 37.0188L100.092 29.2991L98.0971 40.5105C97.9071 41.5794 98.3822 42.102 99.261 42.102H99.6648C100.615 42.102 101.042 41.6032 101.209 40.6055L103.655 26.6388C103.869 25.5224 103.323 24.8098 102.206 24.8098Z" fill="white"/>
<path d="M117.052 34.7385C116.933 31.3656 114.653 28.8953 110.805 28.8953C106.411 28.8953 103.727 32.482 103.846 36.4012C103.988 39.9879 106.458 42.2919 110.093 42.2919C114.606 42.2682 117.171 38.6577 117.052 34.7385ZM110.116 39.8216C108.05 39.8216 106.743 38.3252 106.672 36.2824C106.577 33.6459 108.311 31.3181 110.781 31.3181C112.682 31.3181 114.178 32.8145 114.249 34.881C114.321 37.6601 112.587 39.8216 110.116 39.8216Z" fill="white"/>
<path d="M126.862 28.8953C125.033 28.8953 123.584 29.7979 122.61 31.3181C122.705 29.5841 121.755 29.0853 120.781 29.0853C120.33 29.0853 119.973 29.2041 119.95 29.2516L117.954 40.5342C117.764 41.6981 118.406 42.0307 119.261 42.0307H119.617C120.544 42.0307 120.924 41.6506 121.114 40.5342L122.301 33.7646C123.156 32.2682 124.106 31.5556 125.579 31.5556C127.052 31.5556 127.931 32.4345 127.954 33.8834C127.978 34.2634 127.883 34.7385 127.812 35.3086L126.886 40.5342C126.696 41.6981 127.361 42.0307 128.192 42.0307H128.548C129.475 42.0307 129.855 41.6506 130.045 40.5342L131.066 34.7622C131.185 34.1209 131.256 33.5508 131.232 33.0283C131.161 30.6055 129.546 28.8953 126.862 28.8953Z" fill="white"/>
<path d="M183.061 28.8953C181.565 28.8953 180.449 29.7504 179.688 31.3181C179.807 29.5841 178.857 29.0853 177.883 29.0853C177.408 29.0853 177.076 29.2041 177.052 29.2516L175.033 40.5342C174.843 41.6981 175.603 42.0307 176.458 42.0307H176.814C177.622 42.0307 178.002 41.6506 178.216 40.5342L178.881 36.7575C179.38 33.8121 180.472 31.7694 182.23 31.7694C183.085 31.7694 183.631 32.1257 183.988 32.5295C184.035 32.577 185.365 32.0544 185.318 30.4867C185.247 29.5128 184.273 28.8953 183.061 28.8953Z" fill="white"/>
<path d="M198.406 29.0854C197.171 29.0854 196.482 29.6792 196.078 31.2469C195.294 29.7742 193.679 28.8716 191.803 28.8716C187.812 28.8716 185.033 32.4345 185.033 36.4725C185.033 39.7979 187.076 42.2683 190.306 42.2683C192.278 42.2683 193.798 41.4607 194.772 39.8217C194.629 41.5319 194.962 42.0545 196.197 42.0545C197.29 42.0545 197.646 41.6507 197.765 40.4393C197.907 38.2065 198.667 34.5723 199.546 29.4654C199.546 29.3704 199.047 29.0854 198.406 29.0854ZM190.995 39.8217C189.047 39.8217 187.931 38.5865 187.931 36.4013C187.931 33.836 189.428 31.2706 192.207 31.2706C194.463 31.2706 195.413 32.9333 195.413 34.7623C195.413 37.0664 193.846 39.8217 190.995 39.8217Z" fill="white"/>
<path d="M217.361 28.8953C215.175 28.8953 213.726 30.0117 212.705 31.6506C212.206 29.9166 210.71 28.8953 208.81 28.8953C207.147 28.8953 205.698 29.6791 204.7 31.1755C204.748 29.5841 203.822 29.109 202.871 29.109C202.396 29.109 202.064 29.2278 202.04 29.2753L200.045 40.558C199.855 41.7219 200.496 42.0544 201.351 42.0544H201.707C202.515 42.0544 203.014 41.7219 203.204 40.558L204.439 33.5508C205.342 32.1494 206.197 31.5556 207.527 31.5556C208.833 31.5556 209.641 32.5295 209.641 34.0022C209.641 34.2397 209.617 34.501 209.57 34.786L208.572 40.558C208.382 41.7219 209.047 42.0544 209.879 42.0544H210.211C211.019 42.0544 211.541 41.6981 211.731 40.558L212.966 33.5508C213.869 32.1494 214.724 31.5556 216.054 31.5556C217.313 31.5556 218.24 32.3157 218.24 33.8834C218.24 34.2634 218.168 34.7385 218.073 35.3086L217.147 40.5342C216.957 41.6981 217.598 42.0307 218.453 42.0307H218.81C219.736 42.0307 220.116 41.6506 220.306 40.5342L221.327 34.7622C221.446 34.1209 221.494 33.5508 221.494 33.0283C221.517 30.4867 219.807 28.8953 217.361 28.8953Z" fill="white"/>
<path d="M145.651 34.5486C145.651 32.7909 145.294 31.627 144.51 30.6056C143.655 29.513 142.064 28.8479 140.211 28.8479C134.605 28.8479 132.586 32.9809 132.586 36.5676C132.586 39.988 135.057 42.2683 138.857 42.2683C142.658 42.2683 144.795 40.5819 144.795 39.2279C144.795 38.3253 144.154 38.0165 143.418 37.9453C142.42 39.2279 141.042 39.8455 139.166 39.8455C137.503 39.8455 135.532 39.2042 135.389 36.2351H144.012C144.938 36.2588 145.651 35.7363 145.651 34.5486ZM142.871 34.1448H135.674C136.363 32.3158 137.955 31.1757 139.974 31.1757C140.995 31.1757 141.779 31.4607 142.301 32.0308C142.753 32.5534 142.919 33.266 142.871 34.1448Z" fill="white"/>
<path d="M172.42 32.8145H167.29C166.672 32.8145 166.387 32.9571 166.197 33.1471C165.888 33.4796 165.722 34.2397 165.722 34.5723C165.746 35.0948 166.197 35.4036 167.028 35.4036H170.663C170.164 37.9452 168.549 39.7029 165.769 39.7029C162.848 39.7029 160.9 37.8502 160.781 34.691C160.639 30.7243 163.275 27.4464 167.005 27.4464C169.19 27.4464 170.9 28.6103 171.589 30.1542C171.684 30.273 173.703 30.273 173.632 28.539C173.608 27.9214 173.252 27.1851 172.587 26.5675C171.518 25.4986 169.499 24.5723 166.815 24.5723C163.062 24.5723 160.092 26.6388 158.549 29.6316C158.549 29.6079 158.525 29.6079 158.525 29.6079C158.216 29.2041 157.717 29.0141 157.218 29.0141C156.387 29.0141 155.841 29.2754 155.033 30.7005L151.043 37.7077L149.546 30.7243C149.261 29.4179 148.786 29.0141 147.955 29.0141C146.981 29.0141 146.197 29.7267 146.221 29.8929L149.071 41.1756L146.126 46.0212C145.817 46.5438 145.793 47.2326 146.91 47.2326H147.527C148.691 47.2326 149.071 46.52 149.641 45.5461L157.67 31.9594C157.432 32.9096 157.313 33.9309 157.361 34.9761C157.503 39.5366 160.591 42.292 165.104 42.292C167.242 42.292 168.952 41.4844 169.902 40.2492C169.831 41.5794 170.544 42.102 171.494 42.102C172.016 42.102 172.396 41.9357 172.396 41.8407L173.703 34.5248C173.917 33.3846 173.489 32.8145 172.42 32.8145Z" fill="white"/>
<path d="M224.89 40.653C224.985 40.8193 225.057 40.8906 225.175 40.8906C225.175 40.8906 225.199 41.0806 224.962 41.0806C224.819 41.0806 224.724 41.0093 224.582 40.7481L224.32 40.273H224.083L223.964 40.9381C223.94 41.0331 223.893 41.0806 223.798 41.0806H223.75C223.655 41.0806 223.608 41.0331 223.632 40.9143L223.964 39.2041C223.988 39.0853 224.059 39.0378 224.178 39.0378H224.677C225.128 39.0378 225.389 39.2279 225.389 39.5604C225.389 39.9642 225.128 40.2255 224.677 40.2492L224.89 40.653ZM224.582 40.0117C224.89 40.0117 225.057 39.8454 225.033 39.5842C225.033 39.3941 224.89 39.2754 224.629 39.2754H224.273L224.13 39.988H224.582V40.0117Z" fill="white"/>
<path d="M224.51 38.4916C225.437 38.4916 226.173 39.2517 226.173 40.1543C226.173 41.0807 225.413 41.817 224.51 41.817C223.584 41.817 222.848 41.0569 222.848 40.1543C222.824 39.2517 223.584 38.4916 224.51 38.4916ZM224.51 38.2065C223.441 38.2065 222.562 39.0854 222.562 40.1543C222.562 41.2232 223.441 42.102 224.51 42.102C225.579 42.102 226.458 41.2232 226.458 40.1543C226.458 39.0854 225.579 38.2065 224.51 38.2065Z" fill="white"/>
<path d="M59.1662 53.836C69.5691 53.836 78.0023 45.4028 78.0023 34.9999C78.0023 24.597 69.5691 16.1638 59.1662 16.1638C48.7633 16.1638 40.3301 24.597 40.3301 34.9999C40.3301 45.4028 48.7633 53.836 59.1662 53.836Z" fill="white"/>
<path d="M78.0023 34.9999C78.0023 45.4037 69.57 53.836 59.1662 53.836C48.7624 53.836 40.3301 45.4037 40.3301 34.9999C40.3301 32.1258 40.9714 29.418 42.1116 26.9952C41.3515 28.9192 40.9952 30.8432 40.9952 32.6246C40.9952 41.1519 47.8835 42.3871 50.8051 42.3633C55.2707 42.3158 60.4726 40.1306 64.8669 36.0926C64.8669 36.0926 64.2968 39.2755 64.1306 40.2493C63.9643 41.1994 64.5819 42.0308 65.532 42.0308H65.912C66.8859 42.0308 67.5985 41.2232 67.7648 40.2493L69.3562 31.3657C69.5462 30.3681 68.9049 29.5842 67.9073 29.5842H59.0237C58.026 29.5842 57.1234 30.1068 56.9572 31.1044C56.9572 31.1519 56.8859 31.437 56.8859 31.5082C56.7434 32.4584 57.4085 33.1709 58.3586 33.1709H62.9904C62.9192 33.2422 62.8479 33.3135 62.7766 33.3847C59.57 36.4013 55.6032 38.0641 52.3253 38.0641C49.0712 38.0641 45.4132 35.9975 45.4132 31.3657C45.4132 21.7458 54.4393 16.1638 59.1662 16.1638C69.5462 16.1638 78.0023 24.5961 78.0023 34.9999Z" fill="#DF2127"/>
</svg>
