<svg width="81" height="80" viewBox="0 0 81 80" fill="none" xmlns="http://www.w3.org/2000/svg">
<path d="M80.0177 23.7571V39.3856C80.0177 41.1114 78.6184 42.5113 76.892 42.5113C75.1655 42.5113 73.7663 41.1114 73.7663 39.3856V23.7571C73.7663 23.1888 73.6906 22.6277 73.5416 22.0881C73.0825 20.4239 74.0587 18.7029 75.7229 18.2432C77.3865 17.7841 79.1087 18.7603 79.5677 20.4245C79.8663 21.5057 80.0177 22.6271 80.0177 23.7571ZM76.892 51.8883C75.1655 51.8883 73.7663 53.2876 73.7663 55.014C73.7663 58.4608 70.9617 61.2654 67.5149 61.2654H12.5028C9.05595 61.2654 6.25138 58.4608 6.25138 55.014V23.7571C6.25138 20.3097 9.05595 17.5058 12.5028 17.5058H34.3826C36.109 17.5058 37.5083 16.1059 37.5083 14.3801C37.5083 12.6536 36.109 11.2544 34.3826 11.2544H12.5028C5.60854 11.2544 0 16.8629 0 23.7571V55.014C0 61.9076 5.60854 67.5168 12.5028 67.5168H36.8831V73.7486H25.9432C24.2168 73.7486 22.8175 75.1485 22.8175 76.8743C22.8175 78.6008 24.2168 80 25.9432 80H54.0744C55.8009 80 57.2001 78.6008 57.2001 76.8743C57.2001 75.1485 55.8009 73.7486 54.0744 73.7486H43.1345V67.5168H67.5149C74.4091 67.5168 80.0177 61.9076 80.0177 55.014C80.0177 53.2876 78.6184 51.8883 76.892 51.8883ZM37.1353 25.1655L54.8351 3.77959C56.3064 1.80284 58.4522 0.503725 60.8905 0.117287C63.3648 -0.274034 65.8428 0.32119 67.869 1.79307C69.8952 3.26556 71.2273 5.43889 71.6186 7.91258C72.0105 10.3869 71.4153 12.8648 69.9428 14.8911L69.8195 15.0498L50.7418 38.0462C51.0354 41.9576 49.6997 45.9697 46.7266 48.955C41.5595 54.1423 35.7531 54.8577 30.2478 54.8577C22.4976 54.8577 16.3317 50.2071 16.0735 50.0093C15.1791 49.3249 14.7219 48.2126 14.8769 47.0972C15.032 45.9819 15.775 45.0356 16.822 44.6211C20.5679 43.137 21.4391 40.6414 22.6454 37.1866C23.5574 34.5731 24.5916 31.611 27.1233 29.1954C29.8735 26.5715 33.4107 25.1332 37.0828 25.1643C37.1005 25.1637 37.1176 25.1655 37.1353 25.1655ZM42.2975 33.6623C40.8672 32.2264 39.0003 31.4279 37.0413 31.4151C37.0248 31.4151 37.0077 31.4151 36.9912 31.4151C34.9668 31.4151 32.9968 32.2319 31.4388 33.7178C29.9969 35.0939 29.3253 37.0181 28.547 39.2464C27.6447 41.8324 26.594 44.8427 24.0654 47.3103C25.8071 48.013 27.9566 48.6064 30.2478 48.6064C35.1884 48.6064 38.9277 47.9269 42.2982 44.543C45.2859 41.543 45.2859 36.6622 42.2975 33.6623ZM43.7554 26.9713C44.8268 27.5861 45.8268 28.3474 46.7272 29.2509C47.3261 29.8522 47.8548 30.4975 48.3212 31.1727L64.9338 11.1482C65.3892 10.4858 65.5705 9.68727 65.4441 8.89058C65.3135 8.06582 64.8697 7.34117 64.1945 6.85034C63.5187 6.35951 62.6933 6.16171 61.8679 6.29174C61.0437 6.42239 60.3191 6.86621 59.8283 7.54202L59.708 7.69769L43.7554 26.9713Z" fill="url(#paint0_linear_139_14)"/>
<defs>
<linearGradient id="paint0_linear_139_14" x1="0" y1="40.0002" x2="80.0177" y2="40.0002" gradientUnits="userSpaceOnUse">
<stop stop-color="#00F2FE"/>
<stop offset="0.0208" stop-color="#03EFFE"/>
<stop offset="0.2931" stop-color="#24D2FE"/>
<stop offset="0.5538" stop-color="#3CBDFE"/>
<stop offset="0.7956" stop-color="#4AB0FE"/>
<stop offset="1" stop-color="#4FACFE"/>
</linearGradient>
</defs>
</svg>
