<svg width="266" height="70" viewBox="0 0 266 70" fill="none" xmlns="http://www.w3.org/2000/svg">
<rect width="266" height="70" fill="#0B152A"/>
<path d="M168.355 24.6534H163.616C163.415 24.6534 163.263 24.8047 163.263 25.0063V39.6503C163.263 39.8519 163.415 40.0032 163.616 40.0032H168.33C168.531 40.0032 168.682 39.8519 168.682 39.6503V25.0063C168.682 24.8299 168.531 24.6534 168.355 24.6534ZM189.426 20.167H184.713C184.511 20.167 184.36 20.3182 184.36 20.5199V39.6503C184.36 39.8519 184.511 40.0032 184.713 40.0032H189.426C189.628 40.0032 189.779 39.8519 189.779 39.6503V20.5199C189.779 20.3182 189.602 20.167 189.426 20.167ZM165.986 17.1928C164.322 17.1928 162.986 18.5287 162.986 20.167C162.986 21.8053 164.322 23.1411 165.986 23.1411C167.649 23.1411 168.985 21.8053 168.985 20.167C168.96 18.5287 167.624 17.1928 165.986 17.1928ZM208.229 26.5942V25.0315C208.229 24.8299 208.078 24.6786 207.876 24.6786H203.163C202.961 24.6786 202.81 24.8299 202.81 25.0315V33.0214C202.81 34.6849 201.902 35.5671 200.617 35.5671C199.331 35.5671 198.5 34.6849 198.5 33.0214V25.0315C198.5 24.8299 198.348 24.6786 198.147 24.6786H193.434C193.232 24.6786 193.081 24.8299 193.081 25.0315V33.0214C193.081 36.172 193.534 37.6591 194.064 38.3648C194.996 39.5999 196.382 40.356 198.197 40.356C199.836 40.356 200.97 39.5999 201.978 38.8185C202.306 38.5665 202.785 38.4152 202.785 39.0958V40.4568C202.759 41.3642 202.154 42.1456 201.398 42.5488C201.373 42.5488 201.373 42.574 201.348 42.574C200.995 42.7505 200.566 42.8765 200.138 42.8513C200.138 42.8513 199.079 42.8513 198.525 42.7505C198.323 42.7253 198.122 42.8513 198.122 43.0529L197.769 47.1109C197.744 47.2873 197.87 47.4638 198.071 47.489C199.836 47.7662 201.701 47.7158 203.692 47.0353C206.817 45.9767 208.229 43.683 208.229 40.356V26.5942ZM180.982 24.6534H178.865C178.664 24.6534 178.512 24.5022 178.512 24.3006V20.4946C178.512 20.293 178.361 20.1418 178.159 20.1418H173.446C173.244 20.1418 173.093 20.293 173.093 20.4946V24.3006C173.093 24.5022 172.942 24.6534 172.74 24.6534H171.279C171.077 24.6534 170.926 24.8047 170.926 25.0063V29.0391C170.926 29.2407 171.077 29.3919 171.279 29.3919H172.74C172.942 29.3919 173.093 29.5432 173.093 29.7448V36.3737C173.093 38.5665 174.606 40.3308 177.076 40.3308C178.89 40.3308 180.428 40.0536 181.083 39.7511C181.234 39.6755 181.335 39.5747 181.335 39.4234V36.172C181.335 35.9704 181.134 35.7939 180.932 35.8192C180.151 35.9452 178.512 36.298 178.512 34.2313V29.7448C178.512 29.5432 178.664 29.3919 178.865 29.3919H180.982C181.184 29.3919 181.335 29.2407 181.335 29.0391V25.0063C181.335 24.8299 181.184 24.6534 180.982 24.6534ZM107.334 29.644C109.199 29.644 110.283 28.7366 110.283 27.2999V27.2495C110.283 25.6868 109.149 24.9055 107.309 24.9055H104.057C103.856 24.9055 103.704 25.0567 103.704 25.2583V29.3163C103.704 29.518 103.856 29.6692 104.057 29.6692H107.334V29.644ZM98.1846 20.4946C98.1846 20.293 98.3359 20.1418 98.5375 20.1418H107.586C110.636 20.1418 112.728 20.9231 114.064 22.2842C115.223 23.4184 115.828 24.9307 115.828 26.8967V26.9471C115.828 29.8204 114.366 31.7612 112.098 32.845C111.896 32.9458 111.846 33.1727 111.946 33.3491L116.08 39.373C116.181 39.5243 116.156 39.7511 115.979 39.8519C115.929 39.9023 115.853 39.9023 115.778 39.9023H110.333C110.182 39.9023 110.031 39.8267 109.955 39.7007L106.275 34.1808C106.175 34.0044 105.973 33.9036 105.771 33.9288H104.032C103.831 33.9288 103.679 34.08 103.679 34.2817V39.5747C103.679 39.7763 103.528 39.9275 103.326 39.9275H98.5123C98.3106 39.9275 98.1594 39.7763 98.1594 39.5747L98.1846 20.4946ZM127.926 30.6774C127.926 30.879 127.775 31.0302 127.599 31.0302H122.785C122.608 31.0302 122.457 30.879 122.457 30.6774C122.457 29.1903 123.641 28.0057 125.179 28.0057C126.817 27.9805 127.926 29.1651 127.926 30.6774ZM124.927 24.351C120.138 24.351 117.139 28.0813 117.139 32.5173C117.139 36.9282 120.415 40.3308 124.927 40.3308C128.96 40.3308 131.354 38.5917 132.463 35.9704C132.564 35.7435 132.388 35.4915 132.135 35.4915H128.002C127.825 35.4915 127.674 35.5671 127.573 35.6931C127.044 36.2476 126.364 36.6005 125.431 36.6005C123.667 36.6005 122.28 35.6931 122.28 34.1808C122.28 33.9792 122.432 33.828 122.633 33.828H132.514C132.715 33.828 132.866 33.6767 132.866 33.4751V32.4921C132.841 28.1065 130.094 24.351 124.927 24.351ZM154.643 24.3258C152.526 24.3258 151.014 25.1827 149.728 26.5438C149.628 26.6446 149.451 26.6698 149.35 26.569C149.325 26.5438 149.325 26.5438 149.3 26.5186C148.443 25.1323 146.956 24.351 145.04 24.351C144.965 24.351 144.914 24.351 144.839 24.351C143.251 24.4014 141.865 25.1575 140.932 26.2917C140.781 26.4934 140.453 26.3674 140.453 26.1153V25.0315C140.453 24.8551 140.302 24.7038 140.125 24.7038H135.387C135.185 24.7038 135.034 24.8551 135.034 25.0567V39.6755C135.034 39.8771 135.185 40.0284 135.387 40.0284H140.1C140.302 40.0284 140.453 39.8771 140.453 39.6755V31.6856C140.453 30.0221 141.36 29.1399 142.646 29.1399C143.931 29.1399 144.763 30.0221 144.763 31.6856V39.6503C144.763 39.8519 144.914 40.0032 145.116 40.0032H149.829C150.031 40.0032 150.182 39.8519 150.182 39.6503V31.6604C150.182 29.9968 151.115 29.1147 152.4 29.1147C153.686 29.1147 154.517 29.9968 154.517 31.6604V39.6503C154.517 39.8519 154.669 40.0032 154.87 40.0032H159.583C159.785 40.0032 159.936 39.8519 159.936 39.6503V29.9464C159.911 26.3674 157.92 24.3258 154.643 24.3258ZM85.1285 34.9118L73.3579 26.3422C72.753 25.9137 71.9716 25.9137 71.3667 26.3422L66.1241 30.1481C65.8217 30.3749 65.4436 30.4505 65.0655 30.4001C64.6875 30.3497 64.3598 30.1481 64.133 29.8456C63.9061 29.5432 63.8305 29.1651 63.8809 28.787C63.9313 28.4089 64.133 28.0813 64.4354 27.8544L68.1657 25.1575L71.4171 22.8135C73.2319 21.5028 75.7272 21.6541 77.3403 23.1916C77.6931 23.5444 78.2476 23.5444 78.6509 23.2672L85.1285 18.5539V34.9118ZM84.9773 38.264L84.9521 38.3648C84.9017 38.6169 84.7505 38.9698 84.574 39.1462C84.0951 39.5999 83.3894 39.6251 82.8853 39.2722L77.1638 35.0882L77.1134 35.063C76.7606 34.811 76.2061 34.811 75.8784 35.1134C75.4751 35.4663 75.4499 36.0712 75.8028 36.4745C75.8532 36.5249 75.9036 36.5753 75.954 36.6005L76.0296 36.6509L81.2974 40.482C81.5999 40.6837 81.8015 41.0113 81.8519 41.3642C81.9275 41.8683 81.7259 42.322 81.3226 42.6244L81.1966 42.7001C80.7429 43.0277 80.1128 43.0277 79.6591 42.7001L73.1311 37.9616C72.7782 37.7095 72.2237 37.7095 71.896 38.012C71.4928 38.3648 71.4676 38.9698 71.8204 39.373C71.8708 39.4234 71.9212 39.4738 71.9716 39.4991L77.3151 43.3806C77.6175 43.5822 77.8192 43.9099 77.8696 44.2628C77.9452 44.7669 77.7435 45.2205 77.3403 45.523L77.2142 45.5986C76.7606 45.9263 76.1304 45.9263 75.6767 45.5986L74.4921 44.7417L69.1487 40.8601C68.7958 40.6081 68.2413 40.6081 67.9137 40.9105C67.5104 41.2634 67.4852 41.8683 67.8381 42.2716C67.8885 42.322 67.9389 42.3724 67.9893 42.3976L73.3327 46.2791C73.6352 46.4808 73.8368 46.8084 73.8872 47.1613C73.9628 47.6654 73.7612 48.1191 73.3579 48.4215L73.2319 48.4972C72.8286 48.7996 72.2993 48.8248 71.8456 48.598L59.0668 39.2974V18.5791L64.6118 22.6118L66.351 23.8721L63.1752 26.1909C62.419 26.7454 61.9149 27.552 61.7637 28.4846C61.6125 29.3919 61.8393 30.3497 62.3938 31.1059C62.9483 31.862 63.7549 32.3661 64.6875 32.5173C64.8639 32.5425 65.0655 32.5677 65.242 32.5677C65.9729 32.5677 66.6786 32.3409 67.3088 31.8872L71.7448 28.661C72.0977 28.4089 72.5514 28.4089 72.9042 28.661L84.5488 37.1298C84.9017 37.4071 85.0529 37.8355 84.9773 38.264ZM83.6415 17.0668L78.3737 20.8979C78.2224 21.0239 77.9956 21.0239 77.8192 20.9231C75.6515 19.5117 72.8538 19.4612 70.661 20.8223C70.5854 20.8475 70.535 20.8979 70.4594 20.9231L68.1909 22.5866L60.6043 17.0668H83.6415ZM86.9181 15.3025C86.7164 15.1008 86.4644 15 86.1871 15H58.0334C57.4537 15 57 15.4789 57 16.0334V39.8015C57 40.1292 57.1512 40.4568 57.4285 40.6585L70.9635 50.4883C71.644 50.9924 72.5766 50.9924 73.2571 50.4883L86.7921 40.6585C87.0693 40.4568 87.2205 40.1544 87.2205 39.8015V16.0082C87.2205 15.7561 87.1197 15.4789 86.9181 15.3025ZM102.822 49.7826C102.822 49.0769 102.293 48.598 101.562 48.598H99.7725V50.942H101.562C102.293 50.942 102.822 50.4883 102.822 49.7826ZM98.4871 54.8488V47.4638H101.739C103.301 47.4638 104.133 48.5224 104.133 49.7826C104.133 51.0429 103.276 52.0762 101.739 52.0762H99.7725V54.8488H98.4871ZM104.965 54.8488V49.5054H106.124V50.2867C106.527 49.7826 107.183 49.3793 107.863 49.3793V50.5388C107.737 50.5136 107.636 50.5136 107.51 50.5136C107.006 50.5136 106.351 50.8412 106.124 51.2445V54.8992L104.965 54.8488ZM112.551 52.1771C112.551 51.2445 111.997 50.4127 111.014 50.4127C110.031 50.4127 109.476 51.2445 109.476 52.1771C109.476 53.1349 110.031 53.9666 111.014 53.9666C112.022 53.9666 112.551 53.1349 112.551 52.1771ZM108.267 52.1771C108.267 50.6396 109.3 49.3793 111.014 49.3793C112.728 49.3793 113.761 50.6396 113.761 52.1771C113.761 53.7146 112.728 55 111.014 55C109.325 54.9748 108.267 53.6894 108.267 52.1771ZM121.297 54.8488V51.3705C121.297 50.7908 121.045 50.4127 120.415 50.4127C119.886 50.4127 119.407 50.7656 119.18 51.1185V54.874H118.021V51.3957C118.021 50.816 117.769 50.4379 117.139 50.4379C116.609 50.4379 116.13 50.7908 115.904 51.1437V54.8992H114.744V49.5558H115.904V50.2867C116.13 49.959 116.836 49.4297 117.643 49.4297C118.449 49.4297 118.928 49.833 119.105 50.4127C119.407 49.9338 120.113 49.4297 120.919 49.4297C121.902 49.4297 122.457 49.959 122.457 51.0429V54.8992L121.297 54.8488ZM123.742 54.8488H124.902V49.5054H123.742V54.8488ZM123.616 48.1191C123.616 47.7158 123.944 47.3882 124.322 47.3882C124.725 47.3882 125.053 47.7158 125.053 48.0939C125.053 48.4972 124.725 48.8248 124.347 48.8248C123.944 48.85 123.616 48.5224 123.616 48.1191ZM125.96 54.143L126.49 53.3113C126.868 53.6894 127.599 54.0422 128.304 54.0422C129.01 54.0422 129.363 53.765 129.363 53.3365C129.363 52.2779 126.137 53.034 126.137 50.9672C126.137 50.0851 126.893 49.3541 128.229 49.3541C129.136 49.3541 129.817 49.6818 130.296 50.0851L129.817 50.9168C129.489 50.564 128.909 50.2867 128.229 50.2867C127.624 50.2867 127.246 50.564 127.246 50.942C127.246 51.8746 130.472 51.1689 130.472 53.3113C130.472 54.2691 129.691 54.9748 128.254 54.9748C127.347 54.9748 126.515 54.6975 125.96 54.143ZM133.799 50.3119C132.816 50.3119 132.337 51.0681 132.312 51.7234H135.336C135.286 51.0933 134.858 50.3119 133.799 50.3119ZM131.102 52.1771C131.102 50.6396 132.236 49.3793 133.824 49.3793C135.437 49.3793 136.446 50.5892 136.446 52.2779V52.5551H132.337C132.438 53.3617 133.018 54.017 134.026 54.017C134.555 54.017 135.16 53.8154 135.563 53.4121L136.093 54.1682C135.538 54.6723 134.757 54.9496 133.925 54.9496C132.287 54.9748 131.102 53.8658 131.102 52.1771ZM136.924 54.143L137.454 53.3113C137.832 53.6894 138.563 54.0422 139.268 54.0422C139.974 54.0422 140.327 53.765 140.327 53.3365C140.327 52.2779 137.101 53.034 137.101 50.9672C137.101 50.0851 137.857 49.3541 139.193 49.3541C140.1 49.3541 140.781 49.6818 141.26 50.0851L140.781 50.9168C140.453 50.564 139.873 50.2867 139.193 50.2867C138.588 50.2867 138.21 50.564 138.21 50.942C138.21 51.8746 141.436 51.1689 141.436 53.3113C141.436 54.2691 140.655 54.9748 139.218 54.9748C138.285 54.9748 137.479 54.6975 136.924 54.143ZM150.762 51.1437C150.762 49.7322 149.88 48.598 148.241 48.598H146.779V53.7146H148.241C149.829 53.7146 150.762 52.5551 150.762 51.1437ZM145.494 54.8488V47.4638H148.241C150.56 47.4638 152.098 49.0013 152.098 51.1437C152.098 53.3365 150.535 54.8488 148.241 54.8488H145.494ZM155.475 50.3119C154.492 50.3119 154.013 51.0681 153.988 51.7234H157.013C156.962 51.0933 156.534 50.3119 155.475 50.3119ZM152.778 52.1771C152.778 50.6396 153.912 49.3793 155.5 49.3793C157.113 49.3793 158.122 50.5892 158.122 52.2779V52.5551H154.013C154.114 53.3617 154.694 54.017 155.702 54.017C156.231 54.017 156.836 53.8154 157.239 53.4121L157.769 54.1682C157.214 54.6723 156.433 54.9496 155.601 54.9496C153.963 54.9748 152.778 53.8658 152.778 52.1771ZM159.054 54.8488H160.214V47.4638H159.054V54.8488ZM161.499 54.8488H162.658V49.5054H161.499V54.8488ZM161.348 48.1191C161.348 47.7158 161.675 47.3882 162.054 47.3882C162.457 47.3882 162.785 47.7158 162.785 48.0939C162.785 48.4972 162.457 48.8248 162.079 48.8248C161.675 48.85 161.348 48.5224 161.348 48.1191ZM165.557 54.8488L163.364 49.5054H164.624L166.187 53.5129L167.75 49.5054H168.985L166.792 54.8488H165.557ZM171.657 50.3119C170.674 50.3119 170.195 51.0681 170.17 51.7234H173.194C173.144 51.0933 172.715 50.3119 171.657 50.3119ZM168.96 52.1771C168.96 50.6396 170.094 49.3793 171.682 49.3793C173.295 49.3793 174.303 50.5892 174.303 52.2779V52.5551H170.195C170.296 53.3617 170.875 54.017 171.883 54.017C172.413 54.017 173.018 53.8154 173.421 53.4121L173.95 54.1682C173.396 54.6723 172.614 54.9496 171.783 54.9496C170.144 54.9748 168.96 53.8658 168.96 52.1771ZM175.236 54.8488V49.5054H176.395V50.2867C176.798 49.7826 177.454 49.3793 178.134 49.3793V50.5388C178.008 50.5136 177.907 50.5136 177.781 50.5136C177.277 50.5136 176.622 50.8412 176.395 51.2445V54.8992L175.236 54.8488ZM181.008 50.3119C180.025 50.3119 179.546 51.0681 179.52 51.7234H182.545C182.495 51.0933 182.066 50.3119 181.008 50.3119ZM178.311 52.1771C178.311 50.6396 179.445 49.3793 181.033 49.3793C182.646 49.3793 183.654 50.5892 183.654 52.2779V52.5551H179.546C179.647 53.3617 180.226 54.017 181.234 54.017C181.764 54.017 182.369 53.8154 182.772 53.4121L183.301 54.1682C182.747 54.6723 181.965 54.9496 181.134 54.9496C179.495 54.9748 178.311 53.8658 178.311 52.1771ZM188.342 53.2357V51.1185C188.09 50.7152 187.51 50.3875 186.981 50.3875C186.049 50.3875 185.469 51.1185 185.469 52.1519C185.469 53.1853 186.049 53.9414 186.981 53.9414C187.51 53.9666 188.09 53.6389 188.342 53.2357ZM188.342 54.8488V54.1178C187.939 54.6471 187.334 54.9748 186.628 54.9748C185.267 54.9748 184.259 53.9414 184.259 52.1519C184.259 50.4127 185.267 49.3541 186.628 49.3541C187.309 49.3541 187.914 49.6566 188.342 50.2363V47.4638H189.502V54.8488H188.342Z" fill="white"/>
</svg>
