<svg width="266" height="70" viewBox="0 0 266 70" fill="none" xmlns="http://www.w3.org/2000/svg">
<rect width="266" height="70" fill="#0B152A"/>
<g clip-path="url(#clip0_554_1287)">
<path d="M140.018 15C135.346 15 131.557 18.7889 131.557 23.4653C131.557 28.1398 135.346 31.9287 140.018 31.9287C144.693 31.9287 148.481 28.1398 148.481 23.4653C148.481 18.7889 144.693 15 140.018 15Z" fill="#F58220"/>
<path d="M148.41 22.3817C148.19 21.9836 147.914 21.6146 147.582 21.2883C145.18 18.9307 140.707 19.5755 137.591 22.7274C135.456 24.885 134.514 27.6601 134.905 29.9517C134.969 27.9534 135.918 25.7589 137.674 23.98C140.791 20.83 145.263 20.1853 147.666 22.5409C147.994 22.8614 148.262 23.2245 148.479 23.6149C148.481 23.5644 148.483 23.5139 148.483 23.4634C148.481 23.0964 148.456 22.7371 148.41 22.3817ZM136.062 21.0223C139.399 17.6431 144.473 17.2353 147.396 20.1076C147.654 20.362 147.885 20.6358 148.093 20.9213C147.769 19.8901 147.252 18.9462 146.586 18.1267C143.607 15.8623 138.987 16.4294 135.878 19.5793C133.59 21.8962 132.716 25.0034 133.33 27.6562C133.254 25.3705 134.18 22.9274 136.062 21.0223Z" fill="white"/>
<path d="M128.739 30.3888C128.484 29.4352 127.964 28.6545 127.177 28.0525C126.391 27.4466 125.36 27.0096 124.084 26.7416C122.808 26.4736 121.324 26.3435 119.631 26.3435H100.35L100.032 27.5845C100.032 27.5845 101.688 28.0525 101.187 30.1965L95 54.4777H105.805L108.241 44.9229H110.661C111.332 44.9229 111.909 45.0025 112.391 45.1637C112.874 45.3249 113.195 45.7289 113.354 46.3736C113.459 46.8028 113.498 47.3679 113.467 48.0671C113.436 48.7662 113.366 49.5119 113.259 50.3043C113.15 51.0986 113.047 51.8637 112.956 52.6017C112.859 53.3416 112.803 53.9689 112.779 54.4758H124.942L125.255 53.2367C125.255 53.2367 124.029 52.9862 124.012 51.5647C124.059 50.848 124.103 50.2926 124.16 49.5391C124.228 48.638 124.261 47.7447 124.261 46.8572C124.257 45.9697 124.15 45.1521 123.94 44.3986C123.62 43.647 123.159 43.0081 122.554 42.4837C121.948 41.9594 121.081 41.5904 119.953 41.3768L119.973 41.2933C122.113 40.8116 123.95 39.9843 125.484 38.8152C127.018 37.6461 128.059 35.9857 128.609 33.8339C128.949 32.492 128.991 31.3442 128.739 30.3888ZM117.37 35.5293C117.184 36.2556 116.912 36.8208 116.555 37.2228C116.195 37.6267 115.787 37.9355 115.329 38.1491C114.873 38.3647 114.374 38.5006 113.836 38.5531C113.298 38.6074 112.748 38.6327 112.183 38.6327H109.839L111.373 32.6279H113.878C114.414 32.6279 114.931 32.659 115.426 32.727C115.918 32.7949 116.333 32.9289 116.673 33.1309C117.011 33.3329 117.254 33.6222 117.399 33.997C117.543 34.3738 117.533 34.8846 117.37 35.5293Z" fill="white"/>
<path d="M167.91 41.4992C169.774 33.7019 162.847 32.6338 156.935 32.6338C152.913 32.6338 151.086 32.9834 147.8 33.8437L146.266 39.8581C148.563 38.8327 151.375 38.0521 153.838 38.0521C156.423 38.0521 159.174 38.3803 158.559 41.1302C157.634 41.0467 156.044 40.8428 154.605 40.8428C149.474 40.8428 143.25 42.1575 141.683 48.7216C140.613 53.196 144.038 55.0021 148.019 55.0021C150.934 55.0021 153.888 53.8524 155.902 51.4326H155.984L155.203 54.4777H166.55L166.859 53.2756C166.859 53.2756 165.329 52.7319 165.641 50.984L167.91 41.4992ZM157.432 45.7658C156.992 47.6127 155.473 49.5838 153.339 49.5838C151.738 49.5838 151.053 49.009 151.406 47.5311C151.935 45.3152 154.448 45.1094 156.58 45.1094H157.588L157.432 45.7658Z" fill="white"/>
<path d="M138.709 50.5917C138.719 50.5335 138.74 50.4771 138.752 50.4247L142.896 34.1913C141.642 35.207 140.051 35.8245 138.313 35.8401C136.185 35.8556 134.264 34.9603 132.906 33.5271L127.562 54.4777H139.544L139.869 53.2154C139.869 53.2135 138.325 52.9746 138.709 50.5917Z" fill="white"/>
<path d="M167.587 50.4556C167.587 49.7176 168.174 49.1292 168.918 49.1292C169.663 49.1292 170.252 49.7176 170.252 50.4556C170.252 51.1935 169.663 51.782 168.918 51.782C168.172 51.782 167.587 51.1935 167.587 50.4556ZM170.048 50.4556C170.048 49.8302 169.527 49.335 168.918 49.335C168.31 49.335 167.789 49.8302 167.789 50.4556C167.789 51.0809 168.31 51.5781 168.918 51.5781C169.526 51.5781 170.048 51.0809 170.048 50.4556Z" fill="white"/>
<path d="M168.43 49.7332H168.741C169.05 49.7332 169.419 49.7235 169.419 50.1216C169.419 50.2905 169.306 50.4304 169.122 50.4556V50.4595C169.199 50.4653 169.246 50.543 169.275 50.6071L169.506 51.1703H169.186L169.013 50.7197C168.972 50.6129 168.935 50.5721 168.813 50.5721H168.72V51.1703H168.43V49.7332ZM168.72 50.3469H168.815C168.956 50.3469 169.12 50.3255 169.12 50.1468C169.12 49.974 168.958 49.9604 168.815 49.9604H168.72V50.3469Z" fill="white"/>
</g>
<defs>
<clipPath id="clip0_554_1287">
<rect width="75.2517" height="40" fill="white" transform="translate(95 15)"/>
</clipPath>
</defs>
</svg>
