<svg width="78" height="80" viewBox="0 0 78 80" fill="none" xmlns="http://www.w3.org/2000/svg">
<path d="M54.7157 0C48.7919 0.0061868 43.1125 2.36215 38.9238 6.5509C34.735 10.7397 32.3791 16.4191 32.3729 22.3429C33.5939 52.004 75.8421 51.9955 77.0586 22.3427C77.0524 16.4189 74.6964 10.7396 70.5076 6.55084C66.3189 2.36211 60.6395 0.0061754 54.7157 0ZM62.9014 36.7286C62.6399 37.2003 62.2569 37.5935 61.7922 37.8673C61.3275 38.1411 60.798 38.2856 60.2586 38.2857H49.1729C48.6335 38.2856 48.104 38.1411 47.6392 37.8673C47.1745 37.5935 46.7915 37.2003 46.53 36.7286L40.9586 26.6C40.6852 26.1032 40.5575 25.5393 40.5904 24.9732C40.6232 24.4071 40.8153 23.8618 41.1443 23.4L52.2443 7.68571C52.5278 7.29826 52.8988 6.98313 53.3269 6.76589C53.7551 6.54866 54.2285 6.43545 54.7086 6.43545C55.1887 6.43545 55.6621 6.54866 56.0902 6.76589C56.5184 6.98313 56.8893 7.29826 57.1729 7.68571L68.2872 23.4C68.6162 23.8618 68.8082 24.4072 68.841 24.9732C68.8739 25.5393 68.7463 26.1032 68.4729 26.6L62.9014 36.7286ZM63.6014 45.9429C62.6247 48.763 61.3459 51.4692 59.7872 54.0143C58.9838 55.3354 58.5634 56.8538 58.5729 58.4V74.6429C58.5723 76.0635 58.0078 77.4258 57.0032 78.4304C55.9987 79.4349 54.6364 79.9995 53.2157 80H27.8872C26.4687 79.9965 25.1096 79.4305 24.108 78.4262C23.1064 77.4219 22.544 76.0613 22.5443 74.6429V66.9714H15.73C13.7891 66.9707 11.9276 66.2003 10.5538 64.8292C9.18001 63.458 8.40599 61.5981 8.40145 59.6571V51.7429H1.43002C1.19933 51.7445 0.971782 51.6894 0.767474 51.5822C0.563167 51.4751 0.388392 51.3193 0.258591 51.1286C0.126501 50.9395 0.0419423 50.7213 0.0120784 50.4926C-0.0177855 50.2638 0.00792562 50.0313 0.0870338 49.8146C0.156048 49.6708 9.74618 23.7424 9.82989 23.6286C16.9727 9.91429 26.9299 6.5 35.116 6.52846C21.8269 22.6084 33.7326 47.7349 54.7157 47.5571C57.7502 47.5534 60.7595 47.0067 63.6014 45.9429ZM65.9586 25.0429C65.9747 25.0681 65.9845 25.0969 65.987 25.1268C65.9895 25.1567 65.9846 25.1867 65.9729 25.2143L60.4014 35.3429C60.3881 35.3691 60.3676 35.3911 60.3423 35.4062C60.3171 35.4214 60.288 35.4291 60.2586 35.4286H49.1729C49.1434 35.4291 49.1144 35.4214 49.0891 35.4062C49.0639 35.3911 49.0434 35.3691 49.03 35.3429L43.4586 25.2143C43.4433 25.1876 43.4365 25.157 43.4391 25.1264C43.4416 25.0957 43.4534 25.0666 43.4729 25.0429L53.2872 11.1857L53.2873 21.8857C52.0744 22.2365 51.0292 23.0142 50.3447 24.0752C49.6601 25.1362 49.3824 26.4089 49.5627 27.6586C49.743 28.9084 50.3691 30.0507 51.3257 30.875C52.2822 31.6992 53.5045 32.1497 54.7671 32.1434C56.0298 32.1371 57.2475 31.6744 58.1957 30.8406C59.144 30.0068 59.7587 28.8583 59.9265 27.6068C60.0942 26.3554 59.8038 25.0854 59.1087 24.0314C58.4136 22.9773 57.3607 22.2101 56.1443 21.8714V11.1857L65.9586 25.0429ZM57.1157 26.9143C57.1082 27.544 56.8528 28.1453 56.4049 28.5879C55.957 29.0305 55.3526 29.2787 54.7229 29.2787C54.0932 29.2787 53.4889 29.0305 53.0409 28.588C52.593 28.1454 52.3376 27.5441 52.33 26.9144C52.3375 26.2847 52.5929 25.6834 53.0409 25.2408C53.4888 24.7982 54.0931 24.55 54.7228 24.55C55.3525 24.5499 55.9569 24.7981 56.4048 25.2407C56.8527 25.6833 57.1082 26.2846 57.1157 26.9143Z" fill="url(#paint0_linear_139_21)"/>
<defs>
<linearGradient id="paint0_linear_139_21" x1="1.96538e-05" y1="40" x2="77.0586" y2="40" gradientUnits="userSpaceOnUse">
<stop stop-color="#FFA68D"/>
<stop offset="1" stop-color="#FD3A84"/>
</linearGradient>
</defs>
</svg>
