<svg width="83" height="80" viewBox="0 0 83 80" fill="none" xmlns="http://www.w3.org/2000/svg">
<path d="M82.5806 12.9032V34.0323C82.5806 35.814 81.1366 37.2581 79.3548 37.2581C77.5731 37.2581 76.129 35.814 76.129 34.0323V12.9032C76.129 9.34602 73.2346 6.45161 69.6774 6.45161H12.9032C9.34602 6.45161 6.45161 9.34602 6.45161 12.9032V63.0645C6.45161 66.6217 9.34602 69.5161 12.9032 69.5161H35C36.7818 69.5161 38.2258 70.9602 38.2258 72.7419C38.2258 74.5237 36.7818 75.9677 35 75.9677H12.9032C5.78818 75.9677 0 70.1796 0 63.0645V12.9032C0 5.78818 5.78818 0 12.9032 0H69.6774C76.7925 0 82.5806 5.78818 82.5806 12.9032ZM15.6452 57.4194C13.8634 57.4194 12.4194 58.8634 12.4194 60.6452C12.4194 62.4269 13.8634 63.871 15.6452 63.871C17.4269 63.871 18.871 62.4269 18.871 60.6452C18.871 58.8634 17.4269 57.4194 15.6452 57.4194ZM28.5484 57.4194C26.7666 57.4194 25.3226 58.8634 25.3226 60.6452C25.3226 62.4269 26.7666 63.871 28.5484 63.871C30.3301 63.871 31.7742 62.4269 31.7742 60.6452C31.7742 58.8634 30.3301 57.4194 28.5484 57.4194ZM18.871 16.9355C18.871 15.1537 17.4269 13.7097 15.6452 13.7097C13.8634 13.7097 12.4194 15.1537 12.4194 16.9355C12.4194 18.7172 13.8634 20.1613 15.6452 20.1613C17.4269 20.1613 18.871 18.7172 18.871 16.9355ZM31.7742 16.9355C31.7742 15.1537 30.3301 13.7097 28.5484 13.7097C26.7666 13.7097 25.3226 15.1537 25.3226 16.9355C25.3226 18.7172 26.7666 20.1613 28.5484 20.1613C30.3301 20.1613 31.7742 18.7172 31.7742 16.9355ZM44.6774 16.9355C44.6774 15.1537 43.2334 13.7097 41.4516 13.7097C39.6699 13.7097 38.2258 15.1537 38.2258 16.9355C38.2258 18.7172 39.6699 20.1613 41.4516 20.1613C43.2334 20.1613 44.6774 18.7172 44.6774 16.9355ZM54.3548 20.1613C56.1366 20.1613 57.5806 18.7172 57.5806 16.9355C57.5806 15.1537 56.1366 13.7097 54.3548 13.7097C52.5731 13.7097 51.129 15.1537 51.129 16.9355C51.129 18.7172 52.5731 20.1613 54.3548 20.1613ZM70.4839 16.9355C70.4839 15.1537 69.0398 13.7097 67.2581 13.7097C65.4763 13.7097 64.0323 15.1537 64.0323 16.9355C64.0323 18.7172 65.4763 20.1613 67.2581 20.1613C69.0398 20.1613 70.4839 18.7172 70.4839 16.9355ZM82.5806 51.4516C82.5806 56.7881 78.2397 61.129 72.9032 61.129C68.6977 61.129 65.1121 58.4318 63.7809 54.6774H57.2581V61.2002C61.0125 62.5315 63.7097 66.1171 63.7097 70.3226C63.7097 75.659 59.3687 80 54.0323 80C48.6958 80 44.3548 75.659 44.3548 70.3226C44.3548 66.1171 47.052 62.5315 50.8064 61.2002V54.6774H37.5806C35.7989 54.6774 34.3548 53.2334 34.3548 51.4516C34.3548 49.6699 35.7989 48.2258 37.5806 48.2258H50.8064V35C50.8064 33.2182 52.2505 31.7742 54.0323 31.7742C55.814 31.7742 57.2581 33.2182 57.2581 35V48.2258H63.7809C65.1121 44.4714 68.6977 41.7742 72.9032 41.7742C78.2397 41.7742 82.5806 46.1152 82.5806 51.4516ZM57.2581 70.3226C57.2581 68.544 55.8109 67.0968 54.0323 67.0968C52.2537 67.0968 50.8064 68.544 50.8064 70.3226C50.8064 72.1012 52.2537 73.5484 54.0323 73.5484C55.8109 73.5484 57.2581 72.1012 57.2581 70.3226ZM76.129 51.4516C76.129 49.673 74.6818 48.2258 72.9032 48.2258C71.1246 48.2258 69.6774 49.673 69.6774 51.4516C69.6774 53.2302 71.1246 54.6774 72.9032 54.6774C74.6818 54.6774 76.129 53.2302 76.129 51.4516Z" fill="url(#paint0_linear_139_27)"/>
<defs>
<linearGradient id="paint0_linear_139_27" x1="0" y1="40" x2="82.5806" y2="40" gradientUnits="userSpaceOnUse">
<stop stop-color="#00F2FE"/>
<stop offset="0.0208" stop-color="#03EFFE"/>
<stop offset="0.2931" stop-color="#24D2FE"/>
<stop offset="0.5538" stop-color="#3CBDFE"/>
<stop offset="0.7956" stop-color="#4AB0FE"/>
<stop offset="1" stop-color="#4FACFE"/>
</linearGradient>
</defs>
</svg>
