<svg width="487" height="58" viewBox="0 0 487 58" fill="none" xmlns="http://www.w3.org/2000/svg">
<path d="M3.33333 55.019C3.33333 56.4918 4.52724 57.6857 6 57.6857C7.47276 57.6857 8.66667 56.4918 8.66667 55.019C8.66667 53.5462 7.47276 52.3523 6 52.3523C4.52724 52.3523 3.33333 53.5462 3.33333 55.019ZM129 18.0192L129.242 17.5818L129 18.0192ZM331 11.5186L330.747 11.0876L331 11.5186ZM486.094 24.1217L482.013 24.0148L481.906 28.0959L485.987 28.2028L486.094 24.1217ZM6.24314 55.4559C8.68834 54.0951 11.4248 51.9243 14.452 49.2658C17.4812 46.6055 20.8348 43.4265 24.5031 40.0428C31.8511 33.2648 40.5035 25.6265 50.5741 19.4452C60.6417 13.2657 72.1116 8.55207 85.0908 7.61154C98.0652 6.67135 112.584 9.4987 128.758 18.4566L129.242 17.5818C112.916 8.53959 98.2056 5.65855 85.0185 6.61415C71.8363 7.5694 60.2125 12.3557 50.0509 18.5929C39.8923 24.8282 31.1802 32.5232 23.8251 39.3077C20.1418 42.7053 16.8092 45.8648 13.7921 48.5144C10.7731 51.1658 8.10333 53.2762 5.75686 54.5821L6.24314 55.4559ZM128.758 18.4566C150.473 30.4836 176.177 43.5296 208.925 46.2209C241.683 48.913 281.432 41.2415 331.253 11.9496L330.747 11.0876C281.068 40.2961 241.522 47.8963 209.007 45.2242C176.483 42.5514 150.937 29.5974 129.242 17.5818L128.758 18.4566ZM331.253 11.9496C347.726 2.26479 361.658 1.90293 374.251 5.8839C386.89 9.879 398.198 18.2483 409.417 26.1169C420.599 33.9581 431.704 41.3106 443.834 43.0558C456.018 44.8089 469.141 40.8987 484.344 26.4715L483.656 25.7461C468.609 40.0241 455.779 43.7643 443.976 42.066C432.118 40.3599 421.201 33.1591 409.992 25.2981C398.821 17.4644 387.372 8.98256 374.553 4.93041C361.689 0.864128 347.464 1.25894 330.747 11.0876L331.253 11.9496Z" fill="#4FACFE"/>
<path d="M483.667 3.52007C483.667 2.04731 482.473 0.853397 481 0.853397C479.527 0.853397 478.333 2.04731 478.333 3.52007C478.333 4.99282 479.527 6.18673 481 6.18673C482.473 6.18673 483.667 4.99282 483.667 3.52007ZM358 40.5199L357.758 40.9573L358 40.5199ZM156 47.0205L156.253 47.4515L156 47.0205ZM0.906004 34.4174L4.98706 34.5243L5.09399 30.4432L1.01294 30.3363L0.906004 34.4174ZM480.757 3.08316C478.312 4.44397 475.575 6.61477 472.548 9.27328C469.519 11.9336 466.165 15.1126 462.497 18.4963C455.149 25.2742 446.496 32.9126 436.426 39.0939C426.358 45.2734 414.888 49.987 401.909 50.9275C388.935 51.8677 374.416 49.0404 358.242 40.0825L357.758 40.9573C374.084 49.9995 388.794 52.8805 401.981 51.9249C415.164 50.9697 426.787 46.1833 436.949 39.9462C447.108 33.7108 455.82 26.0159 463.175 19.2313C466.858 15.8338 470.191 12.6743 473.208 10.0247C476.227 7.37328 478.897 5.26283 481.243 3.95697L480.757 3.08316ZM358.242 40.0825C336.527 28.0555 310.823 15.0095 278.075 12.3182C245.317 9.62612 205.568 17.2975 155.747 46.5895L156.253 47.4515C205.932 18.243 245.478 10.6428 277.993 13.3148C310.517 15.9877 336.063 28.9417 357.758 40.9573L358.242 40.0825ZM155.747 46.5895C139.274 56.2743 125.342 56.6362 112.749 52.6552C100.11 48.6601 88.8024 40.2908 77.5825 32.4222C66.4015 24.581 55.2963 17.2285 43.1664 15.4833C30.982 13.7302 17.8595 17.6404 2.65582 32.0676L3.34418 32.793C18.3905 18.515 31.2207 14.7748 43.024 16.4731C54.8817 18.1792 65.7993 25.38 77.0084 33.241C88.1786 41.0747 99.6284 49.5565 112.447 53.6087C125.311 57.675 139.536 57.2801 156.253 47.4515L155.747 46.5895Z" fill="#FFB800"/>
</svg>
