<svg width="266" height="70" viewBox="0 0 266 70" fill="none" xmlns="http://www.w3.org/2000/svg">
<rect width="266" height="70" fill="#0B152A"/>
<path d="M193.176 33.2916C193.176 26.2713 188.286 21.3337 181.429 21.3337C172.701 21.3337 166.85 27.6754 166.85 36.7316C166.85 43.7986 171.788 48.6894 178.761 48.6894C185.103 48.6894 189.83 45.6239 191.772 40.7331H184.729C183.793 42.2542 181.804 43.2136 179.37 43.2136C175.626 43.2136 173.286 40.7331 173.075 37.223H192.779C193.036 35.8891 193.176 34.7425 193.176 33.2916ZM173.613 32.4726C174.245 29.2433 177.381 26.6692 181.172 26.6692C184.448 26.6692 186.928 29.056 186.928 32.4726H173.613Z" fill="white"/>
<path d="M147.919 48.0576L149.183 41.3181C153.044 42.0904 153.629 39.9141 154.635 34.6723L155.126 32.0748C156.53 24.7503 159.362 21.0997 167.459 22.0826L166.195 28.822C162.334 28.0498 161.655 30.9749 160.789 35.5147L160.298 38.1122C158.894 45.5303 155.969 49.0405 147.919 48.0576Z" fill="white"/>
<path d="M138.465 48.081L143.239 21.9656H149.533L144.783 48.081H138.465Z" fill="white"/>
<path d="M102.404 21.9656H108.512L110.501 40.8501L118.504 21.9656H124.565L126.694 41.0373L134.417 21.9656H140.501L129.432 48.081H122.505L120.259 30.1091L112.607 48.081H105.914L102.404 21.9656Z" fill="white"/>
<path d="M79.588 28.8923L72.3337 35.8189H84.666L85.9531 32.8002H79.705L83.613 28.8923L81.3431 24.9843H91.9437L82.1621 48.081H85.8361L96.9047 21.9656H75.5163L79.588 28.8923Z" fill="#00B9FF"/>
</svg>
