<svg width="266" height="70" viewBox="0 0 266 70" fill="none" xmlns="http://www.w3.org/2000/svg">
<rect width="266" height="70" fill="#0B152A"/>
<g clip-path="url(#clip0_554_1293)">
<path d="M45.5472 33.0754H39.7946L37 20H41.6195L42.8162 28.057L44.03 20H49.4346L50.6483 28.2692L51.8727 20H56.3012L53.5533 33.0754H47.8834L46.7058 24.611L45.5472 33.0754Z" fill="#FFDF1C"/>
<path d="M178.937 49.2828H166.08L159.835 20H170.162L172.836 38.0407L175.55 20H187.39L190.104 38.5161L192.842 20H202.98L196.837 49.2828H184.163L181.53 30.3296L178.937 49.2828Z" fill="#FFDF1C"/>
<path d="M59.3992 33.0796V20H69.3299V23.3612H64.4091V24.7807H68.9797V28.1419H64.4091V29.6845H69.5017V33.0796H59.3992Z" fill="#FFDF1C"/>
<path d="M102.874 33.0796V20H112.804V23.3612H107.883V24.7807H112.454V28.1419H107.883V29.6845H112.976V33.0796H102.874Z" fill="#FFDF1C"/>
<path d="M72.6634 29.2644H77.5587V29.3726C77.5587 29.8246 77.6648 30.162 77.877 30.3805C78.0892 30.6012 78.4181 30.7116 78.8616 30.7116C79.2499 30.7116 79.5533 30.6246 79.7719 30.4548C79.9904 30.2829 80.1008 30.0474 80.1008 29.744C80.1008 29.5211 80.0583 29.3302 79.9756 29.1732C79.8928 29.0161 79.7698 28.8994 79.6106 28.8209C79.3454 28.6936 78.8064 28.5281 77.9937 28.3244C77.181 28.1185 76.538 27.9445 76.0627 27.8003C74.9169 27.4438 74.083 26.9769 73.5588 26.3977C73.0347 25.8184 72.7737 25.082 72.7737 24.1908C72.7737 22.8646 73.3169 21.8334 74.4034 21.1013C75.4919 20.3671 77.0176 20 78.9825 20C80.7756 20 82.1442 20.3162 83.0885 20.9464C84.0349 21.5766 84.5059 22.4827 84.5059 23.6646V23.9447H79.9883C79.9523 23.5415 79.8355 23.2423 79.6425 23.0492C79.4494 22.8561 79.1629 22.7606 78.7873 22.7606C78.4605 22.7606 78.1995 22.8413 78.0022 23.0047C77.8048 23.1681 77.7072 23.3824 77.7072 23.6476C77.7072 24.1357 78.2589 24.5091 79.3602 24.7701C79.7613 24.8614 80.0817 24.9378 80.3215 25.0057C82.1633 25.4873 83.4089 26.0284 84.0582 26.6289C84.7075 27.2295 85.0322 28.0591 85.0322 29.1222C85.0322 30.5524 84.4699 31.6834 83.3452 32.5195C82.2206 33.3555 80.6886 33.7735 78.7491 33.7735C76.7842 33.7735 75.2755 33.4255 74.223 32.7295C73.1705 32.0335 72.6443 31.0405 72.6443 29.7482C72.6443 29.6209 72.6464 29.5233 72.6485 29.4554C72.6528 29.379 72.657 29.3174 72.6634 29.2644Z" fill="#FFDF1C"/>
<path d="M99.4635 20V23.4927H96.2381V33.0733H91.0839V23.4927H87.8501V20H99.4635Z" fill="#FFDF1C"/>
<path d="M116.673 33.016V20H123.467C125.462 20 126.856 20.2525 127.649 20.7554C128.443 21.2583 128.84 22.1092 128.84 23.3102C128.84 24.0932 128.621 24.7383 128.182 25.2476C127.743 25.7568 127.089 26.1218 126.217 26.3467C127.028 26.4762 127.607 26.7414 127.953 27.1403C128.299 27.5414 128.541 28.265 128.679 29.3111L128.859 30.7222C128.882 30.9577 128.927 31.2463 128.995 31.5922C129.06 31.9359 129.162 32.4112 129.3 33.0181H124.227C124.112 32.5831 124.027 32.2287 123.97 31.9593C123.913 31.6898 123.868 31.4394 123.838 31.2081L123.713 30.2553C123.588 29.396 123.418 28.8527 123.208 28.6236C122.998 28.3944 122.644 28.2798 122.145 28.2798C122.024 28.2798 121.931 28.2819 121.865 28.2841C121.799 28.2862 121.736 28.2947 121.676 28.3053V33.0181H116.673V33.016ZM121.683 25.3749C121.725 25.3812 121.772 25.3855 121.823 25.3876C121.873 25.3897 121.948 25.3919 122.043 25.3919C122.631 25.3919 123.083 25.2751 123.399 25.0439C123.715 24.8104 123.872 24.4794 123.872 24.0508C123.872 23.6519 123.743 23.359 123.484 23.1723C123.225 22.9877 122.814 22.8943 122.249 22.8943C122.105 22.8943 121.994 22.8964 121.916 22.8986C121.837 22.9028 121.759 22.9071 121.683 22.9113V25.3749Z" fill="#FFDF1C"/>
<path d="M136.996 25.0035V32.9926H132.823V20H138.997L141.851 27.7769V20H146.025V32.9905H139.85L136.996 25.0035Z" fill="#FFDF1C"/>
<path d="M136.996 41.0539V49.1046H132.823V36.0122H138.997L141.851 43.8507V36.0122H146.025V49.1046H139.85L136.996 41.0539Z" fill="#FFDF1C"/>
<path d="M93.2527 41.0518V49.0982H89.0789V36.0122H95.2537L98.1077 43.8464V36.0122H102.282V49.0982H96.1067L93.2527 41.0518Z" fill="#FFDF1C"/>
<path d="M72.4809 36.0164H77.4929V44.1922C77.4929 44.7545 77.5948 45.181 77.7963 45.4738C77.9979 45.7667 78.2929 45.9131 78.6791 45.9131C79.0547 45.9131 79.3454 45.7603 79.5533 45.4569C79.7613 45.1513 79.8652 44.7312 79.8652 44.1922V36.0164H84.8964V43.9864C84.8964 45.8516 84.3913 47.2266 83.3834 48.1157C82.3734 49.0026 80.8053 49.4461 78.6791 49.4461C77.4526 49.4461 76.4383 49.3167 75.6383 49.0599C74.8384 48.8032 74.1742 48.3958 73.648 47.8398C73.2299 47.3984 72.9329 46.9062 72.7504 46.3651C72.57 45.824 72.4788 45.0304 72.4788 43.9842V36.0164H72.4809Z" fill="#FFDF1C"/>
<path d="M111.72 36.0208V49.0898H106.559V36.0208H111.72Z" fill="#FFDF1C"/>
<path d="M122.124 49.4547C120.01 49.4547 118.376 48.8563 117.222 47.6574C116.066 46.4606 115.489 44.7716 115.489 42.5923C115.489 40.3834 116.078 38.6774 117.258 37.4763C118.438 36.2753 120.114 35.6748 122.287 35.6748C124.447 35.6748 126.113 36.2732 127.284 37.4721C128.456 38.671 129.041 40.3707 129.041 42.5732C129.041 44.8055 128.451 46.5116 127.272 47.6892C126.09 48.8669 124.375 49.4547 122.124 49.4547ZM122.268 39.1442C121.731 39.1442 121.351 39.3903 121.133 39.8826C120.912 40.3749 120.802 41.2895 120.802 42.6305C120.802 43.8867 120.912 44.7631 121.133 45.2596C121.354 45.7583 121.725 46.0065 122.251 46.0065C122.788 46.0065 123.168 45.7434 123.386 45.2193C123.607 44.6952 123.717 43.7509 123.717 42.3865C123.717 41.1558 123.609 40.307 123.391 39.8423C123.174 39.3755 122.799 39.1442 122.268 39.1442Z" fill="#FFDF1C"/>
<path d="M158.375 49.1067H156.639L150.532 20H152.268L158.375 49.1067Z" fill="#FFDF1C"/>
<path d="M163.086 49.1067H161.35L155.243 20H156.979L163.086 49.1067Z" fill="#FFDF1C"/>
<path d="M211.377 20V38.289C211.377 39.4879 211.146 40.4279 210.681 41.1069C210.216 41.786 209.567 42.1255 208.731 42.1255C207.869 42.1255 207.211 41.7987 206.762 41.1451C206.31 40.4937 206.085 39.541 206.085 38.2869V20H203.895L198.195 47.0654C199.246 47.9778 200.496 48.6717 201.953 49.1406C203.738 49.7135 205.996 50 208.731 50C213.471 50 216.966 49.0112 219.215 47.0335C221.465 45.0559 222.589 41.9876 222.589 37.8307V20H211.377Z" fill="#FFDF1C"/>
<path d="M194.911 20V37.8307C194.911 40.1627 195.112 41.9303 195.518 43.1355C195.91 44.3047 196.551 45.372 197.438 46.3333L202.98 20H194.911Z" fill="white"/>
<path d="M224.864 22.3002L225.414 22.2641C225.426 22.3596 225.45 22.4317 225.486 22.4805C225.545 22.5612 225.63 22.6015 225.74 22.6015C225.823 22.6015 225.887 22.5803 225.931 22.54C225.976 22.4996 225.999 22.4508 225.999 22.3978C225.999 22.3469 225.978 22.3002 225.936 22.2599C225.893 22.2195 225.793 22.1814 225.641 22.1453C225.386 22.0859 225.206 22.0052 225.1 21.9055C224.991 21.8058 224.936 21.6785 224.936 21.5236C224.936 21.4217 224.964 21.3262 225.019 21.235C225.074 21.1437 225.159 21.0737 225.271 21.0207C225.384 20.9697 225.537 20.9421 225.732 20.9421C225.972 20.9421 226.154 20.9888 226.279 21.0822C226.405 21.1756 226.479 21.3262 226.504 21.532L225.959 21.566C225.944 21.4769 225.914 21.4111 225.868 21.3708C225.821 21.3305 225.757 21.3092 225.677 21.3092C225.609 21.3092 225.56 21.3241 225.526 21.3538C225.492 21.3835 225.475 21.4217 225.475 21.4641C225.475 21.496 225.49 21.5236 225.518 21.549C225.545 21.5745 225.609 21.5999 225.711 21.6212C225.963 21.6785 226.144 21.7379 226.254 21.7952C226.362 21.8546 226.443 21.9267 226.492 22.0137C226.54 22.1007 226.566 22.1983 226.566 22.3065C226.566 22.4339 226.532 22.5506 226.466 22.6567C226.4 22.7628 226.307 22.8455 226.188 22.9007C226.069 22.9559 225.919 22.9834 225.738 22.9834C225.42 22.9834 225.199 22.9177 225.076 22.7882C224.951 22.6652 224.881 22.4996 224.864 22.3002Z" fill="#FFDF1C"/>
<path d="M226.846 20.9761H227.606L227.898 22.1813L228.189 20.9761H228.949V22.9558H228.476V21.445L228.111 22.9537H227.682L227.317 21.445V22.9537H226.844V20.9761H226.846Z" fill="#FFDF1C"/>
</g>
<defs>
<clipPath id="clip0_554_1293">
<rect width="191.951" height="30" fill="white" transform="translate(37 20)"/>
</clipPath>
</defs>
</svg>
