<svg width="266" height="70" viewBox="0 0 266 70" fill="none" xmlns="http://www.w3.org/2000/svg">
<rect width="266" height="70" fill="#0B152A"/>
<g clip-path="url(#clip0_554_1294)">
<path d="M120.212 42.3701H116.545C116.294 42.3701 116.08 42.5526 116.041 42.8021L114.558 52.2559C114.532 52.424 114.646 52.5802 114.813 52.6065C114.829 52.6091 114.845 52.6104 114.86 52.6091H116.612C116.863 52.6091 117.077 52.4253 117.115 52.1771L117.515 49.6272C117.555 49.3777 117.767 49.1939 118.018 49.1939H119.179C121.594 49.1939 122.988 48.0188 123.352 45.6894C123.516 44.6705 123.358 43.8709 122.884 43.3102C122.364 42.6957 121.44 42.3701 120.212 42.3701ZM120.636 45.8221C120.436 47.1456 119.43 47.1456 118.458 47.1456H117.905L118.294 44.6758C118.318 44.5261 118.446 44.4171 118.596 44.4171H118.849C119.511 44.4171 120.136 44.4171 120.459 44.7966C120.651 45.0211 120.709 45.3573 120.636 45.8221ZM131.173 45.78H129.418C129.267 45.78 129.14 45.8903 129.116 46.0387L129.038 46.5324L128.915 46.3525C128.536 45.7984 127.687 45.612 126.842 45.612C124.901 45.612 123.244 47.0891 122.921 49.1624C122.753 50.1957 122.992 51.1858 123.575 51.8751C124.109 52.5093 124.876 52.7732 125.786 52.7732C127.35 52.7732 128.217 51.7622 128.217 51.7622L128.139 52.2519C128.113 52.42 128.226 52.5776 128.392 52.6038C128.408 52.6065 128.424 52.6078 128.44 52.6078H130.021C130.273 52.6078 130.485 52.424 130.525 52.1745L131.474 46.1319C131.5 45.9639 131.387 45.8076 131.221 45.7814C131.206 45.7814 131.189 45.78 131.173 45.78ZM128.726 49.2162C128.557 50.2246 127.761 50.9022 126.745 50.9022C126.235 50.9022 125.827 50.738 125.566 50.4268C125.307 50.117 125.207 49.6771 125.29 49.186C125.447 48.1868 126.257 47.4883 127.258 47.4883C127.757 47.4883 128.161 47.6537 128.429 47.9689C128.697 48.284 128.802 48.7278 128.726 49.2162ZM140.525 45.78H138.76C138.591 45.78 138.433 45.8641 138.339 46.0046L135.904 49.6088L134.874 46.1451C134.809 45.9284 134.61 45.78 134.385 45.78H132.652C132.483 45.78 132.346 45.9166 132.345 46.086C132.345 46.1201 132.35 46.1543 132.362 46.1858L134.305 51.9211L132.477 54.5143C132.38 54.6522 132.413 54.8439 132.55 54.9423C132.601 54.9791 132.664 55.0001 132.727 55.0001H134.489C134.656 55.0001 134.812 54.9187 134.908 54.7795L140.777 46.2619C140.873 46.1227 140.837 45.931 140.699 45.8339C140.648 45.7997 140.588 45.78 140.525 45.78Z" fill="white"/>
<path d="M146.367 42.3701H142.699C142.449 42.3701 142.236 42.5539 142.197 42.8021L140.714 52.2572C140.688 52.424 140.802 52.5815 140.968 52.6078C140.985 52.6104 140.999 52.6117 141.016 52.6117H142.898C143.074 52.6117 143.222 52.483 143.25 52.3084L143.67 49.6285C143.709 49.379 143.923 49.1952 144.173 49.1952H145.333C147.749 49.1952 149.144 48.0201 149.508 45.6908C149.672 44.6719 149.514 43.8722 149.039 43.3116C148.519 42.6944 147.594 42.3701 146.367 42.3701ZM146.79 45.8221C146.59 47.1456 145.584 47.1456 144.613 47.1456H144.06L144.448 44.6758C144.472 44.5261 144.599 44.4158 144.75 44.4158H145.004C145.666 44.4158 146.291 44.4158 146.614 44.7953C146.807 45.0224 146.864 45.3573 146.79 45.8221ZM157.328 45.78H155.574C155.423 45.78 155.295 45.8903 155.272 46.0387L155.194 46.5324L155.071 46.3538C154.69 45.7997 153.843 45.6133 152.998 45.6133C151.057 45.6133 149.4 47.0904 149.077 49.1637C148.91 50.1971 149.148 51.1871 149.731 51.8764C150.268 52.5106 151.032 52.7745 151.943 52.7745C153.507 52.7745 154.374 51.7635 154.374 51.7635L154.296 52.2533C154.27 52.4213 154.383 52.5789 154.55 52.6051C154.567 52.6078 154.582 52.6091 154.598 52.6091H156.18C156.431 52.6091 156.644 52.4253 156.683 52.1758L157.633 46.1332C157.657 45.9652 157.543 45.8076 157.376 45.7814C157.359 45.7814 157.344 45.78 157.328 45.78ZM154.88 49.2162C154.711 50.2246 153.914 50.9022 152.899 50.9022C152.39 50.9022 151.981 50.738 151.72 50.4268C151.46 50.117 151.363 49.6771 151.444 49.186C151.603 48.1868 152.412 47.487 153.411 47.487C153.91 47.487 154.315 47.6537 154.582 47.9675C154.852 48.284 154.958 48.7278 154.88 49.2162ZM159.399 42.6288L157.894 52.2559C157.868 52.4226 157.982 52.5802 158.147 52.6065C158.164 52.6091 158.179 52.6104 158.195 52.6104H159.708C159.961 52.6104 160.173 52.4279 160.211 52.1784L161.695 42.7246C161.721 42.5579 161.608 42.4003 161.442 42.3741C161.425 42.3714 161.41 42.3701 161.394 42.3701H159.701C159.55 42.3701 159.422 42.4791 159.399 42.6288Z" fill="white"/>
<path d="M107.138 27.0956C107.138 22.9871 110.135 19.8871 114.109 19.8871C118.121 19.8871 121.148 23.016 121.148 27.1626V27.2308C121.148 31.3393 118.149 34.438 114.175 34.438C110.163 34.438 107.138 31.3117 107.138 27.1626V27.0956ZM114.174 15C107.118 15 101.593 20.3414 101.593 27.1626V27.2308C101.593 34.1282 106.974 39.3264 114.109 39.3264C121.165 39.3264 126.69 33.9837 126.69 27.1626V27.0969C126.69 20.1996 121.31 15 114.174 15ZM134.194 27.0956C134.194 22.9871 137.188 19.8871 141.163 19.8871C145.176 19.8871 148.201 23.016 148.201 27.1626V27.2308C148.201 31.3393 145.205 34.438 141.232 34.438C137.22 34.438 134.194 31.3117 134.194 27.1626V27.0956ZM141.232 15C134.175 15 128.649 20.3414 128.649 27.1626V27.2308C128.649 34.1282 134.03 39.3264 141.165 39.3264C148.225 39.3264 153.749 33.9837 153.749 27.1626V27.0969C153.749 20.1996 148.367 15 141.232 15ZM182.894 15.26C179.944 15.26 177.526 16.4102 175.52 18.7749C174.147 16.5034 171.83 15.26 168.931 15.26C165.885 15.26 163.986 16.6951 162.664 18.2248V16.1358C162.664 15.9034 162.479 15.7169 162.244 15.7169H157.219C156.983 15.7169 156.796 15.9034 156.796 16.1358V38.0423C156.796 38.2747 156.983 38.4611 157.219 38.4611H162.244C162.478 38.4611 162.664 38.2747 162.664 38.0423V25.6946C162.664 22.6326 164.348 20.6552 166.939 20.6552C169.534 20.6552 170.964 22.3858 170.964 25.5278V38.041C170.964 38.2734 171.154 38.4598 171.385 38.4598H176.413C176.645 38.4598 176.837 38.2734 176.837 38.041V25.6539C176.837 22.5249 178.434 20.6565 181.108 20.6565C184.433 20.6565 185.13 23.3311 185.13 25.5685V38.0436C185.13 38.276 185.319 38.4624 185.552 38.4624H190.579C190.813 38.4624 191.005 38.276 191.005 38.0436V24.0389C191.003 18.5425 187.971 15.26 182.894 15.26Z" fill="#179BD7"/>
<path d="M93.5596 25.0446C93.6069 25.101 93.6791 25.1326 93.7552 25.1326C93.8314 25.1326 93.901 25.101 93.9496 25.0446L101.733 16.1462C101.798 16.0674 101.811 15.9585 101.773 15.8705C101.732 15.7773 101.64 15.7195 101.536 15.7195H94.8083C94.7361 15.7195 94.6665 15.7523 94.614 15.8088L90.1969 20.8652C90.1129 20.9611 90.1129 21.1016 90.1969 21.2L93.5596 25.0446ZM92.5971 26.1029L83.6029 15.814C83.5504 15.7589 83.4847 15.7208 83.4086 15.7208H76.7673C76.6701 15.7208 76.5743 15.7786 76.5336 15.8692C76.4942 15.9611 76.5073 16.0687 76.5743 16.1462L85.3689 26.2053L75.0617 38.0383C74.9974 38.1158 74.9829 38.2234 75.0223 38.314C75.0656 38.4046 75.1562 38.4624 75.2573 38.4624H81.9656C82.0378 38.4624 82.1113 38.4243 82.1599 38.3705L89.2463 30.2665C89.2621 30.2547 89.2699 30.2455 89.2778 30.2376L92.5971 26.4403C92.6786 26.3458 92.6786 26.2 92.5971 26.1029Z" fill="#179BD7"/>
<path d="M103.026 38.0344L93.9179 27.6142C93.8693 27.5577 93.7984 27.5249 93.7236 27.5249C93.6514 27.5249 93.5778 27.5577 93.5292 27.6142L90.2034 31.418C90.118 31.5152 90.118 31.6583 90.1981 31.7542L95.9872 38.3757C96.0371 38.4335 96.108 38.4624 96.1816 38.4624H102.829C102.932 38.4624 103.024 38.3994 103.063 38.3075C103.106 38.2182 103.093 38.1079 103.026 38.0344Z" fill="#179BD7"/>
<path d="M109.421 47.5407L107.917 50.4201H110.014L109.421 47.5407ZM107.546 51.1344L106.821 52.5302H105.928L109.182 46.4364H109.987L111.305 52.5302H110.456L110.164 51.1344H107.546ZM165.792 52.1481C166.124 52.1481 166.401 52.0851 166.623 51.959C166.845 51.833 167.008 51.6715 167.113 51.4745C167.218 51.2789 167.27 51.0753 167.27 50.8666C167.27 50.6827 167.219 50.5239 167.117 50.3913C167.015 50.2586 166.841 50.1313 166.595 50.0079L165.792 49.6665C165.336 49.4643 165.008 49.2424 164.808 49.0021C164.609 48.7631 164.508 48.4703 164.508 48.1263C164.508 47.7508 164.603 47.4199 164.794 47.1336C164.984 46.8474 165.251 46.6281 165.593 46.4745C165.935 46.3209 166.327 46.2434 166.771 46.2434C167.14 46.2487 167.464 46.3012 167.742 46.3957C168.019 46.4916 168.263 46.6334 168.472 46.8251L168.332 47.6825C167.858 47.2531 167.307 47.0338 166.679 47.0273C166.297 47.0273 165.985 47.1231 165.743 47.3135C165.499 47.5039 165.378 47.7468 165.378 48.0423C165.378 48.2077 165.437 48.3495 165.558 48.4664C165.679 48.5832 165.898 48.7158 166.218 48.8629L167.005 49.2135C167.43 49.4222 167.73 49.6481 167.906 49.891C168.08 50.1339 168.17 50.4254 168.17 50.7628C168.17 51.1502 168.087 51.5073 167.92 51.833C167.753 52.1599 167.485 52.4251 167.117 52.6313C166.746 52.8374 166.272 52.9411 165.695 52.9411C164.899 52.9411 164.275 52.7403 163.82 52.3411L163.968 51.4285C164.509 51.9091 165.119 52.1494 165.792 52.1481ZM170.24 49.1636C169.949 49.4183 169.749 49.7282 169.644 50.0906H172.324C172.329 50.042 172.332 49.9737 172.332 49.8884C172.332 49.543 172.24 49.2726 172.055 49.0756C171.87 48.88 171.608 48.7815 171.27 48.7815C170.876 48.7815 170.533 48.9088 170.24 49.1636ZM172.669 48.5924C172.975 48.9272 173.128 49.3632 173.128 49.8976C173.128 50.0761 173.118 50.2232 173.1 50.34C173.082 50.4569 173.05 50.5948 173.008 50.755H169.535C169.517 51.2171 169.636 51.5717 169.895 51.8211C170.154 52.0706 170.505 52.194 170.949 52.194C171.258 52.194 171.536 52.1546 171.79 52.0785C172.042 52.001 172.291 51.8855 172.537 51.7319L172.426 52.4238C171.952 52.7442 171.392 52.9044 170.744 52.9044C170.319 52.9044 169.951 52.8138 169.64 52.6313C169.329 52.4501 169.093 52.1993 168.928 51.8802C168.766 51.5612 168.683 51.2001 168.683 50.8009C168.683 50.407 168.78 50 168.978 49.5785C169.175 49.157 169.475 48.8038 169.875 48.5176C170.276 48.2313 170.768 48.0895 171.354 48.0895C171.926 48.0908 172.366 48.2576 172.669 48.5924ZM175.977 48.9285C175.613 48.9285 175.305 49.0598 175.052 49.3198C174.8 49.5811 174.634 49.9619 174.553 50.4595L174.194 52.7376H173.372L174.082 48.2353H174.878L174.758 49.0008C175.129 48.4716 175.572 48.2077 176.088 48.2077C176.218 48.2077 176.339 48.2169 176.449 48.2353L176.339 48.9548C176.226 48.939 176.105 48.9285 175.977 48.9285ZM178.447 52.7389H177.68L176.61 48.2379H177.432L178.198 51.7515L180.073 48.2379H180.932L178.447 52.7389ZM181.531 47.37C181.448 47.2846 181.406 47.177 181.406 47.047C181.406 46.8881 181.467 46.7502 181.59 46.6334C181.713 46.5165 181.855 46.4574 182.015 46.4574C182.145 46.4574 182.252 46.4994 182.334 46.5861C182.417 46.6728 182.459 46.7804 182.459 46.9091C182.459 47.0627 182.397 47.2006 182.274 47.3188C182.151 47.4383 182.009 47.4987 181.849 47.4987C181.72 47.4987 181.614 47.4566 181.531 47.37ZM181.434 52.7389H180.61L181.304 48.2379H182.136L181.434 52.7389ZM183.359 52.6273C183.057 52.4435 182.819 52.1927 182.647 51.8763C182.474 51.5598 182.388 51.2106 182.388 50.8285C182.388 50.3492 182.499 49.9002 182.717 49.4813C182.936 49.0638 183.252 48.7263 183.669 48.4716C184.083 48.2169 184.572 48.0895 185.133 48.0895C185.675 48.0895 186.115 48.2248 186.453 48.4952L186.316 49.3343C186.002 49.0021 185.591 48.8366 185.087 48.8366C184.729 48.8366 184.41 48.9272 184.131 49.1084C183.851 49.2909 183.633 49.5286 183.479 49.8227C183.326 50.1181 183.248 50.4346 183.248 50.7733C183.248 51.1856 183.365 51.5191 183.599 51.7739C183.833 52.0286 184.153 52.156 184.56 52.156C184.813 52.156 185.066 52.11 185.319 52.0181C185.571 51.9262 185.796 51.7896 185.993 51.6124L185.863 52.4606C185.622 52.6208 185.382 52.7337 185.142 52.802C184.901 52.8689 184.647 52.9031 184.375 52.9031C183.999 52.9044 183.661 52.8125 183.359 52.6273ZM188.116 49.1636C187.823 49.4183 187.623 49.7282 187.52 50.0906H190.199C190.206 50.042 190.209 49.9737 190.209 49.8884C190.209 49.543 190.117 49.2726 189.932 49.0756C189.747 48.8786 189.485 48.7815 189.146 48.7815C188.751 48.7815 188.409 48.9088 188.116 49.1636ZM190.545 48.5924C190.849 48.9272 191.003 49.3632 191.003 49.8976C191.003 50.0761 190.994 50.2232 190.974 50.34C190.956 50.4569 190.926 50.5948 190.882 50.755H187.408C187.39 51.2171 187.509 51.5717 187.768 51.8211C188.026 52.0706 188.377 52.194 188.821 52.194C189.129 52.194 189.409 52.1546 189.661 52.0785C189.915 52.001 190.163 51.8855 190.41 51.7319L190.299 52.4238C189.825 52.7442 189.265 52.9044 188.617 52.9044C188.193 52.9044 187.824 52.8138 187.513 52.6313C187.202 52.4501 186.966 52.1993 186.801 51.8802C186.639 51.5612 186.557 51.2001 186.557 50.8009C186.557 50.407 186.654 50 186.851 49.5785C187.048 49.157 187.348 48.8038 187.748 48.5176C188.149 48.2313 188.641 48.0882 189.227 48.0882C189.802 48.0895 190.24 48.2576 190.545 48.5924Z" fill="white"/>
</g>
<defs>
<clipPath id="clip0_554_1294">
<rect width="116.003" height="40" fill="white" transform="translate(75 15)"/>
</clipPath>
</defs>
</svg>
